<svg width="64" height="36" viewBox="0 0 64 36" fill="none" xmlns="http://www.w3.org/2000/svg">
<path d="M1 9H16.9329C18.1775 9 19.2929 9.76852 19.7362 10.9315L20.9057 14H8.86842L9.63691 16H21.6818L23.1493 20H11.2071L12 22H24L28.2604 10.9231C28.706 9.76449 29.8191 9 31.0604 9H35L28 27H8L1 9Z" fill="#9772FF"/>
<path d="M51 27L57.0082 11.5502C57.6062 10.0127 59.0866 9 60.7363 9H63.5L56.5 27H51Z" fill="#4D507F"/>
<path d="M42.943 27C36.7154 27 32.4338 20.741 34.691 14.9368L36.9998 9H42.4998L39.4195 16.9208C38.4691 19.3646 40.2719 22 42.894 22C44.4315 22 45.8113 21.0561 46.3685 19.6232L50.4998 9H55.9998L51.195 21.3551C49.8716 24.7583 46.5946 27 42.943 27Z" fill="#4D507F"/>
</svg>
