<svg width="24" height="24" fill="currentColor" viewBox="0 0 24 24">
  <path d="M13.516 15.531c.437 0 .796-.148 1.078-.445.281-.297.422-.649.422-1.055a1.48 1.48 0 0 0-.422-1.054c-.281-.297-.64-.446-1.078-.446H10v3h3.516Zm-3.516-9v3h3c.406 0 .758-.148 1.055-.445.297-.297.445-.649.445-1.055 0-.406-.148-.758-.445-1.054A1.442 1.442 0 0 0 13 6.53h-3Zm5.625 4.266c1.438.656 2.156 1.797 2.156 3.422 0 1.062-.351 1.96-1.054 2.695-.704.734-1.586 1.102-2.649 1.102H7V4h6.281c1.125 0 2.07.39 2.836 1.172.766.781 1.149 1.734 1.149 2.86 0 1.124-.547 2.046-1.641 2.765Z"/>
</svg>
