<svg width="24" height="24" viewBox="0 0 24 24" fill="none" xmlns="http://www.w3.org/2000/svg">
<path d="M13.5156 15.5312C13.9531 15.5312 14.3125 15.3828 14.5938 15.0859C14.875 14.7891 15.0156 14.4375 15.0156 14.0312C15.0156 13.625 14.875 13.2734 14.5938 12.9766C14.3125 12.6797 13.9531 12.5312 13.5156 12.5312H10V15.5312H13.5156ZM10 6.53125V9.53125H13C13.4062 9.53125 13.7578 9.38281 14.0547 9.08594C14.3516 8.78906 14.5 8.4375 14.5 8.03125C14.5 7.625 14.3516 7.27344 14.0547 6.97656C13.7578 6.67969 13.4062 6.53125 13 6.53125H10ZM15.625 10.7969C17.0625 11.4531 17.7812 12.5938 17.7812 14.2188C17.7812 15.2812 17.4297 16.1797 16.7266 16.9141C16.0234 17.6484 15.1406 18.0156 14.0781 18.0156H7V4H13.2812C14.4062 4 15.3516 4.39062 16.1172 5.17188C16.8828 5.95312 17.2656 6.90625 17.2656 8.03125C17.2656 9.15625 16.7188 10.0781 15.625 10.7969Z" fill="currentColor"/>
</svg>
