<svg width="24" height="24" viewBox="0 0 24 24" fill="currentColor">
<path d="M5.53617 11.3173C6.69204 8.09277 9.14162 5.19748 11.7347 3C14.3277 5.19748 16.7773 8.09277 17.9332 11.3173C18.648 13.3113 18.7186 15.4756 17.7119 17.3888C16.5545 19.5885 14.2204 21 11.7347 21C9.24895 21 6.91482 19.5885 5.75738 17.3888C4.75075 15.4756 4.82138 13.3113 5.53617 11.3173ZM14.0367 7.8041C13.3634 6.93124 12.5923 6.0813 11.7347 5.2661C10.877 6.0813 10.106 6.93124 9.43268 7.80414C8.38566 9.16162 7.60913 10.5352 7.12471 11.8867C6.91266 12.4782 6.72527 13.2094 6.69189 14H16.7774C16.7441 13.2094 16.5567 12.4782 16.3446 11.8867C15.8602 10.5352 15.0837 9.16159 14.0367 7.8041Z"/>
</svg>
