<svg width="24" height="24" viewBox="0 0 24 24" fill="currentColor">
<path d="M18.9844 15.4844C20.3281 16.9531 21 18.125 21 19C21 19.5312 20.7969 20 20.3906 20.4062C19.9844 20.8125 19.5156 21.0156 18.9844 21.0156C18.4531 21.0156 17.9922 20.8125 17.6016 20.4062C17.2109 20 17.0156 19.5312 17.0156 19C17.0156 18.625 17.1797 18.1406 17.5078 17.5469C17.8359 16.9531 18.1562 16.4688 18.4688 16.0938L18.9844 15.4844ZM4.20312 12.9844H15.8125L9.98438 7.20312L4.20312 12.9844ZM17.5469 11.9531C17.8594 12.2656 18.0156 12.625 18.0156 13.0312C18.0156 13.4375 17.8594 13.7812 17.5469 14.0625L11.0625 20.5469C10.75 20.8594 10.3906 21.0156 9.98438 21.0156C9.60938 21.0156 9.26562 20.8594 8.95312 20.5469L2.42188 14.0625C2.14062 13.7812 2 13.4219 2 12.9844C2 12.5781 2.14062 12.2344 2.42188 11.9531L8.57812 5.79688L6.1875 3.40625L7.64062 2L17.5469 11.9531Z"/>
</svg>
