<svg width="24" height="24" viewBox="0 0 24 24" fill="none" xmlns="http://www.w3.org/2000/svg">
<path d="M11.7347 5.2661C12.5923 6.0813 13.3634 6.93124 14.0367 7.8041C15.0837 9.16159 15.8602 10.5352 16.3446 11.8867C16.7801 13.1014 17.1116 14.9056 16.2185 16.603C15.3525 18.249 13.5925 19.3125 11.7347 19.3125C9.87684 19.3125 8.11685 18.249 7.25078 16.603C6.3577 14.9056 6.68923 13.1014 7.12471 11.8867C7.60913 10.5352 8.38566 9.16162 9.43268 7.80414C10.106 6.93124 10.877 6.0813 11.7347 5.2661ZM11.7347 3C9.14162 5.19748 6.69204 8.09277 5.53617 11.3173C4.82138 13.3113 4.75075 15.4756 5.75738 17.3888C6.91482 19.5885 9.24895 21 11.7347 21C14.2204 21 16.5545 19.5885 17.7119 17.3888C18.7186 15.4756 18.648 13.3113 17.9332 11.3173C16.7773 8.09277 14.3277 5.19748 11.7347 3V3Z" fill="currentColor"/>
</svg>
