<svg width="24" height="24" viewBox="0 0 24 24" fill="none" xmlns="http://www.w3.org/2000/svg">
<path fill-rule="evenodd" clip-rule="evenodd" d="M4.48038 4.48036L3.06616 5.89458L6.45273 9.28115C6.09475 9.9421 5.78539 10.622 5.53616 11.3173C4.82137 13.3113 4.75074 15.4756 5.75737 17.3888C6.91482 19.5885 9.24894 21 11.7347 21C13.4579 21 15.1082 20.3217 16.3442 19.1726L18.9705 21.799L20.3848 20.3848L17.5973 17.5973L7.53578 7.53577L4.48038 4.48036ZM8.77067 5.94225L18.3548 15.5264C18.6108 14.1339 18.4236 12.6855 17.9332 11.3173C16.7773 8.09277 14.3277 5.19748 11.7347 3C10.6994 3.87734 9.687 4.8659 8.77067 5.94225Z" fill="currentColor"/>
</svg>
