<svg width="24" height="24" viewBox="0 0 24 24" fill="currentColor">
<path d="M17.4844 12C17.8906 12 18.2422 11.8594 18.5391 11.5781C18.8359 11.2969 18.9844 10.9375 18.9844 10.5C18.9844 10.0625 18.8359 9.70312 18.5391 9.42188C18.2422 9.14062 17.8906 9 17.4844 9C17.0781 9 16.7266 9.14062 16.4297 9.42188C16.1328 9.70312 15.9844 10.0625 15.9844 10.5C15.9844 10.9375 16.1328 11.2969 16.4297 11.5781C16.7266 11.8594 17.0781 12 17.4844 12ZM14.4844 8.01562C14.8906 8.01562 15.2422 7.86719 15.5391 7.57031C15.8359 7.27344 15.9844 6.92188 15.9844 6.51562C15.9844 6.10938 15.8359 5.75781 15.5391 5.46094C15.2422 5.16406 14.8906 5.01562 14.4844 5.01562C14.0781 5.01562 13.7266 5.16406 13.4297 5.46094C13.1328 5.75781 12.9844 6.10938 12.9844 6.51562C12.9844 6.92188 13.1328 7.27344 13.4297 7.57031C13.7266 7.86719 14.0781 8.01562 14.4844 8.01562ZM9.51562 8.01562C9.92188 8.01562 10.2734 7.86719 10.5703 7.57031C10.8672 7.27344 11.0156 6.92188 11.0156 6.51562C11.0156 6.10938 10.8672 5.75781 10.5703 5.46094C10.2734 5.16406 9.92188 5.01562 9.51562 5.01562C9.10938 5.01562 8.75781 5.16406 8.46094 5.46094C8.16406 5.75781 8.01562 6.10938 8.01562 6.51562C8.01562 6.92188 8.16406 7.27344 8.46094 7.57031C8.75781 7.86719 9.10938 8.01562 9.51562 8.01562ZM6.51562 12C6.92188 12 7.27344 11.8594 7.57031 11.5781C7.86719 11.2969 8.01562 10.9375 8.01562 10.5C8.01562 10.0625 7.86719 9.70312 7.57031 9.42188C7.27344 9.14062 6.92188 9 6.51562 9C6.10938 9 5.75781 9.14062 5.46094 9.42188C5.16406 9.70312 5.01562 10.0625 5.01562 10.5C5.01562 10.9375 5.16406 11.2969 5.46094 11.5781C5.75781 11.8594 6.10938 12 6.51562 12ZM12 3C14.4688 3 16.5859 3.78125 18.3516 5.34375C20.1172 6.90625 21 8.79688 21 11.0156C21 12.3906 20.5078 13.5625 19.5234 14.5312C18.5391 15.5 17.3594 15.9844 15.9844 15.9844H14.25C13.8125 15.9844 13.4531 16.1328 13.1719 16.4297C12.8906 16.7266 12.75 17.0781 12.75 17.4844C12.75 17.8281 12.875 18.1562 13.125 18.4688C13.375 18.7812 13.5 19.125 13.5 19.5C13.5 19.9375 13.3594 20.2969 13.0781 20.5781C12.7969 20.8594 12.4375 21 12 21C9.5 21 7.375 20.125 5.625 18.375C3.875 16.625 3 14.5 3 12C3 9.5 3.875 7.375 5.625 5.625C7.375 3.875 9.5 3 12 3Z"/>
</svg>
