<svg width="24" height="24" fill="currentColor" viewBox="0 0 24 24">
  <path fill-rule="evenodd" d="M7.757 6.343 12 2.1l4.243 4.243L12 10.586 7.757 6.343ZM12 4.93l1.414 1.414L12 7.757l-1.414-1.414L12 4.93ZM13.414 12l4.243-4.243L21.899 12l-4.242 4.243L13.414 12Zm4.243-1.414L19.07 12l-1.414 1.414L16.243 12l1.414-1.414ZM12 13.414l-4.243 4.243L12 21.899l4.243-4.242L12 13.414Zm1.414 4.243L12 16.243l-1.414 1.414L12 19.07l1.414-1.414ZM2.1 12l4.243-4.243L10.586 12l-4.243 4.243L2.101 12Zm4.243-1.414L7.757 12l-1.414 1.414L4.93 12l1.414-1.414Z" />
</svg>
