<svg width="24" height="24" fill="currentColor" viewBox="0 0 24 24">
    <path d="M9.559 10.578c.866-.84 2.13-.603 3.06.298.929.9 1.173 2.124.307 2.963-2.043 1.98-6.167 2.253-5.36 1.358 1.785-1.98.65-3.317 1.993-4.619Zm11.367-7.544c.452.425-3.488 5.323-4.98 6.727-.742.698-1.14.93-1.436 1.143-.13.093-.17-.03-.2-.085a4.164 4.164 0 0 0-.708-.901c-.266-.25-.683-.5-.976-.644-.06-.028-.19-.065-.09-.186.227-.28.474-.653 1.215-1.35 1.493-1.403 6.721-5.13 7.175-4.704Zm-1.787 17.905a1.13 1.13 0 0 1-.373.061 1.068 1.068 0 0 1-1.028-.706c-.386-1.077-1.282-1.848-2.539-2.175-2.454-.64-3.622-.297-5.684 1.12l-.18.123c-.377.268-.77.51-1.18.725-1.662.849-2.961.928-3.918.47-.659-.314-1.112-.892-1.237-1.582-.286-1.578 1.046-2.978 2.927-3.55a1.018 1.018 0 0 1 1.3.676 1.035 1.035 0 0 1-.698 1.334 3.35 3.35 0 0 0-1.1.6c-.22.185-.371.399-.344.488.047.155.099.208.18.24.174.071.5.033.92-.108a5.84 5.84 0 0 0 .59-.236c.22-.099.39-.185.652-.323.085-.045.199-.123.5-.34 1.227-.883 2.028-1.348 3.201-1.71 1.757-.543 3.577-.44 5.402.306 1.574.64 2.699 1.787 3.243 3.307.196.543-.078 1.091-.634 1.28Z"/>
</svg>