<svg width="24" height="24" viewBox="0 0 24 24" fill="none" xmlns="http://www.w3.org/2000/svg">
<path fill-rule="evenodd" clip-rule="evenodd" d="M1 6C1 4.89543 1.89543 4 3 4H21C22.1046 4 23 4.89543 23 6V18C23 19.1046 22.1046 20 21 20H3C1.89543 20 1 19.1046 1 18V6ZM3 7C3 6.44772 3.44772 6 4 6H20C20.5523 6 21 6.44772 21 7V17C21 17.5523 20.5523 18 20 18H4C3.44772 18 3 17.5523 3 17V7ZM7 22C6.44772 22 6 22.4477 6 23C6 23.5523 6.44771 24 7 24H17C17.5523 24 18 23.5523 18 23C18 22.4477 17.5523 22 17 22H7Z" fill="currentColor"/>
</svg>
