<svg xmlns="http://www.w3.org/2000/svg" width="24" height="24" fill="currentColor" viewBox="0 0 24 24">
  <path fill-rule="evenodd" d="m9.2 14.711.47 2.317h2.139a100.091 100.091 0 0 0-1.377-5.346A125.901 125.901 0 0 0 9.022 7h-2.17a404.722 404.722 0 0 0-1.41 4.633A101.17 101.17 0 0 0 4 17.028h2.074l.453-2.316H9.2ZM7.58 10.03l.308-1.086c.108.378.205.74.292 1.085.097.335.183.67.259 1.005.086.324.162.653.227.988.065.335.13.68.194 1.037H6.9c.065-.356.13-.702.194-1.037l.227-.988.26-1.005Zm7.274 4.39c-.226-.335-.34-.816-.34-1.442 0-1.404.584-2.106 1.75-2.106a3.448 3.448 0 0 1 .778.081v3.661a2.256 2.256 0 0 1-.519.211 2.117 2.117 0 0 1-.6.081c-.485 0-.842-.162-1.069-.486Zm3.29 4.439c.604-.594.907-1.512.907-2.754V9.657c-.973-.27-1.874-.405-2.706-.405-1.188 0-2.128.308-2.819.923-.691.616-1.037 1.55-1.037 2.803 0 1.113.254 1.982.762 2.608.518.627 1.274.94 2.268.94.27 0 .518-.027.745-.081a5.71 5.71 0 0 0 .778-.243v.308c0 .216-.027.416-.081.6a1.202 1.202 0 0 1-.276.502 1.26 1.26 0 0 1-.534.324c-.227.086-.514.13-.86.13-.518 0-.95-.055-1.295-.163a11.778 11.778 0 0 1-.988-.324l-.373 1.685c.4.13.816.243 1.248.34.442.097.901.146 1.377.146 1.328 0 2.29-.297 2.883-.891Z" clip-rule="evenodd"/>
</svg>
