<svg width="24" height="24" viewBox="0 0 24 24" fill="none" xmlns="http://www.w3.org/2000/svg">
<path fill-rule="evenodd" clip-rule="evenodd" d="M10.7675 4.94731L11.7286 7.78956L10.7812 8.10986L10.0661 5.99471L4.90421 16.4303L6.98792 15.7258L7.30823 16.6731L4.47065 17.6325L3.52335 17.9529L3.52334 17.9528L3.20305 17.0055L2.24179 14.1626L3.18911 13.8423L3.89546 15.9314L9.0396 5.53156L6.9815 6.22744L6.6612 5.28012L9.49992 4.3203L10.4472 3.99999L10.7675 4.94731ZM15 6L19 14L21 18H19L18.0588 16H11.9412L11 18H9L11 14L15 6ZM15 9.5L17.1176 14H12.8824L15 9.5Z" fill="currentColor"/>
</svg>
