<svg width="24" height="24" fill="currentColor" viewBox="0 0 24 24">
  <path fill-rule="evenodd" d="M10.959 16.825a5.16 5.16 0 0 0 .71-.24v-.498a15.4 15.4 0 0 1-.457-.007 1.035 1.035 0 0 1-.362-.068.605.605 0 0 1-.287-.267 1.1 1.1 0 0 1-.09-.485c0-.223.01-.688.028-1.395.023-.706.034-1.317.034-1.832 0-.487-.084-.882-.253-1.182a1.705 1.705 0 0 0-.67-.698 2.825 2.825 0 0 0-.998-.321 8.333 8.333 0 0 0-1.217-.082c-.319 0-.665.039-1.039.116a4.147 4.147 0 0 0-.99.315c-.292.132-.54.3-.746.506-.2.2-.3.428-.3.683 0 .296.097.538.293.725.196.182.486.273.868.273.27 0 .468-.025.595-.075.132-.05.25-.12.356-.212a.65.65 0 0 0 .177-.273.94.94 0 0 0 .062-.294c0-.173-.032-.353-.096-.54a2.673 2.673 0 0 1-.116-.417c.082-.06.19-.117.321-.171.137-.06.306-.09.506-.09.223 0 .403.051.54.151s.237.224.3.37c.06.127.099.284.117.471.018.187.027.337.027.451v.656c-.264.128-.683.274-1.257.438-.575.16-1.067.315-1.477.465-.214.082-.412.17-.595.267a1.832 1.832 0 0 0-.471.362 1.72 1.72 0 0 0-.349.553 2.029 2.029 0 0 0-.123.752c0 .515.187.93.56 1.245.374.31.825.464 1.354.464.356 0 .631-.025.827-.075.2-.045.408-.118.622-.218.164-.078.317-.171.458-.28a4.22 4.22 0 0 0 .451-.397h.041c.096.31.276.549.54.718.265.163.677.246 1.238.246.305 0 .595-.037.868-.11Zm-3.445-3.5c.25-.114.503-.214.758-.3l-.027 2.317c-.123.15-.266.278-.43.383-.16.1-.365.15-.616.15a.83.83 0 0 1-.601-.24c-.16-.159-.24-.416-.24-.772 0-.269.048-.501.144-.697.096-.2.228-.365.396-.492.16-.123.365-.24.616-.349Zm10.835-2.611h1.503v-.738H17.2a7.607 7.607 0 0 0-.663-.137 4.777 4.777 0 0 0-.895-.082c-.948 0-1.732.2-2.352.601-.615.401-.923.937-.923 1.607 0 .474.144.875.43 1.203.292.328.746.606 1.361.834v.075a12.7 12.7 0 0 0-.458.15 1.86 1.86 0 0 0-.465.22 1.47 1.47 0 0 0-.362.348.835.835 0 0 0-.137.485c0 .31.116.584.349.82.237.233.565.42.984.561v.082c-.71.023-1.235.15-1.572.383-.337.232-.506.529-.506.889 0 .583.312 1.02.937 1.312.624.292 1.535.438 2.734.438.743 0 1.365-.064 1.866-.192a4.334 4.334 0 0 0 1.3-.54c.34-.223.594-.487.758-.793a1.99 1.99 0 0 0 .253-.977 1.73 1.73 0 0 0-.205-.855 1.909 1.909 0 0 0-.52-.615 2.337 2.337 0 0 0-.677-.362 2.663 2.663 0 0 0-.786-.164 36.308 36.308 0 0 1-.909-.041 29.54 29.54 0 0 0-1.258-.055c-.419-.01-.708-.053-.868-.13-.16-.078-.239-.216-.239-.417 0-.082.032-.166.096-.253a.996.996 0 0 1 .184-.198h1.114c.438 0 .844-.05 1.217-.15.374-.1.7-.24.978-.418a2.07 2.07 0 0 0 .663-.67c.168-.277.253-.574.253-.888 0-.242-.046-.474-.137-.697a2.107 2.107 0 0 0-.396-.636Zm-1.955.04c.168.31.253.732.253 1.266 0 .524-.09.93-.267 1.216a.829.829 0 0 1-.752.431c-.32 0-.565-.16-.738-.479-.174-.319-.26-.726-.26-1.223 0-.219.014-.43.04-.636.028-.21.08-.392.158-.547.082-.16.19-.28.321-.362a.829.829 0 0 1 .465-.13c.351 0 .61.155.78.465Zm1.271 6.543c.087.155.13.31.13.465 0 .506-.155.872-.465 1.1-.31.228-.759.342-1.347.342-.396 0-.692-.039-.888-.116a1.831 1.831 0 0 1-.534-.308 1.163 1.163 0 0 1-.3-.383.899.899 0 0 1-.096-.375c0-.265.052-.49.157-.677.11-.187.244-.349.404-.486.656 0 1.17.005 1.544.014.379.01.65.027.814.055.3.095.494.218.581.369Z" clip-rule="evenodd"/>
</svg>
