<svg xmlns="http://www.w3.org/2000/svg" width="24" height="24" fill="currentColor" viewBox="0 0 24 24">
  <path fill-rule="evenodd" d="M8.158 16.935h5.337v-.539a3.215 3.215 0 0 1-.463-.069 1.515 1.515 0 0 1-.842-.483 1.666 1.666 0 0 1-.228-.38 151.4 151.4 0 0 1-1.304-3.203A681.472 681.472 0 0 0 8.538 7h-1.38l-1.782 4.294a3092.37 3092.37 0 0 1-1.602 3.887 2.1 2.1 0 0 1-.331.573 1.705 1.705 0 0 1-.476.407c-.11.07-.263.125-.456.166-.189.037-.36.06-.511.07v.538h4.018v-.539c-.52-.046-.893-.12-1.118-.22-.221-.107-.332-.233-.332-.38 0-.046.007-.127.021-.242.018-.115.071-.302.159-.56.069-.197.15-.423.241-.676.097-.253.184-.474.263-.663h3.383l.835 2.03c.032.078.05.14.055.186a.64.64 0 0 1 .014.125c0 .106-.168.195-.504.269a7.024 7.024 0 0 1-.877.131v.539ZM6.93 9.423l1.423 3.549H5.528l1.401-3.549Zm12.8 1.436h1.519v-.745H18.57a7.698 7.698 0 0 0-.67-.138 4.824 4.824 0 0 0-.904-.083c-.957 0-1.749.202-2.375.607-.621.405-.932.946-.932 1.623 0 .478.145.883.435 1.215.295.331.753.612 1.374.842v.076a10.34 10.34 0 0 0-.463.152c-.184.06-.34.133-.469.22-.147.102-.27.22-.366.353a.842.842 0 0 0-.138.49c0 .313.117.59.352.828.24.235.57.424.994.567v.082c-.718.023-1.247.152-1.588.387-.34.235-.51.534-.51.898 0 .589.315 1.03.945 1.325.63.295 1.552.442 2.762.442.75 0 1.378-.064 1.885-.193a4.38 4.38 0 0 0 1.311-.546c.346-.225.601-.492.767-.8a2.01 2.01 0 0 0 .255-.988 1.75 1.75 0 0 0-.207-.863 1.928 1.928 0 0 0-.525-.621 2.364 2.364 0 0 0-.683-.366 2.692 2.692 0 0 0-.794-.166 33.39 33.39 0 0 1-.918-.041 29.962 29.962 0 0 0-1.27-.055c-.424-.01-.716-.053-.877-.132-.162-.078-.242-.218-.242-.42 0-.084.032-.169.097-.256a.975.975 0 0 1 .186-.2h1.125c.442 0 .852-.051 1.23-.152.377-.101.706-.242.986-.421.277-.175.5-.4.67-.677.17-.28.256-.58.256-.897 0-.244-.046-.48-.138-.705a2.13 2.13 0 0 0-.4-.642Zm-1.974.042c.17.313.255.738.255 1.277 0 .53-.09.939-.27 1.229a.837.837 0 0 1-.759.435c-.322 0-.57-.161-.745-.484-.175-.322-.263-.734-.263-1.235 0-.221.014-.435.042-.642.027-.212.08-.396.159-.553a.903.903 0 0 1 .324-.366.838.838 0 0 1 .47-.13.84.84 0 0 1 .787.469Zm1.284 6.607a.956.956 0 0 1 .13.47c0 .51-.155.88-.468 1.11-.314.23-.767.346-1.36.346-.401 0-.7-.04-.898-.117a1.847 1.847 0 0 1-.539-.311 1.173 1.173 0 0 1-.303-.387.908.908 0 0 1-.097-.38c0-.266.053-.494.159-.683a1.91 1.91 0 0 1 .407-.49c.663 0 1.183.005 1.56.014.382.009.656.027.822.055.304.096.5.22.587.373Z" clip-rule="evenodd"/>
</svg>
