<svg width="24" height="24" fill="currentColor" viewBox="0 0 24 24">
  <path fill-rule="evenodd" d="M22.52 13.104c.109-.019.234-.035.375-.048v-.533h-5.038v.533c.137.018.308.048.513.089.205.04.376.093.513.157.178.082.296.18.355.294.06.11.09.246.09.41v1.969c-.174.16-.418.3-.732.423-.31.119-.666.178-1.067.178-.857 0-1.52-.403-1.989-1.21-.465-.806-.697-1.923-.697-3.35 0-1.344.237-2.399.71-3.164.48-.766 1.156-1.149 2.031-1.149.738 0 1.349.258 1.832.773.483.515.898 1.303 1.244 2.365h.602L21.2 7.3h-.595l-.423.376a6.495 6.495 0 0 0-1.162-.43 5.457 5.457 0 0 0-1.532-.206c-.81 0-1.551.125-2.221.376-.666.25-1.23.606-1.696 1.066a4.674 4.674 0 0 0-1.087 1.662 5.724 5.724 0 0 0-.376 2.098c0 .811.133 1.531.397 2.16a4.491 4.491 0 0 0 1.1 1.58c.465.428 1.005.75 1.62.963a5.966 5.966 0 0 0 1.976.322c.748 0 1.566-.121 2.454-.363.893-.241 1.568-.499 2.024-.772a17.797 17.797 0 0 1-.027-1.066v-1.128c0-.15.029-.294.088-.431.06-.137.183-.235.37-.294.163-.055.3-.091.41-.11ZM6.715 17h5.284v-.533a3.186 3.186 0 0 1-.458-.069 1.502 1.502 0 0 1-.834-.478 1.649 1.649 0 0 1-.226-.376c-.355-.839-.786-1.896-1.292-3.172a674.247 674.247 0 0 0-2.098-5.209H5.724L3.96 11.415c-.529 1.285-1.057 2.568-1.586 3.849a2.085 2.085 0 0 1-.328.567 1.69 1.69 0 0 1-.472.403 1.42 1.42 0 0 1-.45.164c-.188.037-.356.06-.507.069V17h3.979v-.533c-.515-.046-.884-.119-1.108-.219-.218-.105-.328-.23-.328-.376 0-.046.007-.125.02-.24.019-.113.071-.298.158-.553a21.456 21.456 0 0 1 .499-1.326h3.35l.827 2.01c.032.077.05.139.054.184a.58.58 0 0 1 .014.123c0 .105-.166.194-.499.267a6.936 6.936 0 0 1-.868.13V17ZM5.498 9.562l1.408 3.514H4.11l1.388-3.514Z" clip-rule="evenodd"/>
</svg>
