<svg width="24" height="24" fill="currentColor" viewBox="0 0 24 24">
  <path fill-rule="evenodd" d="M10.76 15.886c-.297 0-.445-.21-.445-.63 0-.09.005-.177.014-.259.032-.574.62-2.033 1.763-4.375.073-.137-.016-.296-.266-.478-.132-.096-.328-.144-.588-.144-.242 0-.52.253-.834.759-.337-.506-.782-.759-1.333-.759-.552 0-1.144.235-1.777.704a5.576 5.576 0 0 0-1.573 1.784c-.45.78-.69 1.575-.718 2.386-.027.647.108 1.185.404 1.613.146.205.321.367.526.486.21.114.456.17.738.17.283 0 .55-.063.8-.19.63-.329 1.156-.926 1.58-1.792a4.434 4.434 0 0 0-.069.752c0 .146.034.308.103.485.14.347.36.572.656.677.45.15.893.078 1.326-.219.41-.282.615-.62.615-1.011 0-.1-.048-.15-.143-.15-.046 0-.137.031-.274.095-.132.064-.3.096-.506.096Zm-3.713.219c-.35 0-.526-.274-.526-.82 0-.694.139-1.39.417-2.093.132-.328.285-.63.458-.909.178-.282.367-.526.567-.731.206-.205.415-.367.63-.486.218-.118.407-.177.567-.177.164 0 .287.025.369.075.241.146.371.374.39.684a9.76 9.76 0 0 1-.356 1.066c-.442 1.135-.95 2.037-1.524 2.707-.392.456-.723.684-.992.684Zm7.28 1.039c.844 0 1.612-.52 2.304-1.559-.442 1.713-1.093 2.969-1.955 3.767-.21.191-.43.353-.663.485a1.992 1.992 0 0 1-.67.26c-.21.036-.314.134-.314.294 0 .09.089.193.267.307.082.05.175.09.28.116.105.028.275.026.512-.006.237-.028.518-.137.841-.328 1.226-.716 2.238-2.297 3.035-4.745l1.012-3.226c.169-.524.378-1.058.629-1.6.055-.114-.03-.237-.253-.369a1.357 1.357 0 0 0-.287-.13.884.884 0 0 0-.28-.048c-.087 0-.19.06-.308.178a1.412 1.412 0 0 0-.15.178 3.3 3.3 0 0 1-.15.178c-.274-.598-.73-.896-1.368-.896-.638 0-1.28.24-1.928.718-.31.223-.601.49-.875.8a5.665 5.665 0 0 0-1.183 2.167c-.113.405-.17.81-.17 1.216 0 .406.045.748.137 1.026.264.811.777 1.217 1.538 1.217Zm-.027-2.92a6.91 6.91 0 0 1 .28-1.011c.124-.328.267-.638.431-.93a4.67 4.67 0 0 1 .527-.772c.191-.224.392-.399.601-.527.21-.132.42-.198.63-.198.209 0 .444.126.703.376.132.132.21.262.233.39-.155.688-.424 1.41-.807 2.167-.173.341-.355.66-.547.957a6.671 6.671 0 0 1-.574.772 3.53 3.53 0 0 1-.547.52.902.902 0 0 1-.526.184c-.178 0-.313-.095-.404-.287a.968.968 0 0 1-.082-.3 4.54 4.54 0 0 1-.02-.5c0-.218.034-.499.102-.84Z" clip-rule="evenodd"/>
</svg>
