<svg width="24" height="24" fill="currentColor" viewBox="0 0 24 24">
  <path fill-rule="evenodd" d="M15.85 8.803c.324-.173.725-.26 1.202-.26.368 0 .726.06 1.073.179.346.12.639.255.877.406l.52-1.593-.34-.195a2.69 2.69 0 0 0-.553-.243 5.618 5.618 0 0 0-.813-.196 4.993 4.993 0 0 0-1.04-.097c-.607 0-1.176.114-1.707.341a3.66 3.66 0 0 0-1.382.992c-.39.444-.699.997-.926 1.658-.228.65-.341 1.403-.341 2.259 0 .867.097 1.63.292 2.292.195.65.472 1.197.829 1.641a3.57 3.57 0 0 0 1.284.992c.51.217 1.078.325 1.707.325.715 0 1.322-.054 1.82-.163.51-.108.883-.205 1.122-.292v-5.023h-2V15.5a5.082 5.082 0 0 1-.78.065c-.737 0-1.295-.282-1.674-.845-.38-.575-.569-1.463-.569-2.666 0-.52.044-.992.13-1.414a3.2 3.2 0 0 1 .455-1.105c.217-.315.488-.558.813-.732Zm-6.633 5.965.472 2.325h2.145a100.381 100.381 0 0 0-1.381-5.364 126.327 126.327 0 0 0-1.414-4.697H6.86a406.464 406.464 0 0 0-1.414 4.648A101.59 101.59 0 0 0 4 17.093h2.08l.456-2.325h2.681Zm-1.625-4.697c.098-.347.2-.71.309-1.089.108.38.206.742.293 1.09.097.335.184.67.26 1.007.086.325.162.655.227.991.065.336.13.683.195 1.04H6.91c.065-.357.13-.704.195-1.04.076-.336.152-.666.228-.991l.26-1.008Z" clip-rule="evenodd"/>
</svg>
