<svg width="24" height="24" fill="currentColor" viewBox="0 0 24 24">
  <path fill-rule="evenodd" d="M9.385 16.339c-.07.08-.146.16-.229.236a2.434 2.434 0 0 1-.69.43c-.27.11-.588.165-.957.165-.47 0-.896-.094-1.279-.28a2.33 2.33 0 0 1-.902-.787A2.064 2.064 0 0 1 5 14.956c0-.387.073-.731.219-1.032.146-.3.36-.554.642-.759.287-.21.645-.367 1.074-.472a6.073 6.073 0 0 1 1.49-.164h.882v-.458c0-.237-.04-.44-.117-.608a.865.865 0 0 0-.362-.403c-.16-.096-.367-.144-.622-.144-.219 0-.408.039-.567.116a.822.822 0 0 0-.37.321.888.888 0 0 0-.13.486H5.172c0-.315.073-.613.219-.896.145-.282.357-.53.635-.745.278-.218.609-.39.992-.512.387-.123.82-.185 1.298-.185.575 0 1.085.096 1.532.287a2.34 2.34 0 0 1 1.052.861c.26.383.39.862.39 1.436v3.165c0 .406.025.738.075.998.05.255.123.479.219.67v.116h-1.99a2.79 2.79 0 0 1-.208-.694Zm-.078-1.396a1.412 1.412 0 0 1-.595.58 1.598 1.598 0 0 1-.773.177c-.196 0-.366-.036-.512-.11a.828.828 0 0 1-.335-.314.913.913 0 0 1-.116-.458c0-.168.027-.323.082-.464a.977.977 0 0 1 .273-.37c.123-.109.28-.193.472-.253a2.3 2.3 0 0 1 .676-.088h.828v1.3Zm9.966-5.306H17.49l-.078.7a2.191 2.191 0 0 0-.667-.564C16.412 9.591 16 9.5 15.507 9.5a2.79 2.79 0 0 0-1.251.273c-.37.183-.684.44-.944.773a3.722 3.722 0 0 0-.594 1.196 5.38 5.38 0 0 0-.205 1.538v.144c0 .538.068 1.034.205 1.49.141.456.342.852.601 1.19.26.337.572.599.937.786a2.7 2.7 0 0 0 1.237.28c.456 0 .848-.091 1.176-.274a2.34 2.34 0 0 0 .629-.501v.406c0 .35-.066.65-.198.895-.133.25-.322.44-.568.568-.246.132-.547.198-.902.198a2.2 2.2 0 0 1-.998-.226c-.3-.146-.565-.35-.793-.615l-.868 1.162c.21.264.47.483.779.656.315.174.643.301.984.383.347.082.675.123.985.123.706 0 1.326-.123 1.86-.369.532-.241.947-.6 1.243-1.073.301-.47.451-1.041.451-1.716v-7.15Zm-1.975 2.107v3.191a1.4 1.4 0 0 1-.424.458c-.228.15-.522.225-.882.225a1.34 1.34 0 0 1-.677-.164 1.457 1.457 0 0 1-.471-.472 2.364 2.364 0 0 1-.274-.704 3.905 3.905 0 0 1-.089-.854v-.144c0-.314.032-.606.096-.875.064-.273.157-.51.28-.71.128-.201.285-.358.472-.472a1.26 1.26 0 0 1 .677-.178c.269 0 .501.046.697.137.196.09.356.218.479.383.042.055.08.115.116.179Z" clip-rule="evenodd"/>
</svg>
