<svg xmlns="http://www.w3.org/2000/svg" width="24" height="24" fill="currentColor" viewBox="0 0 24 24">
  <path fill-rule="evenodd" d="M8.785 15.562h-.6c-.39 0-.708-.067-.954-.2-.246-.144-.37-.38-.37-.708 0-.185.042-.334.124-.446.082-.113.19-.2.323-.262.143-.061.307-.102.492-.123a3.546 3.546 0 0 1 1.046-.016c.174.01.323.026.446.047v1.661c-.143.02-.313.036-.507.046Zm.707-5.847c-.39-.143-.882-.215-1.477-.215a8.11 8.11 0 0 0-1.338.108c-.43.061-.764.133-1 .215l.261 1.523c.206-.072.472-.133.8-.184a6.973 6.973 0 0 1 1.047-.077c.553 0 .943.123 1.169.369.225.236.338.533.338.892v.23a6.225 6.225 0 0 0-1.307-.122c-.39 0-.765.04-1.123.123a2.806 2.806 0 0 0-.954.37 1.946 1.946 0 0 0-.662.691C5.082 13.926 5 14.28 5 14.7c0 .441.072.815.215 1.123.144.297.35.544.616.738.266.185.584.318.954.4.38.083.8.123 1.261.123.677 0 1.287-.04 1.83-.122.545-.083.955-.154 1.232-.216v-4.308c0-.45-.052-.856-.154-1.215a2.131 2.131 0 0 0-.508-.923c-.236-.256-.554-.451-.954-.585Zm5.277 4.723c-.215-.318-.323-.774-.323-1.369 0-1.333.554-2 1.662-2a3.277 3.277 0 0 1 .738.077v3.477a2.146 2.146 0 0 1-.492.2 2.01 2.01 0 0 1-.57.077c-.461 0-.8-.154-1.015-.462Zm3.123 4.216c.575-.564.862-1.436.862-2.616V9.915c-.923-.256-1.78-.384-2.57-.384-1.128 0-2.02.292-2.677.877-.656.584-.984 1.472-.984 2.661 0 1.057.241 1.882.723 2.477.492.595 1.21.893 2.154.893.256 0 .492-.026.708-.078.225-.05.471-.128.738-.23v.292c0 .205-.026.395-.077.57a1.14 1.14 0 0 1-.261.476 1.184 1.184 0 0 1-.508.308c-.216.082-.487.123-.816.123-.492 0-.902-.051-1.23-.154a11.197 11.197 0 0 1-.939-.307l-.354 1.6c.38.122.775.23 1.185.322.42.093.856.139 1.308.139 1.261 0 2.174-.282 2.738-.846Z" clip-rule="evenodd"/>
</svg>
