<svg xmlns="http://www.w3.org/2000/svg" width="24" height="24" fill="currentColor" viewBox="0 0 24 24">
  <path fill-rule="evenodd" d="M8.605 17.588c.345-.17.576-.47.695-.9.209.417.494.715.855.894a.95.95 0 0 0 .428.108c.145 0 .27-.013.376-.038a1.01 1.01 0 0 0 .256-.077c.123-.068.204-.138.242-.21a2.25 2.25 0 0 1-.485-.81 3.387 3.387 0 0 1-.166-1.11c0-.422.024-.74.07-.958.052-.217.113-.383.186-.497.072-.115.144-.209.216-.281.073-.077.132-.132.18-.166.05-.034.076-.06.076-.077-.277-.161-.456-.323-.536-.485a2.728 2.728 0 0 1-.255-1.2C10.742 9.928 9.893 9 8.197 9c-.404 0-.762.074-1.072.223a3.7 3.7 0 0 0-.728.44 1.537 1.537 0 0 0-.593 1.258c0 .114.03.29.09.53.059.233.089.386.089.458 0 .196-.111.405-.332.626.05.064.136.095.255.095.12 0 .236-.03.351-.089a.916.916 0 0 0 .28-.217 1.87 1.87 0 0 0 .186-.255c.115-.187.161-.291.14-.313.226.175.47.262.734.262.268 0 .46-.136.574-.408-.225-.056-.404-.215-.536-.479-.127-.268-.191-.495-.191-.683 0-.187.053-.342.16-.465a.483.483 0 0 1 .376-.185c.144 0 .257.017.338.05.08.03.147.086.198.166a1.221 1.221 0 0 1 .191.62c.021.263.032.55.032.86 0 .307-.051.541-.153.703a1.022 1.022 0 0 1-.409.363c-.17.081-.359.151-.567.21-.205.06-.417.126-.638.199a3.523 3.523 0 0 0-.62.268c-.437.234-.718.638-.842 1.212a1.19 1.19 0 0 1-.287.53c-.149.17-.223.265-.223.287 0 .02.038.076.115.166.238.289.38.561.427.816.047.251.128.477.243.677.115.195.24.348.376.459.14.11.3.2.479.268.289.11.566.166.83.166.263 0 .478-.02.644-.058a1.99 1.99 0 0 0 .491-.172Zm-.657-.785c-.404 0-.606-.478-.606-1.435v-.14c0-.558.097-.962.293-1.213.145-.187.338-.372.58-.555a4.73 4.73 0 0 0 .53-.447c-.004 0-.006.326-.006.977v1.103c0 .609-.023.968-.07 1.079-.043.11-.079.202-.109.274a.379.379 0 0 1-.095.16 1.236 1.236 0 0 1-.134.102c-.085.064-.213.095-.383.095Zm7.382.44c.49 0 .936-.223 1.34-.67a70.843 70.843 0 0 0 .019 1.526c0 .374-.085.65-.255.83a.797.797 0 0 1-.262.178.846.846 0 0 1-.638-.013c-.242-.11-.363-.277-.363-.498 0-.208.068-.366.204-.472a.415.415 0 0 1 .197-.09c.06-.003.09-.01.09-.018 0-.06-.104-.128-.313-.204a.937.937 0 0 0-.332-.058c-.119 0-.263.038-.433.115-.115.047-.173.085-.173.115 0-.051-.053-.143-.16-.275a1.352 1.352 0 0 0-.203-.21.941.941 0 0 0-.313-.172 1.212 1.212 0 0 0-.408-.07c-.137 0-.239.025-.307.076.15.14.266.3.351.479.085.178.166.433.243.765.136.464.406.817.81 1.06.408.242.864.363 1.365.363.507 0 .943-.115 1.308-.345.162-.102.305-.238.428-.408.128-.17.234-.342.319-.517.085-.17.157-.378.217-.625a7 7 0 0 0 .147-.683c.034-.208.06-.457.076-.746.021-.29.034-.545.039-.766a45.9 45.9 0 0 0 .006-.81c0-.323.104-.664.313-1.021.08-.136.153-.262.216-.377.069-.119.103-.191.103-.216 0-.03-.022-.06-.064-.09a2.057 2.057 0 0 1-.16-.147 1.54 1.54 0 0 1-.191-.261 1.81 1.81 0 0 1-.153-.485c-.043-.217-.064-.545-.064-.983 0-.438.062-.814.185-1.129.128-.32.357-.623.689-.912-.021-.107-.13-.194-.325-.262a1.387 1.387 0 0 0-.453-.07.972.972 0 0 0-.409.076c-.276.124-.506.338-.689.645a3.097 3.097 0 0 0-.931-.62 2.56 2.56 0 0 0-1.047-.242c-.736 0-1.353.194-1.85.581a1.988 1.988 0 0 0-.606.81 2.91 2.91 0 0 0-.217 1.149c0 .425-.03.772-.09 1.04-.055.264-.119.442-.191.536a2.22 2.22 0 0 1-.191.223c-.056.055-.083.094-.083.115 0 .021.027.055.083.102.06.047.123.106.191.179.072.072.136.21.191.415.06.2.09.444.09.733 0 .48.125.904.376 1.27.255.366.577.638.964.817.391.178.83.268 1.314.268Zm.664-3.79c0 .018.019.039.057.064.332.243.498.65.498 1.22 0 .39-.102.695-.306.912a.973.973 0 0 1-.734.325.986.986 0 0 1-.734-.325c-.204-.222-.306-.526-.306-.913s.066-.678.197-.874a1.3 1.3 0 0 1 .166-.21.86.86 0 0 1 .14-.128c.039-.03.058-.053.058-.07 0-.017-.03-.051-.09-.103a1.73 1.73 0 0 1-.19-.197c-.069-.081-.132-.243-.192-.485a3.995 3.995 0 0 1-.09-.919c0-1.06.341-1.589 1.022-1.589.706 0 1.059.53 1.059 1.589 0 .587-.066 1.006-.198 1.257-.055.102-.11.185-.166.249a.978.978 0 0 1-.134.134c-.038.025-.057.047-.057.064Z" clip-rule="evenodd"/>
</svg>
