<svg xmlns="http://www.w3.org/2000/svg" width="24" height="24" fill="currentColor" viewBox="0 0 24 24">
  <path fill-rule="evenodd" d="M9.3 17.208c.456 0 .796-.222 1.02-.665.422.443.842.665 1.26.665.422 0 .633-.116.633-.349v-.025c-.397-.333-.743-.853-1.038-1.558a5.577 5.577 0 0 1-.437-2.134c0-.38.055-.633.164-.76.042-.046.08-.09.114-.133a.222.222 0 0 0 .05-.126c0-.038-.027-.076-.082-.114a7.501 7.501 0 0 1-.208-.184 2.615 2.615 0 0 1-.292-.342c-.101-.143-.21-.37-.329-.677a7.503 7.503 0 0 1-.285-1 5.802 5.802 0 0 1-.114-1.21c0-.456.061-.861.184-1.216a.54.54 0 0 0-.165-.285C9.7 7.032 9.59 7 9.445 7a1.33 1.33 0 0 0-.436.076c-.359.135-.6.352-.722.652a2.437 2.437 0 0 0-.196-.26C7.804 7.157 7.538 7 7.293 7c-.477 0-.716.118-.716.355v.025c.224.35.336.699.336 1.045s-.082.81-.247 1.393l-.735 2.596a2.033 2.033 0 0 1-.975-.386.196.196 0 0 0-.114.076.43.43 0 0 0-.038.101.773.773 0 0 0-.019.203c0 .088.072.202.216.342.075.08.151.133.227.158-.295.152-.443.327-.443.526 0 .088.017.164.05.228.039.063.079.095.121.095a1.84 1.84 0 0 1 .69-.33l-.329 1.16c-.169.603-.344 1.06-.525 1.373a3.22 3.22 0 0 1-.792.874v.044c0 .22.148.33.443.33.182 0 .397-.068.646-.203.25-.135.46-.29.633-.462.047.152.133.295.26.43a.69.69 0 0 0 .228.165c.101.046.217.07.348.07a.49.49 0 0 0 .342-.127.522.522 0 0 0 .089-.12.346.346 0 0 0 .063-.127c-.308-.346-.462-.791-.462-1.336 0-.359.042-.724.127-1.095.025-.127.07-.313.133-.558l.133-.525 1.45-.007h.044a36.28 36.28 0 0 0 .38 1.362c.059.198.089.51.089.937 0 .494-.133.901-.4 1.222.039.089.125.184.26.285.089.06.254.089.494.089Zm-1.57-6.991c.02.118.202.87.544 2.254H7.185c.186-.785.367-1.537.545-2.254Zm7.807 6.547c.486 0 .93-.221 1.33-.665 0 .157.002.404.007.741.008.338.012.596.012.773 0 .371-.084.646-.253.823a.791.791 0 0 1-.26.177.84.84 0 0 1-.633-.013c-.24-.11-.36-.274-.36-.493 0-.207.067-.363.202-.469a.413.413 0 0 1 .196-.089c.06-.004.089-.01.089-.018 0-.06-.104-.127-.31-.203a.93.93 0 0 0-.33-.057 1.09 1.09 0 0 0-.43.114c-.114.046-.171.084-.171.114 0-.05-.053-.141-.159-.272a1.342 1.342 0 0 0-.202-.21.933.933 0 0 0-.31-.17 1.201 1.201 0 0 0-.406-.07c-.135 0-.236.025-.304.076.148.14.264.298.349.475.084.177.164.43.24.76.135.46.403.81.804 1.051.406.24.857.36 1.355.36.503 0 .935-.113 1.299-.341.16-.101.301-.236.424-.405a2.933 2.933 0 0 0 .532-1.133c.063-.241.112-.467.145-.678.034-.207.06-.454.076-.741.021-.287.034-.54.038-.76.005-.22.007-.488.007-.804 0-.321.103-.659.31-1.014.08-.135.152-.26.215-.373.068-.118.102-.19.102-.215 0-.03-.021-.06-.064-.09a2.025 2.025 0 0 1-.158-.145 1.533 1.533 0 0 1-.19-.26c-.06-.11-.11-.27-.152-.48-.042-.216-.063-.54-.063-.976 0-.435.06-.808.183-1.12.127-.317.355-.619.684-.906-.02-.106-.128-.192-.323-.26a1.377 1.377 0 0 0-.45-.07.965.965 0 0 0-.405.077c-.274.122-.502.335-.683.64a3.074 3.074 0 0 0-.925-.615 2.54 2.54 0 0 0-1.038-.24c-.73 0-1.343.191-1.837.576a1.973 1.973 0 0 0-.601.804 2.887 2.887 0 0 0-.216 1.14c0 .422-.03.766-.088 1.032-.055.261-.119.439-.19.532a2.334 2.334 0 0 1-.19.221c-.055.055-.083.093-.083.114 0 .021.028.055.083.102.059.046.122.105.19.177.071.072.135.209.19.412.059.198.088.44.088.728 0 .477.125.897.374 1.26.253.363.572.633.956.81.388.178.823.266 1.304.266Zm.66-3.761c0 .017.018.038.056.063.33.24.494.644.494 1.21 0 .388-.101.69-.304.905a.965.965 0 0 1-.728.323.978.978 0 0 1-.728-.323c-.203-.22-.304-.521-.304-.905s.065-.674.196-.868c.055-.084.11-.154.165-.209a.851.851 0 0 1 .139-.126c.038-.03.057-.053.057-.07 0-.017-.03-.05-.089-.101a1.703 1.703 0 0 1-.19-.197c-.067-.08-.13-.24-.19-.48a3.963 3.963 0 0 1-.088-.913c0-1.051.337-1.577 1.013-1.577.7 0 1.051.526 1.051 1.577 0 .583-.065.999-.196 1.248-.055.101-.11.183-.165.247a.97.97 0 0 1-.133.133c-.038.025-.057.046-.057.063Z" clip-rule="evenodd"/>
</svg>
