<svg xmlns="http://www.w3.org/2000/svg" width="24" height="24" fill="currentColor" viewBox="0 0 24 24">
  <path fill-rule="evenodd" d="M16.049 6.8c-1.95 0-2.924.981-2.924 2.943 0 .84-.081 1.423-.243 1.747a1.486 1.486 0 0 1-.205.32 2.466 2.466 0 0 1-.173.18c-.047.038-.07.076-.07.115 0 .038.023.079.07.121.414.354.62 1.105.62 2.253 0 1.058.216 1.834.647 2.329.43.495 1.045.742 1.843.742.802 0 1.433-.32 1.894-.96.12.213.273.38.46.5.188.119.378.178.57.178.196 0 .375-.044.538-.134.162-.09.243-.207.243-.352-.307-.26-.52-.529-.64-.806-.115-.282-.173-.657-.173-1.126 0-.47.034-.804.102-1.005a1.3 1.3 0 0 1 .416-.563.331.331 0 0 0-.166-.211c-.081-.047-.205-.07-.371-.07s-.348.04-.544.121a1.664 1.664 0 0 0-.48.288l-.109-.102a1.325 1.325 0 0 0-.358-.205 1.105 1.105 0 0 0-.736-.07c-.18.055-.269.138-.269.249.235.192.39.395.468.608.076.213.115.501.115.864 0 .362-.017.644-.052.844a1.59 1.59 0 0 1-.115.378.703.703 0 0 1-.217.25.569.569 0 0 1-.359.108.533.533 0 0 1-.332-.09.999.999 0 0 1-.122-.089.433.433 0 0 1-.09-.147c-.025-.064-.06-.147-.102-.25-.038-.106-.058-.435-.058-.985v-.352c0-.802.082-1.376.244-1.721.068-.145.136-.26.204-.346.073-.085.133-.147.18-.185.046-.043.07-.081.07-.116 0-.038-.026-.083-.077-.134a4.613 4.613 0 0 1-.185-.218 2.336 2.336 0 0 1-.212-.37c-.072-.154-.134-.382-.185-.685a6.847 6.847 0 0 1-.077-1.107c0-.435.05-.779.147-1.03a.672.672 0 0 1 .282-.346.852.852 0 0 1 .454-.122c.175 0 .312.026.41.077.221.124.332.448.332.973 0 .328-.172.798-.518 1.408-.115.2-.173.317-.173.351 0 .03.007.062.02.097a.3.3 0 0 0 .038.083.646.646 0 0 0 .077.076.756.756 0 0 0 .314.122c.076.013.174.02.294.02s.25-.048.39-.142c.14-.093.232-.168.275-.223.047-.056.077-.094.09-.116.012-.021.023-.025.032-.012a.392.392 0 0 1 .044.057l.077.077c.03.03.064.062.103.096a2.38 2.38 0 0 0 .288.205c.06.03.119.057.179.083.064.021.134.04.21.057.078.013.159.02.244.02a.425.425 0 0 0 .23-.064c.073-.043.116-.09.128-.141-.332-.41-.499-1.11-.499-2.099 0-.7-.2-1.233-.601-1.6-.474-.43-1.11-.646-1.907-.646ZM9.356 17.268c.46 0 .804-.224 1.03-.672.427.448.851.672 1.273.672.427 0 .64-.117.64-.352v-.025c-.4-.337-.75-.862-1.05-1.574a5.636 5.636 0 0 1-.44-2.157c0-.384.055-.64.166-.768.042-.047.08-.091.115-.134a.225.225 0 0 0 .051-.128c0-.039-.028-.077-.083-.115a7.346 7.346 0 0 1-.211-.186c-.09-.085-.188-.2-.295-.345-.102-.145-.213-.374-.332-.685a7.598 7.598 0 0 1-.288-1.011 5.863 5.863 0 0 1-.115-1.222c0-.46.061-.87.185-1.229a.545.545 0 0 0-.166-.288c-.077-.064-.188-.096-.333-.096-.145 0-.292.026-.442.077-.362.137-.605.356-.729.66a2.462 2.462 0 0 0-.198-.263c-.29-.316-.56-.474-.807-.474-.482 0-.723.12-.723.359v.025c.226.354.34.706.34 1.056 0 .35-.084.819-.25 1.408l-.742 2.623c-.393-.055-.721-.185-.986-.39a.199.199 0 0 0-.115.077.433.433 0 0 0-.038.102.782.782 0 0 0-.02.205c0 .09.073.205.218.345a.58.58 0 0 0 .23.16c-.298.154-.448.331-.448.531 0 .09.018.167.052.23.038.065.079.097.121.097a1.85 1.85 0 0 1 .698-.333L5.33 14.62c-.17.61-.348 1.073-.531 1.389-.184.311-.45.605-.8.883v.044c0 .222.15.333.448.333.183 0 .4-.068.653-.205.251-.136.465-.292.64-.467.046.154.134.299.262.435.055.064.132.12.23.167.103.047.22.07.352.07a.495.495 0 0 0 .346-.128.53.53 0 0 0 .09-.121.35.35 0 0 0 .063-.128c-.311-.35-.467-.8-.467-1.35 0-.363.043-.732.128-1.107a11.3 11.3 0 0 1 .134-.564c.064-.247.11-.424.135-.53l1.465-.007h.045a37.055 37.055 0 0 0 .384 1.376c.06.2.09.516.09.947 0 .499-.135.91-.404 1.235.039.09.126.185.263.288.09.06.256.09.499.09Zm-1.587-7.064c.021.12.205.879.55 2.278h-1.1c.187-.794.37-1.553.55-2.278Z" clip-rule="evenodd"/>
</svg>
