<svg xmlns="http://www.w3.org/2000/svg" width="24" height="24" fill="currentColor" viewBox="0 0 24 24">
  <path fill-rule="evenodd" d="M10.607 13.08c-.341 1.237-.512 2.155-.512 2.753v.28c0 .146.036.312.107.498.2.533.598.799 1.197.799.39 0 .74-.125 1.05-.373.134-.106.24-.226.32-.359.084-.137.127-.255.127-.352a.493.493 0 0 0-.047-.233c-.031-.062-.071-.094-.12-.094a.256.256 0 0 0-.133.04l-.173.08c-.062.031-.133.06-.213.087a1.2 1.2 0 0 1-.312.033c-.124 0-.222-.069-.293-.206-.066-.142-.08-.413-.04-.812.045-.399.218-1.12.519-2.161.554-.027.949-.12 1.184-.28a.653.653 0 0 0 .246-.272.644.644 0 0 0 .067-.453c-.036-.097-.302-.146-.798-.146h-.147a3.15 3.15 0 0 0-.193.006c.155-.46.588-1.658 1.297-3.591.111-.31.191-.548.24-.712.048-.169.006-.326-.127-.472-.08-.093-.232-.14-.459-.14-.745 0-1.5.264-2.268.792-.35.243-.685.525-1.004.844-.315.32-.665.719-1.051 1.198-.381.479-.936 1.319-1.663 2.52l-.286.067a2.332 2.332 0 0 0-.818.412c-.16.12-.24.246-.24.38 0 .133.133.175.4.126l.419-.06-.752 1.344c-.28.505-.559.933-.838 1.283-.32.39-.734.681-1.244.872-.04.022-.055.069-.047.14.01.066.04.137.094.212.146.187.36.28.645.28.372 0 .725-.133 1.057-.4.435-.34.925-1.048 1.47-2.121l.413-.818c.142-.284.299-.583.472-.898a70.687 70.687 0 0 1 2.454-.094Zm.353-1.138c-.674.018-1.406.078-2.195.18l.519-.885c.182-.302.368-.594.558-.878.9-1.352 1.812-2.148 2.734-2.388l-.386.818c-.137.302-.277.621-.419.958l-.412 1.064c-.142.373-.275.75-.4 1.131Zm4.703 5.468c.82 0 1.567-.506 2.241-1.517-.43 1.667-1.064 2.89-1.902 3.665a3.583 3.583 0 0 1-.645.472 1.936 1.936 0 0 1-.652.253c-.204.036-.306.13-.306.286 0 .089.086.189.26.3.08.048.17.086.272.113.102.026.268.024.499-.007.23-.027.503-.133.818-.32 1.193-.696 2.177-2.234 2.953-4.616l.985-3.14c.164-.51.368-1.028.612-1.556.053-.11-.03-.23-.246-.359a1.321 1.321 0 0 0-.28-.126.86.86 0 0 0-.273-.047c-.084 0-.184.058-.299.173a1.35 1.35 0 0 0-.146.173 2.52 2.52 0 0 1-.147.173c-.266-.58-.71-.871-1.33-.871-.62 0-1.246.233-1.876.698a5.169 5.169 0 0 0-.851.778 5.442 5.442 0 0 0-1.15 2.109 4.36 4.36 0 0 0-.167 1.184c0 .395.044.727.133.998.257.789.756 1.184 1.497 1.184Zm-.027-2.84a6.73 6.73 0 0 1 .273-.985c.12-.32.26-.62.419-.905.16-.288.33-.538.512-.751a2.45 2.45 0 0 1 .585-.512 1.14 1.14 0 0 1 .612-.193c.204 0 .433.122.685.365.129.13.204.255.226.38a9.158 9.158 0 0 1-.784 2.108c-.169.333-.346.643-.533.931a6.493 6.493 0 0 1-.558.752 3.437 3.437 0 0 1-.532.506.877.877 0 0 1-.512.18c-.174 0-.304-.094-.393-.28a.944.944 0 0 1-.08-.293 4.394 4.394 0 0 1-.02-.485c0-.213.034-.486.1-.819Z" clip-rule="evenodd"/>
</svg>
