<svg width="24" height="24" fill="currentColor" viewBox="0 0 24 24">
  <path fill-rule="evenodd" d="M9.086 7h.52l3.718 9.953h-2.187l-.69-2.098H6.868l-.688 2.098H4L7.698 7h1.388Zm-1.69 6.248h2.522L8.656 9.41l-1.26 3.838Zm13.195-3.691h-1.784l-.079.7a2.192 2.192 0 0 0-.667-.564c-.332-.182-.745-.273-1.237-.273-.465 0-.882.091-1.25.273-.37.183-.684.44-.944.773a3.723 3.723 0 0 0-.595 1.196 5.39 5.39 0 0 0-.205 1.538v.144c0 .538.068 1.034.205 1.49.141.456.342.852.602 1.19.26.337.572.599.936.786.37.186.782.28 1.238.28.455 0 .847-.091 1.175-.274.238-.13.447-.297.63-.502v.407c0 .35-.067.65-.199.895-.132.25-.321.44-.567.568-.247.132-.547.198-.903.198a2.2 2.2 0 0 1-.998-.226c-.3-.146-.565-.35-.793-.615l-.868 1.162c.21.264.47.483.78.656.314.174.642.301.984.383.346.082.674.123.984.123.706 0 1.326-.123 1.86-.369a2.79 2.79 0 0 0 1.244-1.073c.3-.47.45-1.041.45-1.716v-7.15Zm-1.976 2.107v3.191a1.384 1.384 0 0 1-.424.457c-.227.15-.521.226-.881.226a1.34 1.34 0 0 1-.677-.164 1.456 1.456 0 0 1-.472-.472 2.361 2.361 0 0 1-.273-.704 3.905 3.905 0 0 1-.09-.854V13.2c0-.314.033-.606.097-.875a2.39 2.39 0 0 1 .28-.71c.127-.201.285-.358.471-.472a1.26 1.26 0 0 1 .677-.178c.27 0 .502.045.697.137.197.09.356.218.479.382.042.056.08.116.116.18Z" clip-rule="evenodd"/>
</svg>
