<svg xmlns="http://www.w3.org/2000/svg" width="24" height="24" fill="currentColor" viewBox="0 0 24 24">
  <path fill-rule="evenodd" d="M9.608 13.08c-.342 1.237-.513 2.155-.513 2.754v.279c0 .146.036.313.107.499.2.532.599.798 1.197.798.39 0 .74-.124 1.051-.372a1.35 1.35 0 0 0 .32-.36c.084-.137.126-.255.126-.352a.493.493 0 0 0-.047-.233c-.03-.062-.07-.093-.12-.093a.257.257 0 0 0-.132.04l-.173.08a1.63 1.63 0 0 1-.213.086 1.2 1.2 0 0 1-.313.033c-.124 0-.222-.068-.293-.206-.066-.142-.08-.412-.04-.811.045-.4.218-1.12.52-2.162.554-.027.948-.12 1.183-.28a.653.653 0 0 0 .246-.272.644.644 0 0 0 .067-.453c-.035-.097-.302-.146-.798-.146h-.147c-.057 0-.121.002-.192.007.155-.462.587-1.659 1.297-3.592.11-.31.19-.548.24-.712.048-.169.006-.326-.127-.472-.08-.093-.233-.14-.46-.14-.744 0-1.5.264-2.268.792-.35.243-.685.525-1.004.844-.315.32-.665.719-1.05 1.198-.382.479-.937 1.319-1.664 2.52l-.286.067a2.332 2.332 0 0 0-.818.413c-.16.12-.24.246-.24.379s.133.175.4.126l.419-.06-.752 1.344c-.28.505-.559.933-.838 1.284-.32.39-.734.68-1.244.871-.04.022-.055.069-.047.14.01.066.04.137.094.213.146.186.361.279.645.279.372 0 .725-.133 1.057-.4.435-.34.925-1.048 1.47-2.121l.413-.818c.142-.284.3-.583.472-.898a70.69 70.69 0 0 1 2.455-.093Zm.352-1.138c-.674.018-1.406.078-2.195.18l.519-.885c.182-.301.368-.594.559-.878.9-1.352 1.811-2.148 2.733-2.388l-.385.818c-.138.302-.277.621-.42.958l-.412 1.065c-.142.372-.275.749-.399 1.13Zm3.26 2.415-.007.2c0 .89.224 1.59.672 2.095.221.244.488.432.798.565.31.129.65.193 1.018.193.372 0 .707-.055 1.004-.166.838-.31 1.481-.876 1.929-1.697.253-.456.355-.829.306-1.117.466.009.856-.129 1.17-.412a1.389 1.389 0 0 0 .473-1.045c0-.208-.13-.268-.392-.18-.16.058-.33.107-.513.147a2.22 2.22 0 0 1-.24.04c-.075.004-.179.007-.312.007s-.39-.043-.771-.127a2.386 2.386 0 0 0-.46-.066c-.305 0-.587.142-.844.425a.965.965 0 0 0-.2.326c-.035.102-.017.173.054.213.075.036.168.067.279.093.115.027.222.065.32.113.239.125.354.348.345.672-.009.43-.186.845-.532 1.244a2.11 2.11 0 0 1-.585.452c-.222.12-.457.18-.706.18-.248 0-.456-.055-.625-.166-.487-.32-.71-.947-.665-1.883.027-.878.266-1.842.718-2.893.448-1.025.994-1.876 1.637-2.555.692-.731 1.361-1.097 2.009-1.097.408 0 .612.215.612.645a1.5 1.5 0 0 1-.147.625c-.266.555-.763 1.093-1.49 1.617-.07.053-.106.148-.106.286 0 .137.084.293.253.466.075.08.166.146.272.199.107.053.222.08.346.08.129 0 .268-.04.42-.12.305-.16.596-.421.87-.785.475-.63.712-1.268.712-1.916 0-.54-.155-.997-.465-1.37-.355-.43-.843-.645-1.464-.645-.816 0-1.654.328-2.514.984-.887.675-1.61 1.546-2.168 2.615a8.601 8.601 0 0 0-1.011 3.758Z" clip-rule="evenodd"/>
</svg>
