<svg width="24" height="24" fill="currentColor" viewBox="0 0 24 24">
  <path fill-rule="evenodd" d="M21.013 15.839v-3.944h-3.924v1.462h1.873v1.764a1.65 1.65 0 0 1-.314.232 2.026 2.026 0 0 1-.527.199 3.334 3.334 0 0 1-.806.082c-.388 0-.727-.069-1.02-.205a1.936 1.936 0 0 1-.737-.609 2.95 2.95 0 0 1-.445-1.005c-.1-.4-.15-.86-.15-1.38v-.636c0-.524.048-.984.143-1.381.096-.396.235-.73.417-.998.183-.269.406-.472.67-.608a1.94 1.94 0 0 1 .916-.212c.415 0 .752.07 1.012.212.264.14.467.337.609.587.14.251.236.545.287.882h1.989a4.09 4.09 0 0 0-.547-1.695 2.973 2.973 0 0 0-1.271-1.162C18.631 7.14 17.92 7 17.055 7c-.625 0-1.192.107-1.703.321a3.66 3.66 0 0 0-1.319.937c-.369.41-.654.914-.854 1.51-.196.598-.294 1.279-.294 2.044v.623c0 .765.102 1.447.307 2.043.206.593.497 1.094.875 1.504.383.41.839.723 1.368.937.528.21 1.114.314 1.756.314.725 0 1.343-.077 1.853-.232.51-.155.927-.34 1.25-.554.325-.218.564-.421.719-.608ZM8.086 7.144h.52l3.718 9.953h-2.187l-.69-2.099H5.868l-.688 2.099H3l3.698-9.953h1.388Zm-1.69 6.248 1.26-3.839 1.262 3.839H6.396Z" clip-rule="evenodd"/>
</svg>
