<svg width="24" height="24" viewBox="0 0 24 24" fill="none" xmlns="http://www.w3.org/2000/svg">
<path fill-rule="evenodd" clip-rule="evenodd" d="M9.50001 4L14 1V3C18.4183 3 22 6.58172 22 11H20C20 7.68629 17.3137 5 14 5V7L9.50001 4ZM7.52005 10.4495L15.2475 12.52L13.1769 20.2474L5.4495 18.1769L7.52005 10.4495ZM5.5882 9.93185C5.87409 8.86492 6.97076 8.23175 8.03769 8.51764L15.7651 10.5882C16.832 10.8741 17.4652 11.9707 17.1793 13.0377L15.1088 20.7651C14.8229 21.832 13.7262 22.4652 12.6593 22.1793L4.93186 20.1087C3.86493 19.8229 3.23177 18.7262 3.51765 17.6593L5.5882 9.93185Z" fill="currentColor"/>
</svg>
