<svg width="24" height="24" viewBox="0 0 24 24" fill="currentColor">
<path fill-rule="evenodd" clip-rule="evenodd" d="M23 13L23 11L21 11L21 5C21 3.89543 20.1046 3 19 3L5 3C3.89543 3 3 3.89543 3 5L3 11L1 11L1 13L3 13L5 13L7 13L9 13L11 13L13 13L15 13L17 13L19 13L21 13L23 13ZM19 15L19 17L21 17L21 15L19 15ZM19 19L21 19C21 20.1046 20.1046 21 19 21L19 19ZM15 19L17 19L17 21L15 21L15 19ZM11 19L13 19L13 21L11 21L11 19ZM7 19L9 19L9 21L7 21L7 19ZM5 19L5 21C3.89543 21 3 20.1046 3 19L5 19ZM5 15L5 17L3 17L3 15L5 15ZM19 11L19 5L5 5L5 11L19 11Z"/>
</svg>
