<svg width="24" height="24" viewBox="0 0 24 24" fill="currentColor">
<path d="M5.01562 17.0156H18.9844L14.4844 11.0156L11.0156 15.5156L8.48438 12.5156L5.01562 17.0156ZM21 3C21.5 3 21.9609 3.21094 22.3828 3.63281C22.8047 4.05469 23.0156 4.51562 23.0156 5.01562V18.9844C23.0156 19.4844 22.8047 19.9453 22.3828 20.3672C21.9609 20.7891 21.5 21 21 21H3C2.46875 21 2 20.7969 1.59375 20.3906C1.1875 19.9844 0.984375 19.5156 0.984375 18.9844V5.01562C0.984375 4.51562 1.19531 4.05469 1.61719 3.63281C2.03906 3.21094 2.5 3 3 3H21Z"/>
</svg>
