<svg width="24" height="24" viewBox="0 0 24 24" fill="currentColor">
<path fill-rule="evenodd" clip-rule="evenodd" d="M11 1H13V4H11V1ZM16 12C16 14.2091 14.2091 16 12 16C9.79086 16 8 14.2091 8 12C8 9.79086 9.79086 8 12 8C14.2091 8 16 9.79086 16 12ZM13 23V20H11V23H13ZM23 13H20V11H23V13ZM4 13V11H1V13H4ZM19.0711 3.51477L20.4853 4.92898L18.364 7.0503L16.9498 5.63609L19.0711 3.51477ZM7.05026 18.3639L5.63605 16.9497L3.51473 19.071L4.92894 20.4852L7.05026 18.3639ZM20.4853 19.071L19.0711 20.4853L16.9498 18.3639L18.364 16.9497L20.4853 19.071ZM5.63605 7.0502L7.05026 5.63599L4.92894 3.51467L3.51473 4.92888L5.63605 7.0502Z"/>
</svg>
