<svg width="24" height="24" viewBox="0 0 24 24" fill="none" xmlns="http://www.w3.org/2000/svg">
<path fill-rule="evenodd" clip-rule="evenodd" d="M12 3.82843L3.82843 12L12 20.1716L20.1716 12L12 3.82843ZM2.41422 10.5858C1.63317 11.3668 1.63317 12.6332 2.41422 13.4142L10.5858 21.5858C11.3668 22.3668 12.6332 22.3668 13.4142 21.5858L21.5858 13.4142C22.3668 12.6332 22.3668 11.3668 21.5858 10.5858L13.4142 2.41422C12.6332 1.63317 11.3668 1.63317 10.5858 2.41422L2.41422 10.5858Z" fill="currentColor"/>
<path d="M13 8H11V11H8V13H11V16H13V13H16V11H13V8Z" fill="currentColor"/>
</svg>
