<svg width="24" height="24" fill="currentColor" viewBox="0 0 24 24">
  <path d="M17.016 6.984c1.375 0 2.547.493 3.515 1.477.969.984 1.453 2.164 1.453 3.539s-.484 2.555-1.453 3.54c-.968.983-2.14 1.476-3.515 1.476h-4.032V15h4.032c.843 0 1.57-.21 2.18-.82.609-.61.804-1.336.804-2.18 0-.844-.195-1.57-.805-2.18C18.585 9.21 17.844 9 17 9h-4.016V6.984h4.032Zm-9 6v-1.968h7.968v1.968H8.016ZM4 12c0 .844.195 1.57.805 2.18.61.61 1.351.82 2.195.82h4l.016 2.016H6.984c-1.375 0-2.546-.493-3.515-1.477C2.5 14.555 2.016 13.375 2.016 12S2.5 9.445 3.469 8.46c.969-.983 2.14-1.476 3.515-1.476h4.032L11 9H6.984c-.843 0-1.57.21-2.18.82C4.196 10.43 4 11.156 4 12Z"/>
</svg>
