<svg width="24" height="24" viewBox="0 0 24 24" fill="none" xmlns="http://www.w3.org/2000/svg">
<path d="M17.0156 6.98438C18.3906 6.98438 19.5625 7.47656 20.5312 8.46094C21.5 9.44531 21.9844 10.625 21.9844 12C21.9844 13.375 21.5 14.5547 20.5312 15.5391C19.5625 16.5234 18.3906 17.0156 17.0156 17.0156H12.9844V15H17.0156C17.8594 15 18.5859 14.7891 19.1953 14.1797C19.8047 13.5703 20 12.8438 20 12C20 11.1562 19.8047 10.4297 19.1953 9.82031C18.5859 9.21094 17.8438 9 17 9H12.9844V6.98438H17.0156ZM8.01562 12.9844V11.0156H15.9844V12.9844H8.01562ZM4 12C4 12.8438 4.19531 13.5703 4.80469 14.1797C5.41406 14.7891 6.15625 15 7 15H11L11.0156 17.0156H6.98438C5.60938 17.0156 4.4375 16.5234 3.46875 15.5391C2.5 14.5547 2.01562 13.375 2.01562 12C2.01562 10.625 2.5 9.44531 3.46875 8.46094C4.4375 7.47656 5.60938 6.98438 6.98438 6.98438H11.0156L11 9H6.98438C6.14062 9 5.41406 9.21094 4.80469 9.82031C4.19531 10.4297 4 11.1562 4 12Z" fill="currentColor"/>
</svg>
