<svg width="24" height="24" fill="currentColor" viewBox="0 0 24 24">
  <path d="M9.368 15.46v-3.41c0-.25-.043-.467-.13-.65a.938.938 0 0 0-.396-.423c-.178-.1-.404-.15-.677-.15-.241 0-.453.04-.636.122a.937.937 0 0 0-.41.349.9.9 0 0 0-.143.506H5.164c0-.306.073-.595.219-.869a2.33 2.33 0 0 1 .622-.738c.273-.218.6-.39.977-.512A4.188 4.188 0 0 1 8.268 9.5c.56 0 1.06.096 1.497.287.442.187.788.47 1.039.848.255.378.383.854.383 1.428v3.227c0 .37.022.686.068.95.05.26.123.486.219.677v.116h-1.84a2.724 2.724 0 0 1-.197-.71 5.575 5.575 0 0 1-.069-.862Zm.253-2.932.014 1.074H8.493c-.282 0-.53.03-.745.088-.214.055-.39.137-.526.247a.997.997 0 0 0-.308.382 1.163 1.163 0 0 0-.102.5c0 .182.04.346.123.491a.94.94 0 0 0 .369.35c.164.081.355.122.574.122.319 0 .597-.064.834-.191a1.64 1.64 0 0 0 .554-.479c.132-.187.202-.364.212-.533l.52.78c-.065.186-.16.384-.288.594a2.69 2.69 0 0 1-.492.588 2.49 2.49 0 0 1-.725.451 2.53 2.53 0 0 1-.984.178c-.479 0-.907-.096-1.285-.287a2.278 2.278 0 0 1-.896-.786A2.02 2.02 0 0 1 5 14.962c0-.392.073-.738.219-1.04.146-.3.362-.553.65-.758.286-.21.642-.367 1.066-.472a5.978 5.978 0 0 1 1.47-.164H9.62Zm7.896-2.891h1.64v7.17c0 .67-.146 1.238-.437 1.703a2.72 2.72 0 0 1-1.21 1.066c-.52.246-1.124.37-1.812.37a4.2 4.2 0 0 1-.964-.124 3.9 3.9 0 0 1-.99-.39 2.454 2.454 0 0 1-.787-.676l.813-1.067a2.5 2.5 0 0 0 .835.65c.31.15.644.226 1.004.226.365 0 .675-.069.93-.206a1.35 1.35 0 0 0 .595-.588c.141-.255.212-.57.212-.943v-5.503l.17-1.688Zm-4.997 3.787v-.144c0-.565.068-1.077.205-1.538.136-.465.332-.863.588-1.196.26-.333.571-.59.936-.773.37-.182.784-.273 1.244-.273.488 0 .898.089 1.23.267.338.177.616.43.835.758.223.329.396.718.52 1.17.127.446.225.938.293 1.476v.39a7.733 7.733 0 0 1-.307 1.442 4.19 4.19 0 0 1-.547 1.148 2.39 2.39 0 0 1-.848.752c-.337.178-.734.267-1.19.267a2.67 2.67 0 0 1-1.23-.28 2.762 2.762 0 0 1-.937-.787 3.723 3.723 0 0 1-.587-1.189 5.168 5.168 0 0 1-.205-1.49Zm1.804-.144v.144c0 .319.032.617.096.895s.162.524.294.739c.132.21.298.373.499.492.2.118.44.177.718.177.373 0 .679-.077.916-.232.241-.16.423-.376.547-.65.127-.277.21-.59.246-.936v-1.073a3.247 3.247 0 0 0-.15-.759 1.874 1.874 0 0 0-.308-.601 1.372 1.372 0 0 0-.506-.397 1.717 1.717 0 0 0-.732-.144c-.273 0-.512.062-.717.185a1.433 1.433 0 0 0-.506.5 2.552 2.552 0 0 0-.301.744 4.154 4.154 0 0 0-.096.916Z"/>
</svg>
