<svg width="24" height="24" viewBox="0 0 24 24" fill="currentColor">
<path fill-rule="evenodd" clip-rule="evenodd" d="M18.9688 6.01562H5V4H18.9688V6.01562ZM7.74219 9.74219C8.91406 8.57031 10.3281 7.98438 11.9844 7.98438C13.6406 7.98438 15.0547 8.57031 16.2266 9.74219C17.3984 10.9141 17.9844 12.3281 17.9844 13.9844V15V16.0156C17.9844 17.6719 17.3984 19.0859 16.2266 20.2578C15.0547 21.4297 13.6406 22.0156 11.9844 22.0156C10.3281 22.0156 8.91406 21.4297 7.74219 20.2578C6.57031 19.0859 5.98438 17.6719 5.98438 16.0156V15V13.9844C5.98438 12.3281 6.57031 10.9141 7.74219 9.74219ZM8.46875 15V16.0156C8.46875 16.9844 8.8125 17.8047 9.5 18.4766C10.1875 19.1484 11.0156 19.4844 11.9844 19.4844C12.9531 19.4844 13.7812 19.1484 14.4688 18.4766C15.1562 17.8047 15.5 16.9844 15.5 16.0156V15V13.9844C15.5 13.0156 15.1562 12.1953 14.4688 11.5234C13.7812 10.8516 12.9531 10.5156 11.9844 10.5156C11.0156 10.5156 10.1875 10.8516 9.5 11.5234C8.8125 12.1953 8.46875 13.0156 8.46875 13.9844V15Z"/>
</svg>
