<svg width="24" height="24" viewBox="0 0 24 24" fill="currentColor">
<path d="M13.414 7.586L11.8523 6.02428C13.1946 5.99108 14.5104 6.41091 15.5864 7.21787C16.6928 8.0476 17.4772 9.23528 17.8061 10.5786C18.1349 11.9218 17.9879 13.3376 17.3899 14.5845C16.792 15.8315 15.7802 16.8326 14.5269 17.4172C13.2736 18.0018 11.8563 18.1338 10.5166 17.7906C9.17697 17.4474 7.99773 16.6503 7.17986 15.5351C6.42627 14.5076 6.02243 13.2686 6.02246 12H4C3.99997 13.6979 4.54044 15.3561 5.549 16.7312C6.64359 18.2237 8.22182 19.2905 10.0148 19.7498C11.8077 20.2091 13.7045 20.0325 15.3818 19.2501C17.0591 18.4677 18.4133 17.1279 19.2136 15.459C20.0138 13.7901 20.2107 11.8954 19.7705 10.0976C19.3304 8.29986 18.2805 6.71034 16.7998 5.59987C15.3666 4.52504 13.6156 3.96338 11.828 4.00185V4L13.414 2.414L12 1L8.00001 5L12 9L13.414 7.586Z"/>
</svg>
