<svg width="24" height="24" viewBox="0 0 24 24" fill="none" xmlns="http://www.w3.org/2000/svg">
<path fill-rule="evenodd" clip-rule="evenodd" d="M5 21C3.89543 21 3 20.1046 3 19L3 15C3 13.8954 3.89543 13 5 13L19 13C20.1046 13 21 13.8954 21 15L21 19C21 20.1046 20.1046 21 19 21L5 21ZM5 9L5 5L7 5L7 3L5 3C3.89543 3 3 3.89543 3 5L3 9C3 10.1046 3.89543 11 5 11L7 11L7 9L5 9ZM19 9L17 9L17 11L19 11C20.1046 11 21 10.1046 21 9L21 5C21 3.89543 20.1046 3 19 3L17 3L17 5L19 5L19 9ZM15 8L13 8L13 10L11 10L11 8L9 8L9 6L11 6L11 4L13 4L13 6L15 6L15 8Z" fill="currentColor"/>
</svg>
