<svg width="24" height="24" viewBox="0 0 24 24" fill="none" xmlns="http://www.w3.org/2000/svg">
<path fill-rule="evenodd" clip-rule="evenodd" d="M16 4H10C9.47473 4 8.95459 4.10345 8.46924 4.30447C7.98401 4.50549 7.54297 4.80014 7.17163 5.17157C6.80017 5.543 6.50549 5.98398 6.30444 6.46927C6.10352 6.95456 6 7.4747 6 8C6 8.3381 6.04297 8.67407 6.12708 9H8.27173C8.22791 8.92419 8.18896 8.8454 8.15527 8.76413C8.05493 8.52188 8.0033 8.26221 8.0033 8C8.0033 7.73779 8.05493 7.47812 8.15527 7.23587C8.25562 6.99362 8.40271 6.7735 8.58813 6.58807C8.77344 6.40265 8.99365 6.25558 9.23584 6.15524C9.47815 6.05487 9.73779 6.00323 10 6.00323V6H16V4ZM15.3285 11H21V13H16.7427H14.5017H3V11H7.35425H15.3285ZM14.8109 15.4572C14.8722 15.3093 14.9189 15.1562 14.9508 15H16.9722C16.9253 15.4193 16.8195 15.8307 16.6575 16.2221C16.4313 16.768 16.0999 17.2641 15.682 17.682C15.2642 18.0999 14.7681 18.4313 14.222 18.6575C13.6761 18.8836 13.0909 19 12.5 19H6V17H12.5C12.8285 17 13.1538 16.9367 13.4573 16.811C13.7607 16.6853 14.0365 16.501 14.2688 16.2687C14.501 16.0365 14.6853 15.7607 14.8109 15.4572Z" fill="currentColor"/>
</svg>
