<svg xmlns="http://www.w3.org/2000/svg" width="24" height="24" fill="currentColor" viewBox="0 0 24 24">
  <path d="M8.826 8.51 5.99 16.954H4L7.719 7H8.99l-.164 1.51Zm2.372 8.443-2.85-8.442L8.177 7h1.278l3.74 9.953h-1.997Zm-.13-3.698v1.483H5.73v-1.483h5.34Zm7.718-3.698h1.64v7.17c0 .67-.145 1.238-.437 1.703a2.72 2.72 0 0 1-1.21 1.066c-.52.246-1.123.37-1.811.37-.296 0-.618-.042-.964-.124a3.896 3.896 0 0 1-.991-.39 2.452 2.452 0 0 1-.786-.676l.813-1.067c.246.287.524.504.834.65.31.15.645.225 1.005.225.364 0 .674-.068.93-.205a1.34 1.34 0 0 0 .594-.588c.142-.255.212-.57.212-.943v-5.503l.171-1.688Zm-4.997 3.787V13.2c0-.565.068-1.078.205-1.538.137-.465.333-.864.588-1.196.26-.333.572-.59.937-.773a2.772 2.772 0 0 1 1.244-.273c.487 0 .897.089 1.23.267.337.177.615.43.834.758.223.328.397.718.52 1.17.127.446.225.938.294 1.476v.39a7.733 7.733 0 0 1-.308 1.442c-.137.437-.319.82-.547 1.148-.228.324-.51.574-.848.752-.337.178-.733.267-1.189.267-.456 0-.866-.094-1.23-.28a2.764 2.764 0 0 1-.937-.787 3.725 3.725 0 0 1-.588-1.189 5.167 5.167 0 0 1-.205-1.49Zm1.805-.144v.144c0 .319.032.617.096.895.063.278.161.524.293.738.133.21.299.374.5.493.2.118.44.178.717.178.374 0 .68-.078.916-.233.242-.16.424-.376.547-.65.128-.277.21-.59.246-.936v-1.073a3.245 3.245 0 0 0-.15-.759 1.874 1.874 0 0 0-.308-.601c-.132-.17-.3-.301-.506-.397a1.717 1.717 0 0 0-.731-.144c-.274 0-.513.062-.718.185a1.433 1.433 0 0 0-.506.5 2.551 2.551 0 0 0-.3.744 4.155 4.155 0 0 0-.096.916Z"/>
</svg>
