<svg width="24" height="24" viewBox="0 0 24 24" fill="currentColor">
<path d="M5 19.9844H18.9688V22H5V19.9844ZM11.9844 18.0156C10.3281 18.0156 8.91406 17.4297 7.74219 16.2578C6.57031 15.0859 5.98438 13.6719 5.98438 12.0156V4H8.46875V12.0156C8.46875 12.9844 8.8125 13.8047 9.5 14.4766C10.1875 15.1484 11.0156 15.4844 11.9844 15.4844C12.9531 15.4844 13.7812 15.1484 14.4688 14.4766C15.1562 13.8047 15.5 12.9844 15.5 12.0156V4H17.9844V12.0156C17.9844 13.6719 17.3984 15.0859 16.2266 16.2578C15.0547 17.4297 13.6406 18.0156 11.9844 18.0156Z"/>
</svg>
