<svg xmlns="http://www.w3.org/2000/svg" width="24" height="24" fill="currentColor" viewBox="0 0 24 24">
  <path d="m8.166 5-1.56-1.556 1.417-1.415L10.998 5H8.166ZM13 5l2.975-2.97 1.417 1.414L15.832 5H13Zm4.023 1.984c1.378 0 2.551.493 3.522 1.477C21.515 9.445 22 10.625 22 12s-.485 2.555-1.455 3.54c-.97.983-2.144 1.476-3.522 1.476h-4.037V15h4.037c.846 0 1.573-.21 2.184-.82.61-.61.805-1.336.805-2.18 0-.844-.195-1.57-.805-2.18-.61-.61-1.354-.82-2.2-.82h-4.021V6.984h4.037ZM3.987 12c0 .844.196 1.57.806 2.18.61.61 1.354.82 2.2.82h4.005l.016 2.016H6.977c-1.378 0-2.551-.493-3.522-1.477C2.485 14.555 2 13.375 2 12s.485-2.555 1.455-3.54c.97-.983 2.144-1.476 3.522-1.476h4.037L10.998 9H6.977c-.846 0-1.573.21-2.184.82-.61.61-.806 1.336-.806 2.18Zm2.62 8.556L8.166 19h2.832l-2.975 2.97-1.416-1.414Zm9.368 1.414L13 19h2.833l1.559 1.556-1.417 1.415Z"/>
</svg>
