<svg xmlns="http://www.w3.org/2000/svg" width="24" height="24" fill="currentColor" viewBox="0 0 24 24">
  <path d="M7.826 8.654 4.99 17.097H3l3.719-9.953H7.99l-.164 1.51Zm2.372 8.443-2.85-8.443-.171-1.51h1.278l3.74 9.953h-1.997Zm-.13-3.699v1.484H4.73v-1.484h5.34Zm10.794-1.448v3.875c-.145.187-.376.39-.69.609-.31.218-.716.407-1.217.567-.501.155-1.116.232-1.846.232a4.634 4.634 0 0 1-1.736-.314 3.744 3.744 0 0 1-1.353-.937 4.223 4.223 0 0 1-.875-1.503c-.205-.593-.308-1.27-.308-2.03v-.657c0-.761.096-1.438.287-2.03a4.29 4.29 0 0 1 .834-1.504c.365-.41.8-.723 1.306-.937A4.376 4.376 0 0 1 16.973 7c.843 0 1.536.139 2.078.417.547.278.966.66 1.258 1.148.291.484.474 1.04.546 1.668h-1.832a2.524 2.524 0 0 0-.3-.909 1.55 1.55 0 0 0-.643-.615c-.273-.15-.629-.226-1.066-.226-.37 0-.695.073-.978.22-.282.145-.52.357-.71.635a3.109 3.109 0 0 0-.438 1.032c-.096.41-.144.88-.144 1.408v.67c0 .533.055 1.007.164 1.422.11.41.267.757.472 1.04.21.277.467.49.772.635.31.141.661.212 1.053.212.356 0 .65-.03.882-.089.237-.064.426-.139.567-.226.142-.086.25-.17.328-.252v-1.867h-1.975V11.95h3.855Z"/>
</svg>
