<svg width="24" height="24" fill="currentColor" viewBox="0 0 24 24">
  <path fill-rule="evenodd" d="M6.025 11.18c.073-1.193.298-2.456.665-3.463.227-.624.486-1.09.745-1.38C7.685 6.054 7.87 6 8 6c.395 0 .892.27 1.48 1.447.57 1.14 1.048 2.788 1.55 4.795.498 1.993 1.02 3.844 1.7 5.205C13.393 18.77 14.396 20 16 20c1.664 0 2.655-1.303 3.199-2.934.5-1.501.752-3.598.794-6.234a3.001 3.001 0 1 0-2-.005c-.043 2.541-.287 4.391-.692 5.607C16.845 17.804 16.336 18 16 18c-.395 0-.892-.27-1.48-1.447-.57-1.14-1.048-2.788-1.55-4.796-.498-1.992-1.02-3.843-1.7-5.204C10.607 5.23 9.604 4 8 4c-.87 0-1.56.445-2.06 1.008-.49.552-.857 1.274-1.13 2.025-.454 1.25-.712 2.748-.787 4.13A3.001 3.001 0 0 0 5 17a3 3 0 0 0 1.025-5.82ZM19 9a1 1 0 1 0 0-2 1 1 0 0 0 0 2ZM5 15a1 1 0 1 0 0-2 1 1 0 0 0 0 2Z" clip-rule="evenodd"/>
</svg>
