<svg width="24" height="24" viewBox="0 0 24 24" fill="none" xmlns="http://www.w3.org/2000/svg">
<path fill-rule="evenodd" clip-rule="evenodd" d="M13.2118 20.7975C12.8224 21.1823 12.4184 21.5816 12 22C11.5816 21.5816 11.1775 21.1823 10.7882 20.7975C7.92056 17.9635 5.84576 15.913 4.63692 12.7586C3.78783 10.543 3.70389 8.13824 4.89972 6.0125C6.27459 3.56832 9.04726 2 12 2C14.9527 2 17.7254 3.56832 19.1003 6.01246C20.2961 8.13824 20.2122 10.543 19.3631 12.7586C18.1542 15.913 16.0794 17.9635 13.2118 20.7975ZM12 12C13.6569 12 15 10.6569 15 9C15 7.34315 13.6569 6 12 6C10.3431 6 9 7.34315 9 9C9 10.6569 10.3431 12 12 12Z" fill="currentColor"/>
</svg>
