<svg width="24" height="24" viewBox="0 0 24 24" fill="none" xmlns="http://www.w3.org/2000/svg">
<path fill-rule="evenodd" clip-rule="evenodd" d="M9.01709 1.37367C6.34395 2.05747 4.03015 3.63889 2.41581 5.77783C2.14966 5.24228 2 4.63862 2 4C2 1.79086 3.79086 0 6 0C7.20401 0 8.28378 0.531959 9.01709 1.37367ZM22 4C22 4.63862 21.8503 5.24228 21.5842 5.77783C19.9698 3.63889 17.656 2.05747 14.9829 1.37367C15.7162 0.531959 16.796 0 18 0C20.2091 0 22 1.79086 22 4ZM12 21C16.4183 21 20 17.4183 20 13C20 8.58172 16.4183 5 12 5C7.58172 5 4 8.58172 4 13C4 17.4183 7.58172 21 12 21ZM12 23C17.5228 23 22 18.5228 22 13C22 7.47715 17.5228 3 12 3C6.47715 3 2 7.47715 2 13C2 18.5228 6.47715 23 12 23ZM13 7H11V13L11 13.0001L14.8609 15.2291L15.8609 13.4971L13 11.8454V7Z" fill="currentColor"/>
</svg>
