<svg width="24" height="24" viewBox="0 0 24 24" fill="none" xmlns="http://www.w3.org/2000/svg">
<path fill-rule="evenodd" clip-rule="evenodd" d="M17.423 2.76611L16.0088 4.18033L17.8286 6.00015H16V6C13.4765 6 11.1532 7.37374 9.93707 9.58484L9.71522 9.98819C7.95572 7.50472 5.08745 6 2 6V8C4.71927 8 7.22291 9.48033 8.53338 11.863L8.60873 12L8.53338 12.137C7.22291 14.5197 4.71927 16 2 16V18C5.08745 18 7.95572 16.4953 9.71522 14.0118L9.93707 14.4152C11.1532 16.6263 13.4765 18 16 18H17.8284L16.0074 19.8209L17.4217 21.2351L20.2427 18.4141L20.2427 18.4141L21.6569 16.9999L17.423 12.766L16.0088 14.1802L17.8286 16H16C14.2059 16 12.5541 15.0233 11.6895 13.4513L10.8913 12L11.6895 10.5487C12.5541 8.97667 14.2059 8 16 8V8.00015H17.8284L16.0074 9.82107L17.4217 11.2353L20.2427 8.41424L20.2427 8.41427L21.6569 7.00006L17.423 2.76611Z" fill="currentColor"/>
</svg>
