<svg width="24" height="24" viewBox="0 0 24 24" fill="none" xmlns="http://www.w3.org/2000/svg">
<path fill-rule="evenodd" clip-rule="evenodd" d="M5 2C3.34315 2 2 3.34315 2 5V19C2 20.6569 3.34315 22 5 22H19C20.6569 22 22 20.6569 22 19V5C22 3.34315 20.6569 2 19 2H5ZM15.1357 7.82745C15.3264 8.00747 15.5641 8.23195 15.9335 8.73765C18.3288 12.2399 16.1364 14.7225 14.7366 15.2854C14.7974 15.1094 14.8611 14.9356 14.9243 14.7628C15.5705 12.9987 16.1752 11.3478 13.1761 8.76957L12.2532 15.6739C12.143 16.2531 11.8652 17.0698 11.0014 17.5762C9.17368 18.6108 7.31805 17.5626 7.07169 16.4491C6.60701 14.3491 8.44347 12.6806 11.3554 14.305L12.6473 5L13.8084 5.18698C14.5486 7.27301 14.7415 7.45516 15.1357 7.82745Z" fill="currentColor"/>
</svg>
