<svg width="24" height="24" viewBox="0 0 24 24" fill="none" xmlns="http://www.w3.org/2000/svg">
<path fill-rule="evenodd" clip-rule="evenodd" d="M17.9999 16V11C17.9999 7.93 15.86 5.36 13 4.68V4.00001C13 3.44772 12.5523 3.00001 12 3.00001C11.4477 3.00001 11 3.44777 11 4.00005V4.68C8.13 5.36 5.99994 7.92 5.99994 11V16L4.2999 17.29C3.6699 17.92 4.1099 19 4.9999 19H19C19.89 19 20.34 17.92 19.71 17.29L17.9999 16ZM8 10.5C8 8.29086 9.79086 6.5 12 6.5C14.2091 6.5 16 8.29086 16 10.5V17H8V10.5ZM14 20C14 21.1 13.1 22 12 22C10.89 22 10 21.1 10 20H12H14Z" fill="currentColor"/>
</svg>
