<svg width="24" height="24" viewBox="0 0 24 24" fill="none" xmlns="http://www.w3.org/2000/svg">
<path d="M11.9999 22C13.0999 22 13.9999 21.1 13.9999 20H9.99994C9.99994 21.1 10.8899 22 11.9999 22ZM17.9999 16V11C17.9999 7.93 15.86 5.36 13 4.68C13 4.55312 13 4.28529 13 4.00001C13 3.44772 12.5523 3 12 3C11.4477 3.00001 11 3.44777 11 4.00005C11 4.26649 11 4.52348 11 4.68C8.13 5.36 5.99994 7.92 5.99994 11V16L4.2999 17.29C3.6699 17.92 4.1099 19 4.9999 19H19C19.89 19 20.34 17.92 19.71 17.29L17.9999 16Z" fill="currentColor"/>
</svg>
