<svg width="24" height="24" viewBox="0 0 24 24" fill="currentColor">
<path fill-rule="evenodd" clip-rule="evenodd" d="M10.6099 5.19576L8.41418 3L6.99997 4.41421L8.76942 6.18366C8.19017 6.6745 7.72414 7.29485 7.41604 8H4V10H7V12H4V14H7V16H4V18H7.41604C8.1876 19.7659 9.94968 21 12 21C14.0503 21 15.8124 19.7659 16.584 18H20V16H17V14H20V12H17V10H20V8H16.584C16.271 7.2838 15.7952 6.65508 15.2033 6.16069L16.9497 4.41421L15.5355 3L13.3509 5.18463C12.9212 5.06433 12.4681 5 12 5C11.5176 5 11.0512 5.0683 10.6099 5.19576Z"/>
</svg>
