<svg width="24" height="24" viewBox="0 0 24 24" fill="currentColor">
<path fill-rule="evenodd" clip-rule="evenodd" d="M3 1C1.89543 1 1 1.89543 1 3V9C1 10.1046 1.89543 11 3 11H9C10.1046 11 11 10.1046 11 9V3C11 1.89543 10.1046 1 9 1H3ZM3 5H9V7H3V5ZM13 3C13 1.89543 13.8954 1 15 1H21C22.1046 1 23 1.89543 23 3V21C23 22.1046 22.1046 23 21 23H15C13.8954 23 13 22.1046 13 21V3ZM21 9H15V11H21V9ZM21 13H15V15H21V13ZM1 15C1 13.8954 1.89543 13 3 13H9C10.1046 13 11 13.8954 11 15V21C11 22.1046 10.1046 23 9 23H3C1.89543 23 1 22.1046 1 21V15ZM7 17V15H5V17H3V19H5V21H7V19H9V17H7Z"/>
</svg>
