<svg width="24" height="24" viewBox="0 0 24 24" fill="none" xmlns="http://www.w3.org/2000/svg">
<path d="M3 5H4.39722L6.83922 15.1961C6.93271 15.6635 7.34312 16 7.8198 16H18.2905C18.7155 16 19.094 15.7314 19.2344 15.3304L22.0344 7.33035C22.2619 6.68018 21.7794 6 21.0905 6H6.78603L6.1956 3.74655C6.08036 3.30672 5.68292 3 5.22825 3H3C2.44772 3 2 3.44772 2 4C2 4.55228 2.44772 5 3 5Z" fill="currentColor"/>
<path d="M19 19.5C19 20.3284 18.3284 21 17.5 21C16.6716 21 16 20.3284 16 19.5C16 18.6716 16.6716 18 17.5 18C18.3284 18 19 18.6716 19 19.5Z" fill="currentColor"/>
<path d="M10 19.5C10 20.3284 9.32843 21 8.5 21C7.67157 21 7 20.3284 7 19.5C7 18.6716 7.67157 18 8.5 18C9.32843 18 10 18.6716 10 19.5Z" fill="currentColor"/>
</svg>
