<svg width="24" height="24" viewBox="0 0 24 24" fill="none" xmlns="http://www.w3.org/2000/svg">
<path fill-rule="evenodd" clip-rule="evenodd" d="M4.41544 3C5.34379 3 6.15009 3.63882 6.36243 4.54255L6.70486 6L21.0905 6C21.7794 6 22.2619 6.68018 22.0344 7.33035L19 16L7 15.9998L4.41556 5H2V3H4.41544ZM8.58447 14L7.17476 8H19.6332L17.5723 14H8.58447Z" fill="currentColor"/>
<path d="M8.5 21C9.32843 21 10 20.3284 10 19.5C10 18.6716 9.32843 18 8.5 18C7.67157 18 7 18.6716 7 19.5C7 20.3284 7.67157 21 8.5 21Z" fill="currentColor"/>
<path d="M17.5 21C18.3284 21 19 20.3284 19 19.5C19 18.6716 18.3284 18 17.5 18C16.6716 18 16 18.6716 16 19.5C16 20.3284 16.6716 21 17.5 21Z" fill="currentColor"/>
</svg>
