<svg width="24" height="24" viewBox="0 0 24 24" fill="none" xmlns="http://www.w3.org/2000/svg">
<path fill-rule="evenodd" clip-rule="evenodd" d="M5 2C4.44772 2 4 2.44772 4 3V7C4 7.55228 4.44772 8 5 8H6V20H7H8H14V21C14 21.5523 14.4477 22 15 22H19C19.5523 22 20 21.5523 20 21V17C20 16.4477 19.5523 16 19 16H15C14.4477 16 14 16.4477 14 17V18H8V12H14V13C14 13.5523 14.4477 14 15 14H19C19.5523 14 20 13.5523 20 13V9C20 8.44772 19.5523 8 19 8H15C14.4477 8 14 8.44772 14 9V10L8 10V8H9C9.55228 8 10 7.55228 10 7V3C10 2.44772 9.55228 2 9 2H5Z" fill="currentColor"/>
</svg>
