<svg width="24" height="24" viewBox="0 0 24 24" fill="none" xmlns="http://www.w3.org/2000/svg">
<path fill-rule="evenodd" clip-rule="evenodd" d="M3.41421 3.41425L2 4.82846L4.00003 6.82849V7C4.00003 7.55228 4.44774 8 5.00003 8H5.17154L6.00003 8.82849V20H14V21C14 21.5523 14.4477 22 15 22H19C19.0541 22 19.1072 21.9957 19.159 21.9874L20.0654 22.8938L21.4796 21.4796L3.41421 3.41425ZM8.00003 12H9.17154L14.0126 16.8411C14.0043 16.8928 14 16.9459 14 17V18H8.00003V12Z" fill="currentColor"/>
<path d="M12.8285 10L16.8285 14H19C19.5523 14 20 13.5523 20 13V9C20 8.44772 19.5523 8 19 8H15C14.4477 8 14 8.44772 14 9V10H12.8285Z" fill="currentColor"/>
<path d="M9.98746 7.15897L4.84106 2.01257C4.89283 2.0043 4.94593 2 5.00003 2H9.00003C9.55231 2 10 2.44772 10 3V7C10 7.0541 9.99573 7.1072 9.98746 7.15897Z" fill="currentColor"/>
</svg>
