<svg width="24" height="24" viewBox="0 0 24 24" fill="none" xmlns="http://www.w3.org/2000/svg">
<path fill-rule="evenodd" clip-rule="evenodd" d="M18.2832 15.9847C18.353 15.9947 18.4253 16 18.5 16C19.3284 16 20 15.3284 20 14.5C20 13.7435 19.4382 13.115 18.7097 13.0143L17.1033 12.7923L16.9885 11.1747C16.823 8.84228 14.8757 7 12.5 7C10.6312 7 9.02386 8.1397 8.34408 9.76979L7.83128 10.9995L6.49896 11C5.11874 11.0006 4 12.1196 4 13.5C4 14.8807 5.11929 16 6.5 16C6.59544 16 6.68891 15.9947 6.78025 15.9846L18.2832 15.9847ZM7 18V17.9725C6.83583 17.9907 6.669 18 6.5 18C6.33099 18 6.16416 17.9907 6 17.9725C3.75002 17.7238 2 15.8163 2 13.5C2 11.0153 4.01372 9.00099 6.49816 9C7.47772 6.65105 9.79605 5 12.5 5C15.9329 5 18.7442 7.66119 18.9835 11.0331C20.6877 11.2686 22 12.731 22 14.5C22 16.2632 20.6961 17.7219 19 17.9646C18.8367 17.9879 18.6698 18 18.5 18C18.3302 18 18.1633 17.9879 18 17.9646V18H7Z" fill="currentColor"/>
</svg>
