<svg width="24" height="24" viewBox="0 0 24 24" fill="none" xmlns="http://www.w3.org/2000/svg">
<path fill-rule="evenodd" clip-rule="evenodd" d="M2 20V18H4L4 20H6V22H4C2.89543 22 2 21.1046 2 20ZM4 2H6V4L4 4V6H2V4C2 2.89543 2.89543 2 4 2ZM4 14H2V10H4V14ZM10 4V2H14V4H10ZM18 4V2H20C21.1046 2 22 2.89543 22 4V6H20V4H18ZM20 10H22V14H20V10ZM20 18H22V20C22 21.1046 21.1046 22 20 22H18V20H20V18ZM14 20V22H10V20H14ZM7 6C6.44772 6 6 6.44772 6 7V10C6 10.5523 6.44772 11 7 11H10C10.5523 11 11 10.5523 11 10V7C11 6.44772 10.5523 6 10 6H7ZM6 14C6 13.4477 6.44772 13 7 13H10C10.5523 13 11 13.4477 11 14V17C11 17.5523 10.5523 18 10 18H7C6.44772 18 6 17.5523 6 17V14ZM14 6C13.4477 6 13 6.44772 13 7V10C13 10.5523 13.4477 11 14 11H17C17.5523 11 18 10.5523 18 10V7C18 6.44772 17.5523 6 17 6H14ZM15 13H16V15H18V16H16V18H15V16H13V15H15V13Z" fill="currentColor"/>
</svg>
