<svg width="24" height="24" viewBox="0 0 24 24" fill="none" xmlns="http://www.w3.org/2000/svg">
<path fill-rule="evenodd" clip-rule="evenodd" d="M10 19H7V22H3V6.40085C3 5.55984 3.52613 4.80868 4.31651 4.52127L14 1V3L19.5494 4.58555C20.408 4.83087 21 5.61564 21 6.5086V22H10V19ZM5 15H12V17H5V15ZM12 7H5V9H12V7ZM14 5L19 6.5V20H14V5ZM12 11H5V13H12V11Z" fill="currentColor"/>
<path d="M15 16H18V18H15V16Z" fill="currentColor"/>
<path d="M15 12H18V14H15V12Z" fill="currentColor"/>
<path d="M15 8H18V10H15V8Z" fill="currentColor"/>
</svg>
