<svg width="24" height="24" viewBox="0 0 24 24" fill="none" xmlns="http://www.w3.org/2000/svg">
<path d="M5 12.9688C6.9375 11.0625 9.27344 10.1094 12.0078 10.1094C14.7422 10.1094 17.0625 11.0625 18.9688 12.9688L17 14.9844C16.4375 14.4219 15.6641 13.9375 14.6797 13.5312C13.6953 13.125 12.7969 12.9219 11.9844 12.9219C11.1719 12.9219 10.2734 13.125 9.28906 13.5312C8.30469 13.9375 7.53125 14.4219 6.96875 14.9844L5 12.9688ZM8.98438 17C9.82812 16.1562 10.8281 15.7344 11.9844 15.7344C13.1406 15.7344 14.1406 16.1562 14.9844 17L11.9844 20L8.98438 17ZM0.96875 8.98438C4.03125 5.95312 7.71094 4.4375 12.0078 4.4375C16.3047 4.4375 19.9688 5.95312 23 8.98438L20.9844 11C18.4844 8.53125 15.4844 7.29688 11.9844 7.29688C8.48438 7.29688 5.48438 8.53125 2.98438 11L0.96875 8.98438Z" fill="currentColor"/>
</svg>
