<svg width="24" height="24" viewBox="0 0 24 24" fill="none" xmlns="http://www.w3.org/2000/svg">
<path d="M9 17.0156C9.84375 16.1719 10.8438 15.75 12 15.75C13.1562 15.75 14.1562 16.1719 15 17.0156L12 20.0156L9 17.0156ZM2.01562 3.04688L3.28125 1.78125L20.25 18.75L18.9844 20.0156L11.9062 12.9375C11.125 12.9375 10.25 13.1406 9.28125 13.5469C8.3125 13.9531 7.54688 14.4375 6.98438 15L5.01562 13.0312V12.9844C6.23438 11.7656 7.70312 10.9219 9.42188 10.4531L7.17188 8.25C5.64062 8.875 4.25 9.79688 3 11.0156L0.984375 9C2.20312 7.78125 3.5625 6.8125 5.0625 6.09375L2.01562 3.04688ZM18.9844 12.9844L18.0469 13.9688L14.4844 10.4531C16.2656 10.9219 17.7656 11.7656 18.9844 12.9844ZM22.9688 9L21 11.0156C18.375 8.32812 15.1562 7.09375 11.3438 7.3125L8.85938 4.78125C11.3906 4.25 13.8984 4.34375 16.3828 5.0625C18.8672 5.78125 21.0625 7.09375 22.9688 9Z" fill="currentColor"/>
</svg>
