<svg width="24" height="24" viewBox="0 0 24 24" fill="none" xmlns="http://www.w3.org/2000/svg">
    <path d="M19 1.99915H5C4.46957 1.99915 3.96086 2.20986 3.58579 2.58493C3.21071 2.96 3 3.46871 3 3.99915V17.9991C3 18.5296 3.21071 19.0383 3.58579 19.4134C3.96086 19.7884 4.46957 19.9991 5 19.9991H10L12 21.9991L14 19.9991H19C19.5304 19.9991 20.0391 19.7884 20.4142 19.4134C20.7893 19.0383 21 18.5296 21 17.9991V3.99915C21 3.46871 20.7893 2.96 20.4142 2.58493C20.0391 2.20986 19.5304 1.99915 19 1.99915ZM12 4.99915C12.5933 4.99915 13.1734 5.17509 13.6667 5.50474C14.1601 5.83438 14.5446 6.30292 14.7716 6.8511C14.9987 7.39927 15.0581 8.00247 14.9424 8.58442C14.8266 9.16636 14.5409 9.70091 14.1213 10.1205C13.7018 10.54 13.1672 10.8257 12.5853 10.9415C12.0033 11.0573 11.4001 10.9978 10.8519 10.7708C10.3038 10.5437 9.83524 10.1592 9.50559 9.66586C9.17595 9.17251 9 8.59249 9 7.99915C9 7.2035 9.31607 6.44043 9.87868 5.87783C10.4413 5.31522 11.2044 4.99915 12 4.99915ZM17 16.9991H7V15.4671C7 14.1041 9.239 12.9991 12 12.9991C14.761 12.9991 17 14.1041 17 15.4671V16.9991Z" fill="currentColor"/>
</svg>
