<svg width="24" height="24" viewBox="0 0 24 24" fill="currentColor">
<path fill-rule="evenodd" clip-rule="evenodd" d="M19 17.9991V3.99915H5V17.9991H19ZM12 21.9991L10 19.9991H5C4.46957 19.9991 3.96086 19.7884 3.58579 19.4134C3.21071 19.0383 3 18.5296 3 17.9991V3.99915C3 3.46871 3.21071 2.96 3.58579 2.58493C3.96086 2.20986 4.46957 1.99915 5 1.99915H19C19.5304 1.99915 20.0391 2.20986 20.4142 2.58493C20.7893 2.96 21 3.46871 21 3.99915V17.9991C21 18.5296 20.7893 19.0383 20.4142 19.4134C20.0391 19.7884 19.5304 19.9991 19 19.9991H14L12 21.9991ZM13.6667 6.50559C13.1734 6.17595 12.5933 6 12 6C11.2043 6 10.4413 6.31607 9.87868 6.87868C9.31607 7.44129 9 8.20435 9 9C9 9.59334 9.17595 10.1734 9.50559 10.6667C9.83524 11.1601 10.3038 11.5446 10.8519 11.7716C11.4001 11.9987 12.0033 12.0581 12.5853 11.9424C13.1672 11.8266 13.7018 11.5409 14.1213 11.1213C14.5409 10.7018 14.8266 10.1672 14.9424 9.58527C15.0581 9.00333 14.9987 8.40013 14.7716 7.85195C14.5446 7.30377 14.1601 6.83524 13.6667 6.50559ZM17 15.4671V16H7V15.4671C7 14.1041 9.239 12.9991 12 12.9991C14.761 12.9991 17 14.1041 17 15.4671Z"/>
</svg>
