<svg width="24" height="24" viewBox="0 0 24 24" fill="none" xmlns="http://www.w3.org/2000/svg">
<path d="M18.9844 20V7.98438H9.01562V20H18.9844ZM18.9844 6.01562C19.5156 6.01562 19.9844 6.21094 20.3906 6.60156C20.7969 6.99219 21 7.45312 21 7.98438V20C21 20.5312 20.7969 21 20.3906 21.4062C19.9844 21.8125 19.5156 22.0156 18.9844 22.0156H9.01562C8.48438 22.0156 8.01562 21.8125 7.60938 21.4062C7.20312 21 7 20.5312 7 20V7.98438C7 7.45312 7.20312 6.99219 7.60938 6.60156C8.01562 6.21094 8.48438 6.01562 9.01562 6.01562H18.9844ZM15.9844 1.98438V4H4.98438V17.0156H3.01562V4C3.01562 3.46875 3.21094 3 3.60156 2.59375C3.99219 2.1875 4.45312 1.98438 4.98438 1.98438H15.9844Z" fill="currentColor"/>
</svg>
