<svg width="24" height="24" viewBox="0 0 24 24" fill="currentColor">
<path fill-rule="evenodd" clip-rule="evenodd" d="M16.9639 15.9322C16.244 17.1691 15.2036 18.1046 13.9951 18.6017C12.7866 19.0988 11.4734 19.1315 10.2478 18.6948C9.02218 18.2582 7.9486 17.3753 7.18424 16.1754C6.94871 15.8056 6.74635 15.4118 6.57895 15H5V13H6.06153C6.02181 12.6789 6.0011 12.3537 6.00004 12.0265C5.99893 11.6814 6.01967 11.3384 6.06153 11H5V9H6.57895C6.73991 8.60409 6.93322 8.22465 7.15732 7.86723C7.91389 6.66057 8.98171 5.7682 10.2044 5.3208C11.4272 4.8734 12.7406 4.89446 13.9523 5.38092C15.164 5.86737 16.2104 6.79365 16.9382 8.02412L15.5 9.18205C14.9842 8.30995 14.2425 7.65344 13.3837 7.30866C12.5249 6.96388 11.594 6.94895 10.7274 7.26605C9.88487 7.57433 9.14612 8.18068 8.61296 9H12V11H7.83471C7.77592 11.3333 7.74635 11.6746 7.74747 12.0188C7.74854 12.3502 7.77806 12.6788 7.83471 13H12V15H8.61296C9.15292 15.8298 9.90335 16.4405 10.7581 16.745C11.6267 17.0545 12.5575 17.0313 13.4141 16.679C14.2706 16.3267 15.008 15.6636 15.5182 14.787L16.9639 15.9322Z"/>
</svg>
