<svg width="24" height="24" viewBox="0 0 24 24" fill="none" xmlns="http://www.w3.org/2000/svg">
<path d="M11.8125 10.9219C12.5 11.1094 13.0703 11.2969 13.5234 11.4844C13.9766 11.6719 14.4531 11.9297 14.9531 12.2578C15.4531 12.5859 15.8359 13 16.1016 13.5C16.3672 14 16.5 14.5938 16.5 15.2812C16.5 16.25 16.1797 17.0391 15.5391 17.6484C14.8984 18.2578 14.0469 18.6562 12.9844 18.8438V21H9.98438V18.8438C8.95312 18.625 8.10156 18.1875 7.42969 17.5312C6.75781 16.875 6.39062 16.0312 6.32812 15H8.53125C8.65625 16.4062 9.64062 17.1094 11.4844 17.1094C12.4531 17.1094 13.1484 16.9297 13.5703 16.5703C13.9922 16.2109 14.2031 15.7969 14.2031 15.3281C14.2031 14.2031 13.2031 13.3906 11.2031 12.8906C8.07812 12.1719 6.51562 10.7969 6.51562 8.76562C6.51562 7.85938 6.84375 7.08594 7.5 6.44531C8.15625 5.80469 8.98438 5.375 9.98438 5.15625V3H12.9844V5.20312C14.0156 5.45312 14.8047 5.92188 15.3516 6.60938C15.8984 7.29688 16.1875 8.09375 16.2188 9H14.0156C13.9531 7.59375 13.1094 6.89062 11.4844 6.89062C10.6719 6.89062 10.0234 7.0625 9.53906 7.40625C9.05469 7.75 8.8125 8.20312 8.8125 8.76562C8.8125 9.67188 9.8125 10.3906 11.8125 10.9219Z" fill="currentColor"/>
</svg>
