<svg width="24" height="24" viewBox="0 0 24 24" fill="currentColor">
<path fill-rule="evenodd" clip-rule="evenodd" d="M18.4999 3V4.9997H15.9139L15.9002 5.0134C18.3463 6.38188 20 8.99778 20 11.9999C20 15.7276 17.4505 18.8598 14 19.7479V17.6585C16.3304 16.8348 18 14.6124 18 11.9999C18 9.5783 16.5654 7.49176 14.4997 6.54382L14.4996 9H12.4999L12.5 3H18.4999ZM5.50013 21L5.50013 19.0003H8.08609L8.0999 18.9865C5.65371 17.618 4 15.0021 4 11.9999C4 8.27224 6.54955 5.14004 10 4.25195V6.34133C7.66962 7.165 6 9.38748 6 11.9999C6 14.4215 7.43461 16.5081 9.50031 17.456L9.50043 15H11.5001L11.5 21H5.50013Z"/>
</svg>
