<svg width="24" height="24" viewBox="0 0 24 24" fill="none" xmlns="http://www.w3.org/2000/svg">
<path fill-rule="evenodd" clip-rule="evenodd" d="M18.9844 6V3.98438H15.5156L14.4844 3H9.51562L8.48438 3.98438H5.01562V6H18.9844ZM8.02359 18.9764C8.01373 18.9666 8.00598 18.9582 8 18.9513V10H16V18.9513C15.994 18.9582 15.9863 18.9666 15.9764 18.9764C15.9666 18.9863 15.9582 18.994 15.9513 19H8.0487C8.04184 18.994 8.03345 18.9863 8.02359 18.9764ZM18 8H6V18.9844C6 19.5156 6.20312 19.9844 6.60938 20.3906C7.01562 20.7969 7.48438 21 8.01562 21H15.9844C16.5156 21 16.9844 20.7969 17.3906 20.3906C17.7969 19.9844 18 19.5156 18 18.9844V8Z" fill="currentColor"/>
</svg>
