<svg width="24" height="24" fill="currentColor" viewBox="0 0 24 24">
  <path d="M8 9.5a1.5 1.5 0 1 1 3 0 1.5 1.5 0 0 1-3 0Zm1.414 6.4L15.9 9.414 14.485 8 8 14.485 9.414 15.9ZM16 14.5a1.5 1.5 0 1 0-3 0 1.5 1.5 0 0 0 3 0Z"/>
  <path fill-rule="evenodd" d="M4.594 8.512c-.003.269-.11.526-.297.718l-2 2.041a1.042 1.042 0 0 0 0 1.458l2 2.041c.188.192.294.45.297.718l.03 2.857a1.042 1.042 0 0 0 1.03 1.031l2.858.03c.269.003.526.11.718.297l2.041 2a1.042 1.042 0 0 0 1.458 0l2.041-2c.192-.188.45-.294.718-.297l2.857-.03a1.042 1.042 0 0 0 1.031-1.03l.03-2.858c.003-.269.11-.526.297-.718l2-2.041a1.042 1.042 0 0 0 0-1.458l-2-2.041a1.041 1.041 0 0 1-.297-.718l-.03-2.857a1.042 1.042 0 0 0-1.03-1.031l-2.858-.03a1.042 1.042 0 0 1-.718-.297l-2.041-2a1.042 1.042 0 0 0-1.458 0l-2.041 2c-.192.188-.45.294-.718.297l-2.857.03a1.042 1.042 0 0 0-1.031 1.03l-.03 2.858Zm8.777-2.786L12 4.383l-1.37 1.343a3.044 3.044 0 0 1-2.097.868l-1.919.02-.02 1.919a3.042 3.042 0 0 1-.868 2.096L4.383 12l1.343 1.37c.549.561.86 1.313.868 2.097l.02 1.919 1.919.02c.784.008 1.536.32 2.096.868L12 19.617l1.37-1.343a3.044 3.044 0 0 1 2.097-.868l1.919-.02.02-1.919c.008-.784.32-1.536.868-2.096L19.617 12l-1.343-1.37a3.041 3.041 0 0 1-.868-2.097l-.02-1.919-1.919-.02a3.041 3.041 0 0 1-2.096-.868Z" clip-rule="evenodd"/>
</svg>
