<svg width="24" height="24" viewBox="0 0 24 24" fill="none" xmlns="http://www.w3.org/2000/svg">
<path fill-rule="evenodd" clip-rule="evenodd" d="M12.6997 2.68534C12.311 2.30455 11.6891 2.30455 11.3003 2.68534L9.34062 4.60475C9.15628 4.7853 8.90929 4.88761 8.65127 4.89029L5.90835 4.91875C5.36419 4.9244 4.92443 5.36416 4.91879 5.90832L4.89032 8.65124C4.88764 8.90926 4.78533 9.15625 4.60478 9.34059L2.68537 11.3003C2.30458 11.689 2.30458 12.3109 2.68537 12.6997L4.60478 14.6594C4.78533 14.8437 4.88764 15.0907 4.89032 15.3487L4.91879 18.0917C4.92443 18.6358 5.36419 19.0756 5.90835 19.0812L8.65127 19.1097C8.90929 19.1124 9.15628 19.2147 9.34062 19.3952L11.3003 21.3146C11.6891 21.6954 12.311 21.6954 12.6997 21.3146L14.6594 19.3952C14.8438 19.2147 15.0907 19.1124 15.3488 19.1097L18.0917 19.0812C18.6358 19.0756 19.0756 18.6358 19.0812 18.0917L19.1097 15.3487C19.1124 15.0907 19.2147 14.8437 19.3953 14.6594L21.3147 12.6997C21.6955 12.3109 21.6955 11.689 21.3147 11.3003L19.3953 9.34059C19.2147 9.15625 19.1124 8.90926 19.1097 8.65124L19.0812 5.90832C19.0756 5.36416 18.6358 4.9244 18.0917 4.91875L15.3488 4.89029C15.0907 4.88761 14.8438 4.7853 14.6594 4.60475L12.6997 2.68534ZM16.8995 8.41427L8.41424 16.8996L7.00003 15.4853L15.4853 7.00006L16.8995 8.41427ZM7.00002 8.49999C7.00002 7.67156 7.67159 6.99999 8.50002 6.99999C9.32844 6.99999 10 7.67156 10 8.49999C10 9.32841 9.32844 9.99999 8.50002 9.99999C7.67159 9.99999 7.00002 9.32841 7.00002 8.49999ZM15.5 14C16.3284 14 17 14.6716 17 15.5C17 16.3284 16.3284 17 15.5 17C14.6716 17 14 16.3284 14 15.5C14 14.6716 14.6716 14 15.5 14Z" fill="currentColor"/>
</svg>
