<svg width="24" height="24" fill="currentColor" viewBox="0 0 24 24">
  <path fill-rule="evenodd" d="M11.271 2.297a1.042 1.042 0 0 1 1.458 0l2.041 2c.192.188.45.294.718.297l2.857.03a1.042 1.042 0 0 1 1.031 1.03l.03 2.858c.003.269.11.526.297.718l2 2.041a1.042 1.042 0 0 1 0 1.458l-2 2.041c-.188.192-.294.45-.297.718l-.03 2.857a1.042 1.042 0 0 1-1.03 1.031l-2.858.03c-.269.003-.526.11-.718.297l-2.041 2a1.042 1.042 0 0 1-1.458 0l-2.041-2a1.041 1.041 0 0 0-.718-.297l-2.857-.03a1.042 1.042 0 0 1-1.031-1.03l-.03-2.858a1.042 1.042 0 0 0-.297-.718l-2-2.041a1.042 1.042 0 0 1 0-1.458l2-2.041c.188-.192.294-.45.297-.718l.03-2.857a1.042 1.042 0 0 1 1.03-1.031l2.858-.03c.269-.003.526-.11.718-.297l2.041-2ZM8 9.5a1.5 1.5 0 1 1 3 0 1.5 1.5 0 0 1-3 0Zm7.9-.086L9.413 15.9 8 14.485 14.485 8 15.9 9.414ZM16 14.5a1.5 1.5 0 0 0-3 0c0 .828.657 1.485 1.485 1.485.829 0 1.515-.657 1.515-1.485Z" clip-rule="evenodd"/>
</svg>
