<svg width="24" height="24" viewBox="0 0 24 24" fill="none" xmlns="http://www.w3.org/2000/svg">
<path fill-rule="evenodd" clip-rule="evenodd" d="M18 18H18.5C20.433 18 22 16.433 22 14.5C22 12.731 20.6877 11.2686 18.9835 11.0331C18.7442 7.66119 15.9329 5 12.5 5C9.79605 5 7.47772 6.65105 6.49816 9C4.01372 9.00099 2 11.0153 2 13.5C2 15.9853 4.01472 18 6.5 18H7H8.17129L12 21.8287L15.8286 18H18ZM12 19.0002L10.9997 18H10.9998L7.75737 14.7576L9.17158 13.3434L10.9999 15.1717V10.0002H12.9999L12.9999 15.1718L14.8285 13.3433L16.2427 14.7575L12 19.0002L12 19.0002L12 19.0002Z" fill="currentColor"/>
</svg>
