<svg width="24" height="24" viewBox="0 0 24 24" fill="currentColor">
<path fill-rule="evenodd" clip-rule="evenodd" d="M4 1C2.89543 1 2 1.89543 2 3V5C2 6.10457 2.89543 7 4 7H20C21.1046 7 22 6.10457 22 5V3C22 1.89543 21.1046 1 20 1H4ZM15 3H4V5H15V3Z"/>
<path fill-rule="evenodd" clip-rule="evenodd" d="M2 11C2 9.89543 2.89543 9 4 9H14C15.1046 9 16 9.89543 16 11V21C16 22.1046 15.1046 23 14 23H4C2.89543 23 2 22.1046 2 21V11ZM4 11H11V12H4V11ZM12 14H4V15H12V14ZM4 17H11V18H4V17ZM8 20H4V21H8V20Z"/>
</svg>
