<svg width="24" height="24" fill="currentColor" viewBox="0 0 24 24">
  <path fill-rule="evenodd" d="M12 22c5.523 0 10-4.477 10-10S17.523 2 12 2 2 6.477 2 12s4.477 10 10 10ZM7.43 8.46a1.441 1.441 0 0 0-.446 1.056c0 .406.149.757.446 1.054a1.44 1.44 0 0 0 1.054.446c.407 0 .758-.149 1.055-.446a1.44 1.44 0 0 0 .445-1.054 1.44 1.44 0 0 0-.445-1.055 1.442 1.442 0 0 0-1.055-.445 1.44 1.44 0 0 0-1.054.445Zm7.03 0a1.442 1.442 0 0 0-.444 1.056c0 .406.148.757.445 1.054.297.297.648.446 1.055.446a1.44 1.44 0 0 0 1.054-.446 1.44 1.44 0 0 0 .446-1.054c0-.407-.149-.758-.446-1.055a1.442 1.442 0 0 0-1.054-.445 1.44 1.44 0 0 0-1.055.445ZM9 16.5v-.984h6v.984H9Z" clip-rule="evenodd"/>
</svg>
