<svg xmlns="http://www.w3.org/2000/svg" width="24" height="24" fill="currentColor" viewBox="0 0 24 24">
  <path fill-rule="evenodd" d="M12 22c5.523 0 10-4.477 10-10S17.523 2 12 2 2 6.477 2 12s4.477 10 10 10ZM7.43 8.46a1.441 1.441 0 0 0-.446 1.056c0 .406.149.757.446 1.054a1.44 1.44 0 0 0 1.054.446c.407 0 .758-.149 1.055-.446a1.44 1.44 0 0 0 .445-1.054 1.44 1.44 0 0 0-.445-1.055 1.442 1.442 0 0 0-1.055-.445 1.44 1.44 0 0 0-1.054.445Zm7.687 6.517c-.922-.641-1.96-.961-3.117-.961-1.156 0-2.195.32-3.117.96a5.408 5.408 0 0 0-1.992 2.508h1.64c.781-1.312 1.938-1.968 3.469-1.968s2.688.656 3.469 1.968h1.64a5.408 5.408 0 0 0-1.992-2.507Zm-1.101-5.461c0-.407.148-.758.445-1.055a1.442 1.442 0 0 1 1.055-.445c.406 0 .757.148 1.054.445.297.297.446.648.446 1.055 0 .406-.149.757-.446 1.054a1.441 1.441 0 0 1-1.054.446c-.407 0-.758-.149-1.055-.446a1.442 1.442 0 0 1-.445-1.054Z" clip-rule="evenodd"/>
</svg>
