<svg width="24" height="24" viewBox="0 0 24 24" fill="currentColor">
<path fill-rule="evenodd" clip-rule="evenodd" d="M17.6484 17.6484C16.0703 19.2266 14.1875 20.0156 12 20.0156C9.8125 20.0156 7.92969 19.2266 6.35156 17.6484C4.77344 16.0703 3.98438 14.1875 3.98438 12C3.98438 9.8125 4.77344 7.92969 6.35156 6.35156C7.92969 4.77344 9.8125 3.98438 12 3.98438C14.1875 3.98438 16.0703 4.77344 17.6484 6.35156C19.2266 7.92969 20.0156 9.8125 20.0156 12C20.0156 14.1875 19.2266 16.0703 17.6484 17.6484ZM19.0547 4.94531C17.1016 2.99219 14.75 2.01562 12 2.01562C9.25 2.01562 6.89844 2.99219 4.94531 4.94531C2.99219 6.89844 2.01562 9.25 2.01562 12C2.01562 14.75 2.99219 17.1016 4.94531 19.0547C6.89844 21.0078 9.25 21.9844 12 21.9844C14.75 21.9844 17.1016 21.0078 19.0547 19.0547C21.0078 17.1016 21.9844 14.75 21.9844 12C21.9844 9.25 21.0078 6.89844 19.0547 4.94531ZM7.42969 8.46094C7.13281 8.75781 6.98438 9.10938 6.98438 9.51562C6.98438 9.92188 7.13281 10.2734 7.42969 10.5703C7.72656 10.8672 8.07812 11.0156 8.48438 11.0156C8.89062 11.0156 9.24219 10.8672 9.53906 10.5703C9.83594 10.2734 9.98438 9.92188 9.98438 9.51562C9.98438 9.10938 9.83594 8.75781 9.53906 8.46094C9.24219 8.16406 8.89062 8.01562 8.48438 8.01562C8.07812 8.01562 7.72656 8.16406 7.42969 8.46094ZM14.4609 8.46094C14.1641 8.75781 14.0156 9.10938 14.0156 9.51562C14.0156 9.92188 14.1641 10.2734 14.4609 10.5703C14.7578 10.8672 15.1094 11.0156 15.5156 11.0156C15.9219 11.0156 16.2734 10.8672 16.5703 10.5703C16.8672 10.2734 17.0156 9.92188 17.0156 9.51562C17.0156 9.10938 16.8672 8.75781 16.5703 8.46094C16.2734 8.16406 15.9219 8.01562 15.5156 8.01562C15.1094 8.01562 14.7578 8.16406 14.4609 8.46094ZM15.6048 13L7.87744 15.0706L8.26567 16.5194L15.9931 14.4489L15.6048 13Z"/>
</svg>
