<svg width="24" height="24" viewBox="0 0 24 24" fill="currentColor">
<path d="M12 14.0156C13.1562 14.0156 14.1953 14.3359 15.1172 14.9766C16.0391 15.6172 16.7031 16.4531 17.1094 17.4844H15.4688C14.6875 16.1719 13.5312 15.5156 12 15.5156C10.4688 15.5156 9.3125 16.1719 8.53125 17.4844H6.89062C7.29688 16.4531 7.96094 15.6172 8.88281 14.9766C9.80469 14.3359 10.8438 14.0156 12 14.0156ZM12 20.0156C14.1875 20.0156 16.0703 19.2266 17.6484 17.6484C19.2266 16.0703 20.0156 14.1875 20.0156 12C20.0156 9.8125 19.2266 7.92969 17.6484 6.35156C16.0703 4.77344 14.1875 3.98438 12 3.98438C9.8125 3.98438 7.92969 4.77344 6.35156 6.35156C4.77344 7.92969 3.98438 9.8125 3.98438 12C3.98438 14.1875 4.77344 16.0703 6.35156 17.6484C7.92969 19.2266 9.8125 20.0156 12 20.0156ZM12 2.01562C14.75 2.01562 17.1016 2.99219 19.0547 4.94531C21.0078 6.89844 21.9844 9.25 21.9844 12C21.9844 14.75 21.0078 17.1016 19.0547 19.0547C17.1016 21.0078 14.75 21.9844 12 21.9844C9.25 21.9844 6.89844 21.0078 4.94531 19.0547C2.99219 17.1016 2.01562 14.75 2.01562 12C2.01562 9.25 2.99219 6.89844 4.94531 4.94531C6.89844 2.99219 9.25 2.01562 12 2.01562ZM6.98438 9.51562C6.98438 9.10938 7.13281 8.75781 7.42969 8.46094C7.72656 8.16406 8.07812 8.01562 8.48438 8.01562C8.89062 8.01562 9.24219 8.16406 9.53906 8.46094C9.83594 8.75781 9.98438 9.10938 9.98438 9.51562C9.98438 9.92188 9.83594 10.2734 9.53906 10.5703C9.24219 10.8672 8.89062 11.0156 8.48438 11.0156C8.07812 11.0156 7.72656 10.8672 7.42969 10.5703C7.13281 10.2734 6.98438 9.92188 6.98438 9.51562ZM14.0156 9.51562C14.0156 9.10938 14.1641 8.75781 14.4609 8.46094C14.7578 8.16406 15.1094 8.01562 15.5156 8.01562C15.9219 8.01562 16.2734 8.16406 16.5703 8.46094C16.8672 8.75781 17.0156 9.10938 17.0156 9.51562C17.0156 9.92188 16.8672 10.2734 16.5703 10.5703C16.2734 10.8672 15.9219 11.0156 15.5156 11.0156C15.1094 11.0156 14.7578 10.8672 14.4609 10.5703C14.1641 10.2734 14.0156 9.92188 14.0156 9.51562Z"/>
</svg>
