<svg xmlns="http://www.w3.org/2000/svg" width="24" height="24" fill="currentColor" viewBox="0 0 24 24">
  <path fill-rule="evenodd" d="M12 22c5.523 0 10-4.477 10-10S17.523 2 12 2 2 6.477 2 12s4.477 10 10 10ZM7.43 8.46a1.441 1.441 0 0 0-.446 1.056c0 .406.149.757.446 1.054a1.44 1.44 0 0 0 1.054.446c.407 0 .758-.149 1.055-.446a1.44 1.44 0 0 0 .445-1.054 1.44 1.44 0 0 0-.445-1.055 1.442 1.442 0 0 0-1.055-.445 1.44 1.44 0 0 0-1.054.445Zm2.601 8.556A4.029 4.029 0 0 1 12 16.5a3.86 3.86 0 0 1 1.969.516c.031-.063.195-.258.492-.586.297-.328.476-.508.539-.54-.938-.593-1.938-.89-3-.89-1.125 0-2.125.297-3 .89.313.344.484.532.516.563l.515.563Zm3.985-7.5c0-.407.148-.758.445-1.055a1.442 1.442 0 0 1 1.055-.445c.406 0 .757.148 1.054.445.297.297.446.648.446 1.055 0 .406-.149.757-.446 1.054a1.441 1.441 0 0 1-1.054.446c-.407 0-.758-.149-1.055-.446a1.442 1.442 0 0 1-.445-1.054Z" clip-rule="evenodd"/>
</svg>
