<svg width="24" height="24" fill="currentColor" viewBox="0 0 24 24">
  <path fill-rule="evenodd" d="M12 22c5.523 0 10-4.477 10-10S17.523 2 12 2 2 6.477 2 12s4.477 10 10 10ZM7.43 8.46a1.441 1.441 0 0 0-.446 1.056c0 .406.149.757.446 1.054a1.44 1.44 0 0 0 1.054.446c.407 0 .758-.149 1.055-.446a1.44 1.44 0 0 0 .445-1.054 1.44 1.44 0 0 0-.445-1.055 1.442 1.442 0 0 0-1.055-.445 1.44 1.44 0 0 0-1.054.445Zm7.617 8.438c.906-.734 1.562-1.695 1.969-2.882H6.984c.407 1.187 1.063 2.148 1.97 2.882C9.858 17.633 10.874 18 12 18c1.125 0 2.14-.367 3.047-1.102Zm-1.031-7.382c0-.407.148-.758.445-1.055a1.442 1.442 0 0 1 1.055-.445c.406 0 .757.148 1.054.445.297.297.446.648.446 1.055 0 .406-.149.757-.446 1.054a1.441 1.441 0 0 1-1.054.446c-.407 0-.758-.149-1.055-.446a1.442 1.442 0 0 1-.445-1.054Z" clip-rule="evenodd"/>
</svg>
