<svg width="24" height="24" fill="currentColor" viewBox="0 0 24 24">
  <path fill-rule="evenodd" d="M12 22c5.523 0 10-4.477 10-10S17.523 2 12 2 2 6.477 2 12s4.477 10 10 10ZM7.414 10.586c.297.297.649.445 1.055.445.406 0 .758-.148 1.054-.445.297-.297.446-.649.446-1.055a1.44 1.44 0 0 0-.446-1.054A1.442 1.442 0 0 0 8.47 8.03c-.406 0-.758.149-1.055.446A1.442 1.442 0 0 0 6.97 9.53c0 .406.148.758.445 1.055Zm1.453 5.953c.922.64 1.961.961 3.117.961 1.157 0 2.196-.32 3.118-.96a5.41 5.41 0 0 0 1.992-2.509h-1.64C14.671 15.344 13.515 16 11.983 16c-1.53 0-2.687-.656-3.468-1.969h-1.64a5.409 5.409 0 0 0 1.992 2.508Zm6.633-5.508c-.406 0-.758-.148-1.055-.445A1.441 1.441 0 0 1 14 9.53c0-.406.148-.758.445-1.054A1.442 1.442 0 0 1 15.5 8.03c.406 0 .758.149 1.055.446.297.296.445.648.445 1.054s-.148.758-.445 1.055a1.442 1.442 0 0 1-1.055.445Z" clip-rule="evenodd"/>
</svg>
