<svg width="24" height="24" viewBox="0 0 24 24" fill="none" xmlns="http://www.w3.org/2000/svg">
<path fill-rule="evenodd" clip-rule="evenodd" d="M5 2C3.34315 2 2 3.34315 2 5V19C2 20.6569 3.34315 22 5 22H19C20.6569 22 22 20.6569 22 19V5C22 3.34315 20.6569 2 19 2H5ZM15.5396 5.0277C15.3232 4.99692 15.1001 4.99179 14.8702 5.01231C14.2346 5.09437 13.6937 5.34056 13.2475 5.75088C12.8012 6.13042 12.4496 6.75615 12.1927 7.62806L11.8073 9.19752C11.8073 9.20777 11.4625 9.2129 10.7728 9.2129C10.0832 9.2129 9.71805 9.22316 9.67748 9.24368C9.62339 9.26419 9.56254 9.38729 9.49493 9.61296C9.42732 9.83863 9.42055 9.97711 9.47464 10.0284L9.55578 10.0746H10.57C11.2461 10.0746 11.5842 10.0797 11.5842 10.0899L10.4483 14.6752C9.96146 16.5524 9.66396 17.5936 9.55578 17.7987C9.42055 18.0347 9.25828 18.1885 9.06897 18.2603H9.04868L8.92698 18.2757C8.75118 18.2757 8.66329 18.2655 8.66329 18.2449C8.67681 18.2347 8.70385 18.2193 8.74442 18.1988C8.93374 18.1065 9.09601 17.968 9.23124 17.7833C9.48817 17.373 9.45436 17.055 9.12982 16.8294C8.77823 16.5832 8.33198 16.5575 7.79107 16.7524C7.66937 16.8037 7.54767 16.8704 7.42596 16.9525C7.31778 17.0448 7.22989 17.1371 7.16227 17.2294C7.05409 17.3935 7 17.5833 7 17.7987C7 18.1167 7.14199 18.3886 7.42596 18.6142C7.58824 18.7168 7.7167 18.7835 7.81136 18.8143C8.14943 18.9476 8.50778 19.0092 8.88641 18.9989C9.10277 18.9886 9.33942 18.9374 9.59635 18.845C9.8668 18.7322 10.117 18.5835 10.3469 18.3988C11.0771 17.8346 11.6586 16.8396 12.0913 15.4138C12.2265 15.0137 12.5443 13.7879 13.0446 11.7363L13.4706 10.0746H14.6673L15.8844 10.0592L15.9452 10.013C15.9858 9.98224 16.0399 9.86941 16.1075 9.67451L16.1886 9.36677L16.1684 9.32061C16.1007 9.2488 15.6545 9.2129 14.8296 9.2129C14.0588 9.2129 13.6734 9.20264 13.6734 9.18213C13.6734 9.17187 13.7613 8.83336 13.9371 8.1666C14.194 7.11004 14.3698 6.43302 14.4645 6.13554C14.4915 6.04322 14.5456 5.96629 14.6268 5.90474C14.6944 5.83294 14.7688 5.78678 14.8499 5.76626C14.9175 5.73549 15.0122 5.7201 15.1339 5.7201L15.3164 5.75088C15.3164 5.77139 15.2894 5.78678 15.2353 5.79704C15.046 5.89961 14.8905 6.0381 14.7688 6.21248C14.5118 6.62279 14.5456 6.94079 14.8702 7.16646C15.2218 7.41265 15.668 7.43829 16.2089 7.24339C16.3306 7.1921 16.4523 7.12543 16.574 7.04337C16.6822 6.95105 16.7701 6.85872 16.8377 6.7664C16.9459 6.60228 17 6.41251 17 6.19709C17 6.01245 16.9459 5.83807 16.8377 5.67394C16.5943 5.30466 16.1616 5.08924 15.5396 5.0277Z" fill="currentColor"/>
</svg>
