<svg width="24" height="24" viewBox="0 0 24 24" fill="none" xmlns="http://www.w3.org/2000/svg">
<path fill-rule="evenodd" clip-rule="evenodd" d="M18.4595 7.03369C19.136 6.01392 19.2419 4.62483 18.4649 3.45098C17.0192 1.26689 13.7134 1.61417 12.7532 4.05101L11.9833 6.00461L11.2135 4.05101C10.2533 1.61417 6.94744 1.26689 5.50177 3.45098C4.72479 4.62483 4.83066 6.01392 5.50722 7.03369H5C3.89543 7.03369 3 7.92912 3 9.03369V14.0337H4V20.0337C4 21.1383 4.89543 22.0337 6 22.0337H18C19.1046 22.0337 20 21.1383 20 20.0337V14.0337H21V9.03369C21 7.92912 20.1046 7.03369 19 7.03369H18.4595ZM10.0229 6.4848L8.19508 6.4754C7.21143 6.47035 6.62659 5.37514 7.16952 4.55489C7.72211 3.72004 8.98573 3.85279 9.35277 4.78424L10.0229 6.4848ZM13.9438 6.4848L14.6139 4.78424C14.9809 3.85279 16.2446 3.72004 16.7971 4.55489C17.3401 5.37514 16.7552 6.47035 15.7716 6.4754L13.9438 6.4848ZM5 9.03369H10.5V12.0337H5V9.03369ZM13.5 12.0337V9.03369H19V12.0337H13.5ZM6 14.0337H10.5V20.0337H6V14.0337ZM18 14.0337V20.0337H13.5V14.0337H18Z" fill="currentColor"/>
</svg>
