<svg width="24" height="24" viewBox="0 0 24 24" fill="none" xmlns="http://www.w3.org/2000/svg">
<path fill-rule="evenodd" clip-rule="evenodd" d="M10.7216 5.22966C9.18337 3.59011 6.71745 3.59011 5.17922 5.22966C3.60727 6.90516 3.60693 9.64625 5.17818 11.3222C5.17853 11.3226 5.17888 11.323 5.17922 11.3233L12 18.5438L18.8208 11.3234C18.8211 11.323 18.8215 11.3226 18.8219 11.3222C20.3931 9.64623 20.3927 6.9052 18.8208 5.22973C17.2825 3.59018 14.8166 3.59018 13.2784 5.22973L12 6.5923L10.7216 5.22966ZM12 3.67702C9.65974 1.38119 5.98984 1.44259 3.72066 3.86123C1.42645 6.30657 1.42645 10.2464 3.72066 12.6917L3.723 12.6942L12 21.4562L20.277 12.6943L20.2793 12.6918C22.5736 10.2465 22.5736 6.30663 20.2793 3.8613C18.0102 1.44268 14.3403 1.38126 12 3.67702Z" fill="currentColor"/>
</svg>
