<svg width="24" height="24" viewBox="0 0 24 24" fill="none" xmlns="http://www.w3.org/2000/svg">
<path d="M12 2C6.47708 2 2 6.47708 2 12C2 17.5229 6.47708 22 12 22C17.5219 22 22 17.5229 22 11.999C22 6.47708 17.5219 2 12 2ZM11.8427 17.8323H11.7896C10.975 17.8083 10.4 17.2073 10.424 16.4042C10.4469 15.6146 11.0354 15.0406 11.8229 15.0406L11.8708 15.0427C12.7083 15.0667 13.2771 15.6615 13.2531 16.4875C13.2292 17.2792 12.651 17.8323 11.8427 17.8323ZM15.2708 11.0292C15.0792 11.3 14.6583 11.6396 14.1271 12.0531L13.5417 12.4562C13.2208 12.7062 13.0271 12.9427 12.9552 13.1729C12.8969 13.3542 12.8698 13.4031 12.8646 13.7729V13.8667H10.6302L10.6365 13.6771C10.6646 12.9021 10.6833 12.4437 11.0052 12.0656C11.5104 11.474 12.625 10.7552 12.6719 10.725C12.8323 10.6052 12.9667 10.4687 13.0667 10.3219C13.301 9.99792 13.4042 9.74375 13.4042 9.49583C13.4042 9.14792 13.3021 8.82604 13.099 8.54167C12.9031 8.26458 12.5312 8.12708 11.9938 8.12708C11.4604 8.12708 11.0948 8.29583 10.8771 8.64375C10.6521 8.99896 10.5385 9.37292 10.5385 9.75521V9.85104H8.23542L8.23958 9.75104C8.29896 8.34167 8.80312 7.32604 9.73437 6.73333C10.3208 6.35729 11.051 6.16667 11.9021 6.16667C13.0146 6.16667 13.9563 6.4375 14.6958 6.97083C15.4469 7.51146 15.8271 8.32187 15.8271 9.37812C15.826 9.96875 15.6396 10.524 15.2708 11.0292Z" fill="currentColor"/>
</svg>
