<svg width="24" height="24" viewBox="0 0 24 24" fill="none" xmlns="http://www.w3.org/2000/svg">
<path fill-rule="evenodd" clip-rule="evenodd" d="M20 12C20 16.4183 16.4183 20 12 20C9.94215 20 8.06577 19.223 6.64824 17.9464L5.3103 19.433C7.08222 21.0288 9.42769 22 12 22C17.5228 22 22 17.5228 22 12C22 6.47715 17.5228 2 12 2C6.47715 2 2 6.47715 2 12H0L3 17L6 12H4C4 7.58172 7.58172 4 12 4C16.4183 4 20 7.58172 20 12ZM11 7H13V11.8454L15.8609 13.4971L14.8609 15.2291L11 13.0001L11 13V7Z" fill="currentColor"/>
</svg>
