<svg width="24" height="24" viewBox="0 0 24 24" fill="currentColor">
<path d="M15.0938 8.01562V6C15.0938 5.15625 14.7891 4.42969 14.1797 3.82031C13.5703 3.21094 12.8438 2.90625 12 2.90625C11.1562 2.90625 10.4297 3.21094 9.82031 3.82031C9.21094 4.42969 8.90625 5.15625 8.90625 6V8.01562H15.0938ZM18 8.01562C18.5312 8.01562 19 8.21094 19.4062 8.60156C19.8125 8.99219 20.0156 9.45312 20.0156 9.98438V20.0156C20.0156 20.5469 19.8125 21.0078 19.4062 21.3984C19 21.7891 18.5312 21.9844 18 21.9844H6C5.46875 21.9844 5 21.7891 4.59375 21.3984C4.1875 21.0078 3.98438 20.5469 3.98438 20.0156V9.98438C3.98438 9.45312 4.1875 8.99219 4.59375 8.60156C5 8.21094 5.46875 8.01562 6 8.01562H6.98438V6C6.98438 4.625 7.47656 3.44531 8.46094 2.46094C9.44531 1.47656 10.625 0.984375 12 0.984375C13.375 0.984375 14.5547 1.47656 15.5391 2.46094C16.5234 3.44531 17.0156 4.625 17.0156 6V8.01562H18Z"/>
</svg>
