<svg width="24" height="24" viewBox="0 0 24 24" fill="currentColor">
<path d="M8.90625 6V7.21875L7.07812 5.39062C7.23438 4.14062 7.77344 3.09375 8.69531 2.25C9.61719 1.40625 10.7188 0.984375 12 0.984375C13.375 0.984375 14.5547 1.47656 15.5391 2.46094C16.5234 3.44531 17.0156 4.625 17.0156 6V8.01562H18C18.5312 8.01562 19 8.21094 19.4062 8.60156C19.8125 8.99219 20.0156 9.45312 20.0156 9.98438V18.3281L9.65625 8.01562H15.0938V6C15.0938 5.15625 14.7891 4.42969 14.1797 3.82031C13.5703 3.21094 12.8438 2.90625 12 2.90625C11.1562 2.90625 10.4297 3.21094 9.82031 3.82031C9.21094 4.42969 8.90625 5.15625 8.90625 6ZM21 21.7969L19.7812 23.0156L18.6562 21.8906C18.4062 21.9531 18.1875 21.9844 18 21.9844H6C5.46875 21.9844 5 21.7891 4.59375 21.3984C4.1875 21.0078 3.98438 20.5469 3.98438 20.0156V9.98438C3.98438 9.20312 4.34375 8.625 5.0625 8.25L3 6.23438L4.21875 5.01562L21 21.7969Z"/>
</svg>
