<svg width="24" height="24" viewBox="0 0 24 24" fill="none" xmlns="http://www.w3.org/2000/svg">
<path d="M11.8663 2.00091C6.34444 2.07484 1.92695 6.61185 2.00092 12.1348C2.07484 17.6545 6.61185 22.073 12.1337 21.9991C17.6555 21.9252 22.073 17.3881 21.9991 11.8652C21.9263 6.34444 17.3881 1.92699 11.8663 2.00091H11.8663ZM12.975 5.33355C13.9913 5.33355 14.2913 5.92269 14.2913 6.59771C14.2913 7.44012 13.6163 8.21947 12.4652 8.21947C11.5022 8.21947 11.0445 7.73471 11.0717 6.93468C11.0717 6.25965 11.6369 5.33355 12.975 5.33355ZM10.3685 18.2501C9.6739 18.2501 9.16518 17.8283 9.65105 15.974L10.4478 12.6869C10.5859 12.1598 10.6087 11.9489 10.4478 11.9489C10.2402 11.9489 9.33804 12.313 8.80432 12.6717L8.45759 12.1032C10.1478 10.6923 12.0914 9.86407 12.9239 9.86407C13.6185 9.86407 13.7337 10.6858 13.387 11.95L12.474 15.4065C12.3131 16.0174 12.3826 16.2283 12.5436 16.2283C12.7511 16.2283 13.4349 15.9761 14.1066 15.4478L14.499 15.975C12.8566 17.6174 11.0642 18.25 10.3685 18.25L10.3685 18.2501Z" fill="currentColor"/>
</svg>
