<svg width="24" height="24" viewBox="0 0 24 24" fill="none" xmlns="http://www.w3.org/2000/svg">
<path d="M3 13.5H11.0156V21.5156H3V13.5ZM12.9844 17.4844C12.9844 16.2344 13.4219 15.1719 14.2969 14.2969C15.1719 13.4219 16.2344 12.9844 17.4844 12.9844C18.7344 12.9844 19.7969 13.4219 20.6719 14.2969C21.5469 15.1719 21.9844 16.2344 21.9844 17.4844C21.9844 18.7344 21.5469 19.7969 20.6719 20.6719C19.7969 21.5469 18.7344 21.9844 17.4844 21.9844C16.2344 21.9844 15.1719 21.5469 14.2969 20.6719C13.4219 19.7969 12.9844 18.7344 12.9844 17.4844ZM12 2.01562L17.4844 11.0156H6.51562L12 2.01562Z" fill="currentColor"/>
</svg>
