<svg width="24" height="24" fill="currentColor" viewBox="0 0 24 24">
  <path d="M6.5 21a3.372 3.372 0 0 1-2.475-1.025A3.372 3.372 0 0 1 3 17.5c0-.967.342-1.792 1.025-2.475A3.372 3.372 0 0 1 6.5 14H8v-4H6.5a3.372 3.372 0 0 1-2.475-1.025A3.372 3.372 0 0 1 3 6.5c0-.967.342-1.792 1.025-2.475A3.372 3.372 0 0 1 6.5 3c.967 0 1.792.342 2.475 1.025A3.372 3.372 0 0 1 10 6.5V8h4V6.5c0-.967.342-1.792 1.025-2.475A3.372 3.372 0 0 1 17.5 3c.967 0 1.792.342 2.475 1.025A3.372 3.372 0 0 1 21 6.5c0 .967-.342 1.792-1.025 2.475A3.372 3.372 0 0 1 17.5 10H16v4h1.5c.967 0 1.792.342 2.475 1.025A3.372 3.372 0 0 1 21 17.5c0 .967-.342 1.792-1.025 2.475A3.372 3.372 0 0 1 17.5 21a3.372 3.372 0 0 1-2.475-1.025A3.372 3.372 0 0 1 14 17.5V16h-4v1.5c0 .967-.342 1.792-1.025 2.475A3.372 3.372 0 0 1 6.5 21Zm0-2c.417 0 .77-.146 1.063-.438.291-.291.437-.645.437-1.062V16H6.5c-.417 0-.77.146-1.063.438A1.447 1.447 0 0 0 5 17.5c0 .417.146.77.438 1.063.291.291.645.437 1.062.437Zm11 0c.417 0 .77-.146 1.063-.438.291-.291.437-.645.437-1.062 0-.417-.146-.77-.438-1.063A1.446 1.446 0 0 0 17.5 16H16v1.5c0 .417.146.77.438 1.063.291.291.645.437 1.062.437ZM10 14h4v-4h-4v4ZM6.5 8H8V6.5c0-.417-.146-.77-.438-1.063A1.447 1.447 0 0 0 6.5 5c-.417 0-.77.146-1.063.438A1.447 1.447 0 0 0 5 6.5c0 .417.146.77.438 1.063.291.291.645.437 1.062.437ZM16 8h1.5c.417 0 .77-.146 1.063-.438.291-.291.437-.645.437-1.062 0-.417-.146-.77-.438-1.063A1.447 1.447 0 0 0 17.5 5c-.417 0-.77.146-1.063.438A1.446 1.446 0 0 0 16 6.5V8Z"/>
</svg>
