<svg width="24" height="24" viewBox="0 0 24 24" fill="none" xmlns="http://www.w3.org/2000/svg">
<path d="M22 12C22 10.4606 21.6446 8.94191 20.9614 7.56235C20.2783 6.18279 19.2859 4.97958 18.0615 4.04646C16.8371 3.11334 15.4137 2.47549 13.9024 2.18263C12.3911 1.88976 10.8326 1.94978 9.34824 2.358C7.86391 2.76622 6.49387 3.51163 5.34486 4.53615C4.19584 5.56067 3.29888 6.83663 2.72384 8.26464C2.14881 9.69265 1.91123 11.2341 2.02961 12.769C2.148 14.3039 2.61915 15.7907 3.40637 17.1137L5.13353 16.0859C4.50453 15.0289 4.12807 13.8409 4.03348 12.6145C3.93889 11.3881 4.12872 10.1564 4.58818 9.01538C5.04765 7.87438 5.76434 6.85486 6.68242 6.03625C7.6005 5.21764 8.69519 4.62204 9.88119 4.29587C11.0672 3.96969 12.3125 3.92174 13.5201 4.15574C14.7276 4.38975 15.8649 4.89939 16.8432 5.64498C17.8215 6.39056 18.6145 7.35194 19.1603 8.45424C19.7062 9.55653 19.9902 10.77 19.9902 12H22Z" fill="currentColor"/>
</svg>
