<svg width="24" height="24" viewBox="0 0 24 24" fill="none" xmlns="http://www.w3.org/2000/svg">
<path d="M6.98438 15H21L17.4844 10.5L15 13.5L11.4844 9L6.98438 15ZM21.9844 3.98438C22.5156 3.98438 22.9844 4.1875 23.3906 4.59375C23.7969 5 24 5.46875 24 6V15.9844C24 16.5156 23.7969 16.9844 23.3906 17.3906C22.9844 17.7969 22.5156 18 21.9844 18H6C5.46875 18 5 17.7969 4.59375 17.3906C4.1875 16.9844 3.98438 16.5156 3.98438 15.9844L4.03125 3.98438C4.03125 3.45312 4.22656 2.99219 4.61719 2.60156C5.00781 2.21094 5.46875 2.01562 6 2.01562H12L14.0156 3.98438H21.9844ZM2.01562 6V20.0156H20.0156V21.9844H2.01562C1.48438 21.9844 1.01562 21.7891 0.609375 21.3984C0.203125 21.0078 0 20.5469 0 20.0156V6H2.01562Z" fill="currentColor"/>
</svg>
