<svg width="24" height="24" viewBox="0 0 24 24" fill="none" xmlns="http://www.w3.org/2000/svg">
<path d="M7.98438 14H20L17 9.5L15 12.5L12 8L7.98438 14ZM19.9844 4.98438C20.5156 4.98438 20.9844 5.1875 21.3906 5.59375C21.7969 6 22 6.46875 22 7V14.9844C22 15.5156 21.7969 15.9844 21.3906 16.3906C20.9844 16.7969 20.5156 17 19.9844 17H8C7.46875 17 7 16.7969 6.59375 16.3906C6.1875 15.9844 5.98438 15.5156 5.98438 14.9844L6.03125 4.98438C6.03125 4.45312 6.22656 3.99219 6.61719 3.60156C7.00781 3.21094 7.46875 3.01562 8 3.01562H12L14.0156 4.98438H19.9844ZM4.01562 7V19.0156H21.0156V20.9844H4.01562C3.48438 20.9844 3.01562 20.7891 2.60938 20.3984C2.20312 20.0078 2 19.5469 2 19.0156V7H4.01562Z" fill="currentColor"/>
</svg>
