<svg width="24" height="24" viewBox="0 0 24 24" fill="none" xmlns="http://www.w3.org/2000/svg">
<path fill-rule="evenodd" clip-rule="evenodd" d="M4 2.99917H20V20.9992H4V2.99917ZM20 0.999166H4C2.895 0.999166 2 1.89417 2 2.99917V20.9992C2 22.1042 2.895 22.9992 4 22.9992H20C21.105 22.9992 22 22.1042 22 20.9992V2.99917C22 1.89417 21.105 0.999166 20 0.999166ZM10.64 8.52717L9.20501 7.05017L5.93201 11.0402H17.932L13.579 5.05017L10.64 8.52717ZM6.00001 18.9992H14V16.9992H6.00001V18.9992ZM18 14.9992H6.00001V12.9992H18V14.9992Z" fill="currentColor"/>
</svg>
