<svg width="24" height="24" viewBox="0 0 24 24" fill="none" xmlns="http://www.w3.org/2000/svg">
<path fill-rule="evenodd" clip-rule="evenodd" d="M3.21706 2.41417L3.21704 2.41418L4.80291 4.00003L6.80291 6.00003L9.80291 9.00003L12.8029 12L18.8029 18L20.8029 20L21.4176 20.6147L20.0034 22.0289L17.9745 20H3C1.89543 20 1 19.1046 1 18V6.00003C1 5.19576 1.47473 4.50238 2.15925 4.1848L1 3.02554L2.41421 1.61133L3.21706 2.41417ZM7.63131 4.00003L9.63131 6.00003H21V9.00003H12.6313L15.6313 12H21V17.3687L22.6944 19.0631C22.888 18.7551 23 18.3907 23 18V6.00003C23 4.89546 22.1046 4.00003 21 4.00003H7.63131ZM3 6.00003H3.97449L6.97449 9.00003H3V6.00003ZM3 12H9.97449L15.9745 18H3L3 12Z" fill="currentColor"/>
</svg>
