<svg width="24" height="24" viewBox="0 0 24 24" fill="none" xmlns="http://www.w3.org/2000/svg">
<path fill-rule="evenodd" clip-rule="evenodd" d="M5 2C3.34315 2 2 3.34315 2 5V19C2 20.6569 3.34315 22 5 22H19C20.6569 22 22 20.6569 22 19V5C22 3.34315 20.6569 2 19 2H5ZM11.7003 11.0084L11.7176 10.9584C11.8109 11.0928 11.9268 11.2519 12.0653 11.4278C12.3849 11.8942 12.8839 12.518 13.1893 12.8302L13.3776 13.0535C13.282 13.0724 13.1748 13.0938 13.0613 13.1168C12.2615 13.2788 11.4785 13.4742 10.6978 13.7116L10.5922 13.7438L11.3261 11.9893C11.4539 11.6974 11.5936 11.3144 11.7003 11.0084ZM15.5528 13.7941C15.4785 13.753 15.3739 13.6893 15.2624 13.6192C15.6593 13.5721 16.1571 13.5206 16.5335 13.4956C17.6352 13.4801 17.9238 13.5262 18.2906 13.7048C18.4927 13.8032 18.5894 13.9636 18.6051 14.1113C18.6206 14.2568 18.5609 14.4153 18.3933 14.5289L18.3913 14.5303C18.2156 14.6519 17.953 14.6983 17.351 14.5201C16.7359 14.338 15.8901 13.9804 15.5528 13.7941ZM13.9432 13.8551L14.0513 13.8334C14.0918 13.8702 14.1441 13.9168 14.2066 13.9702C14.3642 14.1049 14.5884 14.2849 14.8548 14.4659C16.0338 15.2669 17.3334 15.6454 18.3548 15.6434C18.8637 15.6424 19.3251 15.5468 19.6683 15.3398C20.0221 15.1266 20.25 14.7922 20.25 14.3552C20.25 14.0398 20.1611 13.7379 19.9578 13.4764C19.7563 13.2173 19.4556 13.0146 19.0588 12.8709C17.7546 12.3985 16.2956 12.5961 14.9255 12.7817C14.7361 12.8074 14.5484 12.8328 14.3631 12.8562L13.5747 11.9077C13.1097 11.3426 12.5895 10.6469 12.4179 10.3651L12.1437 9.91498L12.4904 8.62567C12.7223 7.7633 12.8506 6.98187 12.8701 6.31504C12.8895 5.65243 12.8021 5.08125 12.5818 4.65597C12.2963 4.10495 11.7856 3.79106 11.2756 3.75375C10.7602 3.71605 10.2465 3.96465 10.0097 4.51747C9.92282 4.72038 9.87765 4.99082 9.85921 5.28339C9.84047 5.58086 9.8483 5.92114 9.87895 6.27526C9.9401 6.98185 10.0939 7.76373 10.3244 8.39565L10.6521 9.29409L10.164 10.5401C9.87878 11.2683 9.3606 12.4672 9.01422 13.2002L8.41807 14.4618C8.14717 14.592 7.86538 14.7193 7.57943 14.8483C6.33104 15.4119 5.00322 16.0113 4.15535 17.0529C3.9097 17.3547 3.75798 17.6718 3.75031 17.9962C3.74243 18.3291 3.88713 18.626 4.14636 18.8767C4.43321 19.1542 4.84151 19.2643 5.26937 19.2485C5.69924 19.2327 6.17125 19.0903 6.62305 18.8342C7.03535 18.6005 7.50998 18.1761 7.98921 17.6431C8.47168 17.1065 8.97091 16.4461 9.4305 15.726C9.54971 15.5392 9.70192 15.3156 9.82534 15.1373C9.88684 15.0484 9.94079 14.9714 9.97935 14.9167L9.99343 14.8967C10.9985 14.5686 11.3546 14.4533 12.0557 14.2705C12.4015 14.1804 12.93 14.0651 13.376 13.9716C13.5982 13.9251 13.7984 13.8843 13.9432 13.8551ZM7.20276 16.0318C7.28908 15.9902 7.37506 15.9488 7.4604 15.9073C7.16997 16.3222 6.845 16.7355 6.53546 17.0896C6.13637 17.5461 5.7846 17.8791 5.57431 18.0048C5.26029 18.1925 5.06477 18.2668 4.93482 18.2773C4.87653 18.282 4.8357 18.2733 4.80208 18.258C4.76668 18.2419 4.72529 18.2119 4.67627 18.1548C4.61647 18.0851 4.5993 18.0133 4.62769 17.9119C4.66062 17.7942 4.75764 17.636 4.95107 17.4422C5.57822 16.8139 6.40511 16.4158 7.20276 16.0318ZM11.518 5.34836C11.5429 6.18497 11.3317 7.05627 11.106 7.85413L11.057 7.7039C10.8347 7.02181 10.3784 5.38105 10.9814 4.77613C11.0465 4.71078 11.107 4.69454 11.1633 4.70054C11.2238 4.707 11.3131 4.74358 11.4186 4.84952C11.4738 4.94505 11.5108 5.10882 11.518 5.34836Z" fill="currentColor"/>
</svg>
