<svg width="24" height="24" viewBox="0 0 24 24" fill="currentColor">
<path d="M18 3V6.98438H6V3H18ZM18.9844 12C19.2656 12 19.5078 11.9062 19.7109 11.7188C19.9141 11.5312 20.0156 11.2969 20.0156 11.0156C20.0156 10.7344 19.9141 10.4922 19.7109 10.2891C19.5078 10.0859 19.2656 9.98438 18.9844 9.98438C18.7031 9.98438 18.4688 10.0859 18.2812 10.2891C18.0938 10.4922 18 10.7344 18 11.0156C18 11.2969 18.0938 11.5312 18.2812 11.7188C18.4688 11.9062 18.7031 12 18.9844 12ZM15.9844 18.9844V14.0156H8.01562V18.9844H15.9844ZM18.9844 8.01562C19.7969 8.01562 20.5 8.3125 21.0938 8.90625C21.6875 9.5 21.9844 10.2031 21.9844 11.0156V17.0156H18V21H6V17.0156H2.01562V11.0156C2.01562 10.2031 2.3125 9.5 2.90625 8.90625C3.5 8.3125 4.20312 8.01562 5.01562 8.01562H18.9844Z"/>
</svg>
