<svg width="24" height="24" viewBox="0 0 24 24" fill="none" xmlns="http://www.w3.org/2000/svg">
<path d="M17.5 8C18.3284 8 19 7.32843 19 6.5C19 5.67157 18.3284 5 17.5 5C16.6716 5 16 5.67157 16 6.5C16 7.32843 16.6716 8 17.5 8Z" fill="currentColor"/>
<path fill-rule="evenodd" clip-rule="evenodd" d="M21.9844 11.0156C21.9844 11.5781 21.7969 12.0469 21.4219 12.4219L12.4219 21.4219C12.0469 21.7969 11.5781 21.9844 11.0156 21.9844C10.4531 21.9844 9.98438 21.7969 9.60938 21.4219L2.57812 14.3906C2.20312 14.0156 2.01562 13.5469 2.01562 12.9844C2.01562 12.4219 2.20312 11.9531 2.57812 11.5781L11.5781 2.57812C11.9531 2.20312 12.4219 2.01562 12.9844 2.01562H20.0156C20.5469 2.01562 21.0078 2.21094 21.3984 2.60156C21.7891 2.99219 21.9844 3.45312 21.9844 3.98438V11.0156ZM14 4V4.01562H12.9844L12.9688 4.01587L4.01587 12.9688L4.01562 12.9844L4.01587 12.9999L11.0001 19.9841L11.0156 19.9844L11.0312 19.9841L19.9841 11.0312L19.9844 11.0156V10H20V4H14Z" fill="currentColor"/>
</svg>
