<svg width="24" height="24" viewBox="0 0 24 24" fill="none" xmlns="http://www.w3.org/2000/svg">
<path d="M18.5156 6.98438C18.1094 6.98438 17.7578 6.83594 17.4609 6.53906C17.1641 6.24219 17.0156 5.89062 17.0156 5.48438C17.0156 5.07812 17.1641 4.72656 17.4609 4.42969C17.7578 4.13281 18.1094 3.98438 18.5156 3.98438C18.9219 3.98438 19.2734 4.13281 19.5703 4.42969C19.8672 4.72656 20.0156 5.07812 20.0156 5.48438C20.0156 5.89062 19.8672 6.24219 19.5703 6.53906C19.2734 6.83594 18.9219 6.98438 18.5156 6.98438ZM2.57812 11.5781C2.20312 11.9531 2.01562 12.4219 2.01562 12.9844C2.01562 13.5469 2.20312 14.0156 2.57812 14.3906L9.60938 21.4219C9.98438 21.7969 10.4531 21.9844 11.0156 21.9844C11.5781 21.9844 12.0469 21.7969 12.4219 21.4219L21.4219 12.4219C21.7969 12.0469 21.9844 11.5781 21.9844 11.0156V3.98438C21.9844 3.45312 21.7891 2.99219 21.3984 2.60156C21.0078 2.21094 20.5469 2.01562 20.0156 2.01562H12.9844C12.4219 2.01562 11.9531 2.20312 11.5781 2.57812L2.57812 11.5781Z" fill="currentColor"/>
</svg>
