<svg width="24" height="24" viewBox="0 0 24 24" fill="none" xmlns="http://www.w3.org/2000/svg">
<path fill-rule="evenodd" clip-rule="evenodd" d="M16.0467 7.95328C16.7046 8.6112 17.5594 8.98438 18.5156 8.98438C19.0411 8.98438 19.536 8.87167 19.9844 8.66093V11.0156C19.9844 11.0214 19.9843 11.0266 19.9841 11.0312L11.0312 19.9841C11.0266 19.9843 11.0214 19.9844 11.0156 19.9844C11.0099 19.9844 11.0047 19.9843 11.0001 19.9841L4.01587 12.9999C4.01572 12.9953 4.01562 12.9901 4.01562 12.9844C4.01562 12.9786 4.01572 12.9734 4.01587 12.9688L12.9688 4.01587C12.9734 4.01572 12.9786 4.01562 12.9844 4.01562H15.3391C15.1283 4.46402 15.0156 4.95888 15.0156 5.48438C15.0156 6.44057 15.3888 7.29535 16.0467 7.95328ZM21.9844 11.0156C21.9844 11.5781 21.7969 12.0469 21.4219 12.4219L12.4219 21.4219C12.0469 21.7969 11.5781 21.9844 11.0156 21.9844C10.4531 21.9844 9.98438 21.7969 9.60938 21.4219L2.57812 14.3906C2.20312 14.0156 2.01562 13.5469 2.01562 12.9844C2.01562 12.4219 2.20312 11.9531 2.57812 11.5781L11.5781 2.57812C11.9531 2.20312 12.4219 2.01562 12.9844 2.01562H20.0156C20.5469 2.01562 21.0078 2.21094 21.3984 2.60156C21.7891 2.99219 21.9844 3.45312 21.9844 3.98438V11.0156ZM19.9844 5.79572C19.9266 6.07305 19.7885 6.32083 19.5703 6.53906C19.2734 6.83594 18.9219 6.98438 18.5156 6.98438C18.1094 6.98438 17.7578 6.83594 17.4609 6.53906C17.1641 6.24219 17.0156 5.89062 17.0156 5.48438C17.0156 5.07812 17.1641 4.72656 17.4609 4.42969C17.6792 4.21146 17.927 4.07344 18.2043 4.01562C18.3042 3.99479 18.408 3.98438 18.5156 3.98438C18.6232 3.98438 18.727 3.99479 18.827 4.01562C19.1043 4.07344 19.3521 4.21146 19.5703 4.42969C19.7885 4.64792 19.9266 4.8957 19.9844 5.17303C20.0052 5.27298 20.0156 5.37676 20.0156 5.48438C20.0156 5.59199 20.0052 5.69577 19.9844 5.79572Z" fill="currentColor"/>
</svg>
