<svg width="24" height="24" viewBox="0 0 24 24" fill="none" xmlns="http://www.w3.org/2000/svg">
<path fill-rule="evenodd" clip-rule="evenodd" d="M7.07815 7.07812L7.07819 7.07809L16.9219 16.9218L16.9219 16.9219L20.3848 20.3847L18.9706 21.799L15.5077 18.3361L12.4219 21.4219C12.0469 21.7969 11.5782 21.9844 11.0157 21.9844C10.4532 21.9844 9.9844 21.7969 9.6094 21.4219L2.57815 14.3906C2.20315 14.0156 2.01565 13.5469 2.01565 12.9844C2.01565 12.4219 2.20315 11.9531 2.57815 11.5781L5.66394 8.49234L2 4.8284L3.41421 3.41418L7.07815 7.07812ZM21.4219 12.4219L18.3361 15.5076L8.4924 5.66388L11.5782 2.57812C11.9532 2.20312 12.4219 2.01562 12.9844 2.01562H20.0157C20.5469 2.01562 21.0078 2.21094 21.3985 2.60156C21.7891 2.99219 21.9844 3.45312 21.9844 3.98438V11.0156C21.9844 11.5781 21.7969 12.0469 21.4219 12.4219ZM17.5157 7.98438C17.1094 7.98438 16.7578 7.83594 16.461 7.53906C16.1641 7.24219 16.0157 6.89062 16.0157 6.48438C16.0157 6.07812 16.1641 5.72656 16.461 5.42969C16.7578 5.13281 17.1094 4.98438 17.5157 4.98438C17.9219 4.98438 18.2735 5.13281 18.5703 5.42969C18.8672 5.72656 19.0157 6.07812 19.0157 6.48438C19.0157 6.89062 18.8672 7.24219 18.5703 7.53906C18.2735 7.83594 17.9219 7.98438 17.5157 7.98438Z" fill="currentColor"/>
</svg>
