<svg width="24" height="24" viewBox="0 0 24 24" fill="none" xmlns="http://www.w3.org/2000/svg">
<path d="M17.5156 7.98438C17.1094 7.98438 16.7578 7.83594 16.4609 7.53906C16.1641 7.24219 16.0156 6.89062 16.0156 6.48438C16.0156 6.07812 16.1641 5.72656 16.4609 5.42969C16.7578 5.13281 17.1094 4.98438 17.5156 4.98438C17.9219 4.98438 18.2734 5.13281 18.5703 5.42969C18.8672 5.72656 19.0156 6.07812 19.0156 6.48438C19.0156 6.89062 18.8672 7.24219 18.5703 7.53906C18.2734 7.83594 17.9219 7.98438 17.5156 7.98438ZM2.57812 11.5781C2.20312 11.9531 2.01562 12.4219 2.01562 12.9844C2.01562 13.5469 2.20312 14.0156 2.57812 14.3906L9.60938 21.4219C9.98438 21.7969 10.4531 21.9844 11.0156 21.9844C11.5781 21.9844 12.0469 21.7969 12.4219 21.4219L21.4219 12.4219C21.7969 12.0469 21.9844 11.5781 21.9844 11.0156V3.98438C21.9844 3.45312 21.7891 2.99219 21.3984 2.60156C21.0078 2.21094 20.5469 2.01562 20.0156 2.01562H12.9844C12.4219 2.01562 11.9531 2.20312 11.5781 2.57812L2.57812 11.5781Z" fill="currentColor"/>
</svg>
