<svg width="24" height="24" fill="currentColor" viewBox="0 0 24 24">
  <path d="M11.9 4.56c1.386 0 2.5.38 3.34 1.14.853.747 1.28 1.78 1.28 3.1 0 1.307-.42 2.307-1.26 3-.84.68-1.954 1.02-3.34 1.02l-.08 1.54H9.38l-.1-3.4h.9c1.16 0 2.053-.153 2.68-.46.626-.307.94-.867.94-1.68 0-.587-.174-1.053-.52-1.4-.334-.347-.794-.52-1.38-.52-.614 0-1.094.167-1.44.5-.334.333-.5.793-.5 1.38H7.32c-.014-.813.16-1.54.52-2.18.36-.64.886-1.14 1.58-1.5.706-.36 1.533-.54 2.48-.54Zm-1.3 14.58c-.508 0-.927-.153-1.26-.46-.32-.32-.48-.713-.48-1.18 0-.467.16-.853.48-1.16.333-.32.752-.48 1.26-.48.492 0 .9.16 1.22.48.32.307.48.693.48 1.16 0 .467-.16.86-.48 1.18-.32.307-.728.46-1.22.46Z"/>
</svg>
