<svg width="24" height="24" viewBox="0 0 24 24" fill="none" xmlns="http://www.w3.org/2000/svg">
<path fill-rule="evenodd" clip-rule="evenodd" d="M13.1253 14.4981C14.246 13.8497 15 12.6379 15 11.25C15 9.17893 13.3211 7.5 11.25 7.5C9.17893 7.5 7.5 9.17893 7.5 11.25C7.5 13.2507 9.06682 14.8855 11.0404 14.9942L12.6872 17.8467C12.2241 17.9471 11.7432 18 11.25 18C7.52208 18 4.5 14.9779 4.5 11.25C4.5 7.52208 7.52208 4.5 11.25 4.5C14.9779 4.5 18 7.52208 18 11.25C18 12.6321 17.5846 13.9172 16.8719 14.9872L19.4773 19.5H16.0132L14.6256 17.0966C14.6256 17.0966 14.6256 17.0966 14.6256 17.0966L13.1253 14.4981Z" fill="currentColor"/>
</svg>
