<svg width="24" height="24" viewBox="0 0 24 24" fill="none" xmlns="http://www.w3.org/2000/svg">
<path d="M3 21.9844V2.01562L4.5 3.51562L6 2.01562L7.5 3.51562L9 2.01562L10.5 3.51562L12 2.01562L13.5 3.51562L15 2.01562L16.5 3.51562L18 2.01562L19.5 3.51562L21 2.01562V21.9844L19.5 20.4844L18 21.9844L16.5 20.4844L15 21.9844L13.5 20.4844L12 21.9844L10.5 20.4844L9 21.9844L7.5 20.4844L6 21.9844L4.5 20.4844L3 21.9844ZM18 9V6.98438H6V9H18ZM18 12.9844V11.0156H6V12.9844H18ZM18 17.0156V15H6V17.0156H18Z" fill="currentColor"/>
</svg>
