<svg width="24" height="24" viewBox="0 0 24 24" fill="none" xmlns="http://www.w3.org/2000/svg">
<path fill-rule="evenodd" clip-rule="evenodd" d="M17.9757 12.1477L16.414 10.586L15 12L19 16L23 12L21.586 10.586L20 12.172H19.9982C20.0366 10.3844 19.475 8.63337 18.4001 7.20018C17.2897 5.71948 15.7001 4.66962 13.9024 4.22949C12.1046 3.78936 10.2099 3.9862 8.54101 4.78646C6.87211 5.58671 5.53233 6.94088 4.74994 8.61822C3.96754 10.2956 3.79095 12.1923 4.25024 13.9852C4.70954 15.7782 5.77631 17.3564 7.26878 18.451C8.76126 19.5456 10.5871 20.0888 12.4352 19.9882C14.2833 19.8875 16.0393 19.1491 17.404 17.8989L16.0379 16.4076C15.0182 17.3418 13.7061 17.8935 12.3252 17.9687C10.9443 18.0439 9.58003 17.638 8.46487 16.8202C7.3497 16.0023 6.55262 14.823 6.20944 13.4834C5.86625 12.1437 5.9982 10.7265 6.5828 9.47316C7.1674 8.21986 8.16848 7.20804 9.41547 6.61009C10.6625 6.01214 12.0782 5.86507 13.4215 6.19393C14.7647 6.52279 15.9524 7.30724 16.7821 8.41361C17.5891 9.48961 18.0089 10.8054 17.9757 12.1477Z" fill="currentColor"/>
</svg>
