<svg xmlns="http://www.w3.org/2000/svg" width="24" height="24" fill="currentColor" viewBox="0 0 24 24">
  <path fill-rule="evenodd" d="M4 13a2 2 0 0 0-2 2v4a2 2 0 0 0 2 2h5a2 2 0 0 0 2-2v-4a2 2 0 0 0-2-2H4Zm9 2v4a2 2 0 0 0 2 2h5a2 2 0 0 0 2-2v-4a2 2 0 0 0-2-2h-5a2 2 0 0 0-2 2Zm-2-6V5a2 2 0 0 0-2-2H4a2 2 0 0 0-2 2v4a2 2 0 0 0 2 2h5a2 2 0 0 0 2-2ZM4 5v4h5V5H4Zm11 0v4h5V5h-5Zm5 10h-5v4h5v-4ZM4 15v4h5v-4H4Zm9-10a2 2 0 0 1 2-2h5a2 2 0 0 1 2 2v4a2 2 0 0 1-2 2h-5a2 2 0 0 1-2-2V5Z" clip-rule="evenodd"/>
</svg>
