<svg width="24" height="24" viewBox="0 0 24 24" fill="none" xmlns="http://www.w3.org/2000/svg">
<path fill-rule="evenodd" clip-rule="evenodd" d="M4 3C2.89543 3 2 3.89543 2 5V9C2 10.1046 2.89543 11 4 11H9C10.1046 11 11 10.1046 11 9V5C11 3.89543 10.1046 3 9 3H4ZM15 3C13.8954 3 13 3.89543 13 5V9C13 10.1046 13.8954 11 15 11H20C21.1046 11 22 10.1046 22 9V5C22 3.89543 21.1046 3 20 3H15ZM13 15C13 13.8954 13.8954 13 15 13H20C21.1046 13 22 13.8954 22 15V19C22 20.1046 21.1046 21 20 21H15C13.8954 21 13 20.1046 13 19V15ZM4 13C2.89543 13 2 13.8954 2 15V19C2 20.1046 2.89543 21 4 21H9C10.1046 21 11 20.1046 11 19V15C11 13.8954 10.1046 13 9 13H4Z" fill="currentColor"/>
</svg>
