<svg width="24" height="24" viewBox="0 0 24 24" fill="none" xmlns="http://www.w3.org/2000/svg">
<path fill-rule="evenodd" clip-rule="evenodd" d="M3 4.01562V21.9844L4.5 20.4844L6 21.9844L7.5 20.4844L9 21.9844L10.5 20.4844L12 21.9844L13.5 20.4844L15 21.9844L16.5 20.4844L18 21.9844L19.5 20.4844L21 21.9844V4.01562C21 2.91106 20.1046 2.01562 19 2.01562H5C3.89543 2.01562 3 2.91106 3 4.01562ZM18 5.98438V8H6V5.98438H18ZM14 10.0156V11.9844H6V10.0156H14ZM9 14V16.0156H6V14H9ZM17.4853 12.1863L18.8995 13.6005L14 18.5L11.3433 15.8431L12.7575 14.4289L14.0001 15.6715L17.4853 12.1863Z" fill="currentColor"/>
</svg>
