<svg width="24" height="24" viewBox="0 0 24 24" fill="currentColor">
    <path fill-rule="evenodd" clip-rule="evenodd" d="M14.1984 4.77179C13.2397 4.27847 12.1524 4 11 4C7.13399 4 3.99998 7.13401 3.99998 11C3.99998 12.1524 4.27845 13.2397 4.77177 14.1984L6.28949 12.6807C6.10205 12.1555 5.99998 11.5897 5.99998 11C5.99998 8.23858 8.23856 6 11 6C11.5896 6 12.1554 6.10207 12.6807 6.2895L14.1984 4.77179ZM7.3652 14.4334C7.36523 14.4335 7.36526 14.4335 7.36528 14.4335L14.4335 7.3653C14.4335 7.36527 14.4334 7.36525 14.4334 7.36522L15.848 5.9506C15.8481 5.95063 15.8481 5.95065 15.8481 5.95068L19.3846 2.41418L20.7988 3.8284L17.0867 7.54049C17.668 8.56089 18 9.74167 18 11C18 12.5723 17.4816 14.0236 16.6064 15.1922L20.7213 19.3071L19.3071 20.7213L15.1922 16.6064C14.0236 17.4816 12.5723 18 11 18C9.74165 18 8.56087 17.668 7.54047 17.0868L3.82828 20.799L2.41406 19.3847L5.95066 15.8481C5.95064 15.8481 5.95061 15.8481 5.95058 15.8481L7.3652 14.4334ZM15.597 9.03022L9.0302 15.597C9.63466 15.8564 10.3006 16 11 16C13.7614 16 16 13.7614 16 11C16 10.3006 15.8564 9.63468 15.597 9.03022Z"/>
</svg>
