<svg width="24" height="24" viewBox="0 0 24 24" fill="none" xmlns="http://www.w3.org/2000/svg">
    <path d="M17.2858 3.51436C17.1094 3.19689 16.7748 3 16.4116 3H7.5884C7.22524 3 6.89062 3.19689 6.71425 3.51436L2.2698 11.5144C2.10201 11.8164 2.10201 12.1836 2.2698 12.4856L6.71425 20.4856C6.89062 20.8031 7.22524 21 7.5884 21H16.4116C16.7748 21 17.1094 20.8031 17.2858 20.4856L21.7302 12.4856C21.898 12.1836 21.898 11.8164 21.7302 11.5144L17.2858 3.51436ZM12 17C9.239 17 7 14.8694 7 12C7 9.1306 9.239 7 12 7C14.761 7 17 9.1306 17 12C17 14.8694 14.761 17 12 17Z" fill="currentColor"/>
</svg>
