<svg width="24" height="24" viewBox="0 0 24 24" fill="currentColor">
<path fill-rule="evenodd" clip-rule="evenodd" d="M3.99994 4H3.99988L2.44275 2.44287L1.02854 3.85708L1.67579 4.50434C1.26189 4.87144 1 5.40662 1 6V17H3C3 18.66 4.34 20 6 20C7.66 20 9 18.66 9 17H14.1714L15.1691 17.9977C15.4697 18.8535 16.1465 19.5303 17.0023 19.8309L19.0787 21.9073L20.4929 20.493L19.5628 19.5629C19.5628 19.5629 19.5628 19.5629 19.5628 19.5629L18.4359 18.436C18.4359 18.436 18.4359 18.436 18.4359 18.436L16.564 16.5641C16.564 16.5641 16.564 16.5641 16.564 16.5641L3.99994 4ZM19.4528 16.6245C19.3174 16.0969 18.9031 15.6826 18.3755 15.5472L6.82837 4H17V8H20L23 12V17H21C21 17.3513 20.94 17.6883 20.8296 18.0013L19.4528 16.6245ZM6 18.5C5.17 18.5 4.5 17.83 4.5 17C4.5 16.17 5.17 15.5 6 15.5C6.83 15.5 7.5 16.17 7.5 17C7.5 17.83 6.83 18.5 6 18.5ZM19.5 9.5L21.46 12H17V9.5H19.5Z"/>
</svg>
