<svg width="24" height="24" viewBox="0 0 24 24" fill="none" xmlns="http://www.w3.org/2000/svg">
<path fill-rule="evenodd" clip-rule="evenodd" d="M23 12L20 8H17V4H3C1.9 4 1 4.9 1 6V17H3C3 18.66 4.34 20 6 20C7.66 20 9 18.66 9 17H15C15 18.66 16.34 20 18 20C19.66 20 21 18.66 21 17H23V12ZM19 15.8808C18.7348 15.6439 18.3846 15.5 18 15.5C17.6154 15.5 17.2652 15.6439 17 15.8808C16.6929 16.1553 16.5 16.5546 16.5 17C16.5 17.83 17.17 18.5 18 18.5C18.83 18.5 19.5 17.83 19.5 17C19.5 16.5546 19.3071 16.1553 19 15.8808ZM15 15V6H3V15H3.12644C3.75854 14.093 4.80936 13.5 6 13.5C7.19064 13.5 8.24146 14.093 8.87356 15C10.1356 15 15 15 15 15ZM7 15.8808C6.73485 15.6439 6.3846 15.5 6 15.5C5.6154 15.5 5.26515 15.6439 5 15.8808C4.69294 16.1553 4.5 16.5546 4.5 17C4.5 17.83 5.17 18.5 6 18.5C6.83 18.5 7.5 17.83 7.5 17C7.5 16.5546 7.30706 16.1553 7 15.8808ZM21.46 12L19.5 9.5H17V12H21.46Z" fill="currentColor"/>
</svg>
