<svg width="24" height="24" fill="currentColor" viewBox="0 0 24 24">
    <path fill-rule="evenodd" d="M4 4 2.443 2.443 1.029 3.857 1.17 4H1v14h3.17a3.001 3.001 0 0 0 5.66 0h5.34a3.008 3.008 0 0 0 1.831 1.83l2.078 2.077 1.414-1.414-.931-.931L18 18l-1-1-3-3-8-8-2-2Zm10 7.172V6H8.828l-2-2H14a2 2 0 0 1 2 2v1h3a1 1 0 0 1 .858.486L23 12.723V18h-2.171l-3.83-3.83A3.001 3.001 0 0 1 20.83 16H21v-2.723L20.834 13H17v-3h2.034l-.6-1H16v4.172l-2-2ZM3 6h.171l10 10H9.83a3.001 3.001 0 0 0-5.658 0H3V6Zm5 11a1 1 0 1 1-2 0 1 1 0 0 1 2 0Z" clip-rule="evenodd"/>
</svg>
