<svg width="24" height="24" viewBox="0 0 24 24" fill="none" xmlns="http://www.w3.org/2000/svg">
<path fill-rule="evenodd" clip-rule="evenodd" d="M18.9844 3.98438V20.0156H5.01562V3.98438H6.98438V6.98438H17.0156V3.98438H18.9844ZM11.2969 2.29688C11.4844 2.10938 11.7188 2.01562 12 2.01562C12.2812 2.01562 12.5156 2.10938 12.7031 2.29688C12.8906 2.48438 12.9844 2.71875 12.9844 3C12.9844 3.28125 12.8906 3.51562 12.7031 3.70312C12.5156 3.89062 12.2812 3.98438 12 3.98438C11.7188 3.98438 11.4844 3.89062 11.2969 3.70312C11.1094 3.51562 11.0156 3.28125 11.0156 3C11.0156 2.71875 11.1094 2.48438 11.2969 2.29688ZM20.3906 2.60156C19.9844 2.21094 19.5156 2.01562 18.9844 2.01562H14.8125C14.5938 1.42188 14.2344 0.9375 13.7344 0.5625C13.2344 0.1875 12.6562 0 12 0C11.3438 0 10.7656 0.1875 10.2656 0.5625C9.76562 0.9375 9.40625 1.42188 9.1875 2.01562H5.01562C4.48438 2.01562 4.01562 2.21094 3.60938 2.60156C3.20312 2.99219 3 3.45312 3 3.98438V20.0156C3 20.5469 3.20312 21.0078 3.60938 21.3984C4.01562 21.7891 4.48438 21.9844 5.01562 21.9844H18.9844C19.5156 21.9844 19.9844 21.7891 20.3906 21.3984C20.7969 21.0078 21 20.5469 21 20.0156V3.98438C21 3.45312 20.7969 2.99219 20.3906 2.60156ZM16.989 10.4247L10.6567 16.757L9.24251 15.3428L9.24283 15.3425L7.02576 13.1254L8.43997 11.7112L10.657 13.9283L15.5748 9.0105L16.989 10.4247Z" fill="currentColor"/>
</svg>
