<svg width="24" height="24" viewBox="0 0 24 24" fill="currentColor">
<path d="M21.7225 18.307C21.9207 18.4209 22.0127 18.613 21.9986 18.8834C21.9844 19.1538 21.8641 19.3886 21.6375 19.5878L19.556 21.6798C19.1312 22.1067 18.7064 22.1067 18.2817 21.6798L10.0407 13.3973C9.0212 13.8243 7.93798 13.9168 6.79104 13.6748C5.64411 13.4329 4.64584 12.885 3.79626 12.0312C2.89004 11.1204 2.32365 10.0388 2.0971 8.78649C1.87054 7.53416 2.04046 6.36722 2.60685 5.28566L6.59989 9.21342L9.31855 6.48107L5.41047 2.5533C6.48661 2.04099 7.64771 1.88444 8.89376 2.08368C10.1398 2.28291 11.216 2.83792 12.1222 3.74871C12.9718 4.60257 13.5169 5.60586 13.7576 6.75857C13.9983 7.91128 13.9063 8.99996 13.4815 10.0246L21.7225 18.307Z"/>
</svg>
