<svg width="24" height="24" viewBox="0 0 24 24" fill="currentColor">
<path fill-rule="evenodd" clip-rule="evenodd" d="M21 2H19C19 2.55228 18.5523 3 18 3C17.4477 3 17 2.55228 17 2H15C15 2.55228 14.5523 3 14 3C13.4477 3 13 2.55228 13 2H11C11 2.55228 10.5523 3 10 3C9.44772 3 9 2.55228 9 2H7C7 2.55228 6.55228 3 6 3C5.44772 3 5 2.55228 5 2H3C3 2.55228 2.55228 3 2 3V5C2.55228 5 3 5.44772 3 6C3 6.55228 2.55228 7 2 7V9C2.55228 9 3 9.44772 3 10C3 10.5523 2.55228 11 2 11V13C2.55228 13 3 13.4477 3 14C3 14.5523 2.55228 15 2 15V17C2.55228 17 3 17.4477 3 18C3 18.5523 2.55228 19 2 19V21C2.55228 21 3 21.4477 3 22H5C5 21.4477 5.44772 21 6 21C6.55228 21 7 21.4477 7 22H9C9 21.4477 9.44772 21 10 21C10.5523 21 11 21.4477 11 22H13C13 21.4477 13.4477 21 14 21C14.5523 21 15 21.4477 15 22H17C17 21.4477 17.4477 21 18 21C18.5523 21 19 21.4477 19 22H21C21 21.4477 21.4477 21 22 21V19C21.4477 19 21 18.5523 21 18C21 17.4477 21.4477 17 22 17V15C21.4477 15 21 14.5523 21 14C21 13.4477 21.4477 13 22 13V11C21.4477 11 21 10.5523 21 10C21 9.44772 21.4477 9 22 9V7C21.4477 7 21 6.55228 21 6C21 5.44772 21.4477 5 22 5V3C21.4477 3 21 2.55228 21 2ZM7 7H17V17H7V7ZM5 19V5H19V19H5Z"/>
</svg>
