<svg width="24" height="24" viewBox="0 0 24 24" fill="currentColor">
<path fill-rule="evenodd" clip-rule="evenodd" d="M2.23093 7.46598L3.9519 3H20.0481L21.769 7.46598C22.2842 8.80282 21.8984 10.2119 21 11.0977V19C21 20.1046 20.1046 21 19 21H4.99998C3.89542 21 2.99998 20.1046 2.99998 19V11.0977C2.1016 10.2119 1.71578 8.80282 2.23093 7.46598ZM4.99998 11.9945V19H19V11.9945C18.9378 11.9981 18.8751 12 18.8118 12C17.9357 12 17.1298 11.6296 16.5477 11.0193C15.9685 11.6213 15.1668 12 14.2653 12C13.3827 12 12.5828 11.6324 12 11.0366C11.4172 11.6324 10.6173 12 9.73464 12C8.8332 12 8.03147 11.6213 7.45227 11.0193C6.87013 11.6296 6.06429 12 5.18818 12C5.12487 12 5.06213 11.9981 4.99998 11.9945ZM13 5H15L15.6032 8.70888C15.5741 9.41149 15.0155 10 14.302 10C13.5829 10 13 9.39493 13 8.64853V5ZM19 5H17L17.5779 8.95001C17.6956 9.56053 18.212 10 18.8118 10C19.702 10 20.3107 9.06673 19.9801 8.20877L19 5ZM4.99998 5H6.99998C6.99998 5 6.67503 7.63703 6.42205 8.95001C6.30442 9.56053 5.78799 10 5.18818 10C4.29797 10 3.68926 9.06673 4.01987 8.20877L4.99998 5ZM8.39679 8.70888C8.42583 9.41149 8.98446 10 9.69801 10C10.4171 10 11 9.39493 11 8.64853V5H8.99998L8.39679 8.70888Z"/>
</svg>
