<svg width="24" height="24" viewBox="0 0 24 24" fill="currentColor">
<path fill-rule="evenodd" clip-rule="evenodd" d="M5.01565 5.01562L3.41421 3.41418L2 4.8284L3.2396 6.068C3.07989 6.34582 3.00003 6.65127 3.00003 6.98438V17.0156C3.00003 17.5469 3.20315 18.0078 3.6094 18.3984C4.01565 18.7891 4.4844 18.9844 5.01565 18.9844H15.9844C16.0407 18.9844 16.096 18.9825 16.1503 18.9787L18.1353 20.9637L19.5495 19.5495L17.8391 17.8391L16.4127 16.4127L6.9844 6.98438L5.01565 5.01562ZM17.5873 14.7589L19.5469 12L15.9844 6.98438H9.81287L7.84412 5.01562H15.9844C16.6719 5.01562 17.2188 5.29688 17.625 5.85938L21.9844 12L19.0134 16.1849L17.5873 14.7589ZM5.01565 17.0156V7.84405L14.1872 17.0156H5.01565Z"/>
</svg>
