<svg width="24" height="24" viewBox="0 0 24 24" fill="none" xmlns="http://www.w3.org/2000/svg">
<path fill-rule="evenodd" clip-rule="evenodd" d="M11 1H13V3.05493C17.1716 3.51608 20.4839 6.82838 20.9451 11H23V13H20.9451C20.7923 14.3823 20.3264 15.6702 19.62 16.7914L18.1587 15.3301C18.6953 14.3398 19 13.2055 19 12C19 8.13401 15.866 5 12 5C10.7945 5 9.66023 5.30471 8.66993 5.84131L7.20864 4.38002C8.32976 3.67359 9.61771 3.20773 11 3.05493V1ZM5.63613 5.63595C5.6361 5.63598 5.63607 5.63601 5.63604 5.63604L3.4142 3.4142L1.99999 4.82842L4.3801 7.20852C3.67362 8.32968 3.20774 9.61766 3.05493 11H1V13H3.05493C3.51608 17.1716 6.82838 20.4839 11 20.9451V23H13V20.9451C14.3823 20.7923 15.6703 20.3264 16.7915 19.6199L18.9706 21.799L20.3848 20.3848L18.364 18.364C18.364 18.3639 18.364 18.3639 18.3641 18.3639L16.9498 16.9497C16.9498 16.9497 16.9498 16.9497 16.9497 16.9497L7.05025 7.05025C7.05028 7.05022 7.05031 7.05019 7.05035 7.05016L5.63613 5.63595ZM5 12C5 10.7945 5.30474 9.66014 5.84138 8.66981L15.3302 18.1586C14.3399 18.6953 13.2055 19 12 19C8.13401 19 5 15.866 5 12Z" fill="currentColor"/>
</svg>
