<svg width="24" height="24" viewBox="0 0 24 24" fill="none" xmlns="http://www.w3.org/2000/svg">
<path d="M12 1.98438C14.5 1.98438 16.625 2.86719 18.375 4.63281C20.125 6.39844 21 8.51562 21 10.9844V18.0156C21 18.8281 20.7031 20.5312 20.1094 21.125C19.5156 21.7188 18.8125 22.0156 18 22.0156H11V20H18.9844V18.0156H16V11H18.9844C18.9844 9.0625 18.3047 7.39844 16.9453 6.03906C15.5859 4.67969 13.9375 4 12 4C10.0625 4 8.41406 4.67969 7.05469 6.03906C5.69531 7.39844 5.01562 9.04688 5.01562 10.9844L8 11V18.0156H6C5.1875 18.0156 4.48438 17.7188 3.89062 17.125C3.29688 16.5312 3 15.8281 3 15.0156V10.9844C3 8.51562 3.875 6.39844 5.625 4.63281C7.375 2.86719 9.5 1.98438 12 1.98438Z" fill="currentColor"/>
</svg>
