<svg width="24" height="24" viewBox="0 0 24 24" fill="none" xmlns="http://www.w3.org/2000/svg">
<path d="M3.5625 18.5625L5.34375 16.7344L6.75 18.1406L4.96875 19.9688L3.5625 18.5625ZM11.0156 22.4531V19.5H12.9844V22.4531H11.0156ZM12 5.48438C13.6562 5.48438 15.0703 6.07031 16.2422 7.24219C17.4141 8.41406 18 9.82812 18 11.4844C18 13.1406 17.4141 14.5547 16.2422 15.7266C15.0703 16.8984 13.6562 17.4844 12 17.4844C10.3438 17.4844 8.92969 16.8984 7.75781 15.7266C6.58594 14.5547 6 13.1406 6 11.4844C6 9.82812 6.58594 8.41406 7.75781 7.24219C8.92969 6.07031 10.3438 5.48438 12 5.48438ZM20.0156 10.5H23.0156V12.5156H20.0156V10.5ZM17.25 18.1406L18.6562 16.7812L20.4375 18.5625L19.0312 19.9688L17.25 18.1406ZM20.4375 4.45312L18.6562 6.23438L17.25 4.82812L19.0312 3.04688L20.4375 4.45312ZM12.9844 0.5625V3.51562H11.0156V0.5625H12.9844ZM3.98438 10.5V12.5156H0.984375V10.5H3.98438ZM6.75 4.82812L5.34375 6.23438L3.5625 4.45312L4.96875 3.04688L6.75 4.82812Z" fill="currentColor"/>
</svg>
