<svg width="24" height="24" fill="currentColor" viewBox="0 0 24 24">
  <path d="m5.344 16.734-1.782 1.828L4.97 19.97l1.78-1.83-1.406-1.407Zm5.672 2.766v2.953h1.968V19.5h-1.968Zm12-9h-3v2.016h3V10.5Zm-4.36 6.281-1.406 1.36 1.781 1.828 1.407-1.407-1.782-1.78Zm0-10.547 1.782-1.78-1.407-1.407-1.781 1.781 1.406 1.406Zm-5.672-2.718V.562h-1.968v2.954h1.968Zm-9 9V10.5h-3v2.016h3Zm1.36-6.282L6.75 4.828 4.969 3.047 3.562 4.453l1.782 1.781Z"/>
  <path fill-rule="evenodd" d="M16.242 7.242C15.07 6.07 13.656 5.484 12 5.484c-1.656 0-3.07.586-4.242 1.758C6.586 8.414 6 9.828 6 11.484c0 1.657.586 3.07 1.758 4.243 1.172 1.171 2.586 1.757 4.242 1.757 1.656 0 3.07-.586 4.242-1.757C17.414 14.555 18 13.14 18 11.484c0-1.656-.586-3.07-1.758-4.242ZM12 7.484c1.125 0 2.03.375 2.828 1.172.797.797 1.172 1.703 1.172 2.828 0 1.126-.375 2.031-1.172 2.828-.797.797-1.703 1.172-2.828 1.172-1.125 0-2.03-.375-2.828-1.172C8.375 13.515 8 12.61 8 11.484c0-1.125.375-2.03 1.172-2.828.797-.797 1.703-1.172 2.828-1.172Z" clip-rule="evenodd"/>
</svg>
