<svg width="24" height="24" fill="currentColor" viewBox="0 0 24 24">
  <path fill-rule="evenodd" d="M15.02 7.027C13.697 5.653 12.164 5 10.305 5c-.13 0-.258.003-.385.01.36.46.686.953.977 1.48A11.224 11.224 0 0 1 12.306 12c0 1.964-.467 3.812-1.408 5.51a11.11 11.11 0 0 1-.977 1.48c.127.007.255.01.385.01 1.859 0 3.392-.653 4.713-2.027C16.348 15.591 17 13.971 17 12c0-1.97-.652-3.591-1.98-4.973ZM8.181 20.739a8.511 8.511 0 0 0 2.124.261c2.41 0 4.462-.88 6.155-2.64C18.154 16.598 19 14.478 19 12c0-2.479-.846-4.599-2.54-6.36C14.769 3.88 12.718 3 10.307 3c-.738 0-1.446.087-2.124.261A8.041 8.041 0 0 0 6 4.183a8.45 8.45 0 0 1 1.723 1.35 8.853 8.853 0 0 1 1.425 1.925A9.226 9.226 0 0 1 10.306 12a9.226 9.226 0 0 1-1.158 4.542 8.854 8.854 0 0 1-1.425 1.926A8.45 8.45 0 0 1 6 19.817c.69.418 1.417.725 2.182.922Z" clip-rule="evenodd"/>
</svg>
