<svg width="24" height="24" fill="currentColor" viewBox="0 0 24 24">
  <path d="m3.563 18.563 1.78-1.829 1.407 1.407-1.781 1.828-1.407-1.407Zm7.453 3.89V19.5h1.968v2.953h-1.968ZM12 5.484c1.656 0 3.07.586 4.242 1.758C17.414 8.414 18 9.828 18 11.484c0 1.657-.586 3.07-1.758 4.243-1.172 1.171-2.586 1.757-4.242 1.757-1.656 0-3.07-.586-4.242-1.757C6.586 14.555 6 13.14 6 11.484c0-1.656.586-3.07 1.758-4.242C8.93 6.07 10.344 5.484 12 5.484Zm8.016 5.016h3v2.016h-3V10.5Zm-2.766 7.64 1.406-1.359 1.782 1.782-1.407 1.406-1.781-1.828Zm3.188-13.687-1.782 1.781-1.406-1.406 1.781-1.781 1.407 1.406ZM12.983.563v2.953h-1.968V.562h1.968Zm-9 9.937v2.016h-3V10.5h3ZM6.75 4.828 5.344 6.234l-1.782-1.78L4.97 3.046l1.78 1.782Z"/>
</svg>
