<svg width="24" height="24" viewBox="0 0 24 24" fill="none" xmlns="http://www.w3.org/2000/svg">
<path d="M10.3063 3C12.7167 3 14.7682 3.88028 16.4609 5.64085C18.1536 7.40141 19 9.52113 19 12C19 14.4789 18.1536 16.5986 16.4609 18.3592C14.7682 20.1197 12.7167 21 10.3063 21C8.73542 21 7.3 20.6056 6 19.8169C7.32708 19.0282 8.37656 17.9366 9.14844 16.5423C9.92031 15.1479 10.3063 13.6338 10.3063 12C10.3063 10.3662 9.92031 8.85211 9.14844 7.45775C8.37656 6.06338 7.32708 4.97183 6 4.1831C7.3 3.39437 8.73542 3 10.3063 3Z" fill="currentColor"/>
</svg>
