<svg width="24" height="24" viewBox="0 0 24 24" fill="none" xmlns="http://www.w3.org/2000/svg">
<path fill-rule="evenodd" clip-rule="evenodd" d="M11.4859 2.17528C11.5318 2.06891 11.6365 2 11.7523 2C12.701 2 13.4358 2.83007 13.3207 3.77173L13.0244 6.19678C12.8424 7.68667 14.005 9 15.506 9H17.9887C19.3526 9 20.3165 10.3352 19.887 11.6298L18.2282 16.6298C17.9568 17.4478 17.1918 18 16.3299 18H8.03626V10.1823L11.4859 2.17528ZM6.03626 9H6.36792L9.64916 1.38394C10.011 0.544071 10.8378 0 11.7523 0C13.9018 0 15.5667 1.88073 15.306 4.01431L15.0096 6.43936C14.9732 6.73733 15.2058 7 15.506 7H17.9887C20.7166 7 22.6442 9.67045 21.7852 12.2595L20.1264 17.2595C19.5836 18.8957 18.0537 20 16.3299 20H8.03626H6.03626H5.00733C3.35048 20 2.00733 18.6569 2.00733 17L2.00732 12C2.00732 10.3431 3.35047 9 5.00732 9H6.03626ZM6.03626 18H5.00733C4.45505 18 4.00733 17.5523 4.00733 17L4.00732 12C4.00732 11.4477 4.45504 11 5.00732 11H6.03626V18Z" fill="currentColor"/>
</svg>
