<svg width="24" height="24" viewBox="0 0 24 24" fill="currentColor">
<path fill-rule="evenodd" clip-rule="evenodd" d="M4.0022 9C2.89763 9 2.0022 9.89543 2.0022 11V18C2.0022 19.1046 2.89763 20 4.0022 20H5.01041V9H4.0022ZM7.01041 9V20H17.158C18.4761 20 19.6398 19.1396 20.0262 17.8794L21.8658 11.8794C22.4571 9.95084 21.0147 8 18.9976 8H14.8723C13.9212 8 13.2103 7.12629 13.4036 6.19511L14.0845 2.91495C14.3967 1.41106 13.2485 0 11.7125 0C11.23 0 10.7934 0.286463 10.6014 0.729179L7.01309 9H7.01041Z"/>
</svg>
