<svg width="24" height="24" viewBox="0 0 24 24" fill="none" xmlns="http://www.w3.org/2000/svg">
<path fill-rule="evenodd" clip-rule="evenodd" d="M19.9973 15C21.1019 15 21.9973 14.1046 21.9973 13L21.9973 6C21.9973 4.89543 21.1019 4 19.9973 4L18.9891 4L18.9891 15L19.9973 15ZM16.9891 15L16.9891 4L6.84155 4C5.52343 4 4.35971 4.86039 3.97333 6.12061L2.13373 12.1206C1.54244 14.0492 2.98479 16 5.00195 16L9.12725 16C10.0783 16 10.7892 16.8737 10.5959 17.8049L9.91499 21.0851C9.6028 22.5889 10.751 24 12.287 24C12.7695 24 13.2061 23.7135 13.3982 23.2708L16.9864 15L16.9891 15Z" fill="currentColor"/>
</svg>
