<svg width="24" height="24" viewBox="0 0 24 24" fill="none" xmlns="http://www.w3.org/2000/svg">
<path fill-rule="evenodd" clip-rule="evenodd" d="M12.5131 21.8247C12.4673 21.9311 12.3625 22 12.2467 22C11.298 22 10.5632 21.1699 10.6783 20.2283L10.9746 17.8032C11.1567 16.3133 9.99404 15 8.49307 15L6.0103 15C4.64638 15 3.68256 13.6648 4.11204 12.3702L5.77085 7.37023C6.04225 6.55217 6.8072 6 7.66911 6L15.9628 6L15.9628 13.8177L12.5131 21.8247ZM17.9628 15L17.6311 15L14.3499 22.6161C13.988 23.4559 13.1612 24 12.2467 24C10.0973 24 8.43236 22.1193 8.69306 19.9857L8.98938 17.5606C9.02579 17.2627 8.79326 17 8.49307 17L6.0103 17C3.28245 17 1.35482 14.3295 2.21378 11.7405L3.87259 6.74046C4.41539 5.10434 5.9453 4 7.66911 4L15.9628 4L17.9628 4L18.9917 4C20.6485 4 21.9917 5.34314 21.9917 7L21.9917 12C21.9917 13.6569 20.6486 15 18.9917 15L17.9628 15ZM17.9628 6L18.9917 6C19.544 6 19.9917 6.44771 19.9917 7L19.9917 12C19.9917 12.5523 19.544 13 18.9917 13L17.9628 13L17.9628 6Z" fill="currentColor"/>
</svg>
