<svg width="24" height="24" fill="currentColor" viewBox="0 0 24 24">
  <path d="m15.097 16-.931-3.346L17 10.424l-3.644-.193L12.02 7l-1.336 3.23L7 10.424l2.874 2.23L8.944 16l3.076-1.885L15.097 16Z"/>
  <path fill-rule="evenodd" d="M20.602 13.406c.39.406.851.61 1.382.61V18c0 .531-.195 1-.586 1.406-.39.407-.851.61-1.382.61H3.984c-.53 0-.992-.203-1.382-.61C2.21 19 2.016 18.531 2.016 18v-3.984c.562 0 1.03-.196 1.406-.586.375-.39.562-.867.562-1.43 0-.531-.195-1-.586-1.406-.39-.406-.851-.61-1.382-.61V6c0-.531.195-1 .586-1.406.39-.407.851-.61 1.382-.61h16.032c.53 0 .992.204 1.382.61.391.406.586.875.586 1.406v3.984c-.53 0-.992.204-1.382.61-.391.406-.586.875-.586 1.406 0 .531.195 1 .586 1.406ZM18.016 12c0 1.082.42 2.039 1.144 2.793.25.26.526.483.824.665v2.53a.428.428 0 0 1-.023.028H4.039a.404.404 0 0 1-.023-.027v-2.502a3.93 3.93 0 0 0 .849-.672A3.986 3.986 0 0 0 5.985 12c0-1.082-.42-2.039-1.145-2.792a4.131 4.131 0 0 0-.824-.666v-2.53a.406.406 0 0 1 .023-.028h15.922l.023.027v2.53a4.132 4.132 0 0 0-.824.667c-.725.753-1.144 1.71-1.144 2.792Z" clip-rule="evenodd"/>
</svg>
