<svg width="24" height="24" viewBox="0 0 24 24" fill="none" xmlns="http://www.w3.org/2000/svg">
<path d="M15.5625 16.7812L14.4844 12.7031L17.7656 9.98438L13.5469 9.75L12 5.8125L10.4531 9.75L6.1875 9.98438L9.51562 12.7031L8.4375 16.7812L12 14.4844L15.5625 16.7812ZM20.0156 12C20.0156 12.5312 20.2109 13 20.6016 13.4062C20.9922 13.8125 21.4531 14.0156 21.9844 14.0156V18C21.9844 18.5312 21.7891 19 21.3984 19.4062C21.0078 19.8125 20.5469 20.0156 20.0156 20.0156H3.98438C3.45312 20.0156 2.99219 19.8125 2.60156 19.4062C2.21094 19 2.01562 18.5312 2.01562 18V14.0156C2.57812 14.0156 3.04688 13.8203 3.42188 13.4297C3.79688 13.0391 3.98438 12.5625 3.98438 12C3.98438 11.4688 3.78906 11 3.39844 10.5938C3.00781 10.1875 2.54688 9.98438 2.01562 9.98438V6C2.01562 5.46875 2.21094 5 2.60156 4.59375C2.99219 4.1875 3.45312 3.98438 3.98438 3.98438H20.0156C20.5469 3.98438 21.0078 4.1875 21.3984 4.59375C21.7891 5 21.9844 5.46875 21.9844 6V9.98438C21.4531 9.98438 20.9922 10.1875 20.6016 10.5938C20.2109 11 20.0156 11.4688 20.0156 12Z" fill="currentColor"/>
</svg>
