<svg width="24" height="24" fill="currentColor" viewBox="0 0 24 24">
  <path fill-rule="evenodd" d="M20.602 13.406c-.391-.406-.586-.875-.586-1.406 0-.531.195-1 .586-1.406.39-.406.851-.61 1.382-.61V6c0-.531-.195-1-.586-1.406-.39-.407-.851-.61-1.382-.61H3.984c-.53 0-.992.204-1.382.61C2.21 5 2.016 5.469 2.016 6v3.984c.53 0 .992.204 1.382.61.391.406.586.875.586 1.406 0 .563-.187 1.04-.562 1.43-.375.39-.844.586-1.406.586V18c0 .531.195 1 .586 1.406.39.407.851.61 1.382.61h16.032c.53 0 .992-.203 1.382-.61.391-.406.586-.875.586-1.406v-3.984c-.53 0-.992-.204-1.382-.61ZM15.097 16l-.931-3.346L17 10.424l-3.644-.193L12.02 7l-1.336 3.23L7 10.424l2.874 2.23L8.944 16l3.076-1.885L15.097 16Z" clip-rule="evenodd"/>
</svg>
