<svg width="24" height="24" viewBox="0 0 24 24" fill="none" xmlns="http://www.w3.org/2000/svg">
<path d="M15.8906 17.0156H19.125L17.4844 12.6562L15.8906 17.0156ZM18.5156 9.98438L23.0156 21.9844H21L19.875 18.9844H15.1406L14.0156 21.9844H12L16.5 9.98438H18.5156ZM12.8906 15.0469L12.0938 17.1094L9 14.0156L3.98438 18.9844L2.57812 17.5781L7.6875 12.5625C6.4375 11.1875 5.4375 9.67188 4.6875 8.01562H6.70312C7.35938 9.26562 8.125 10.375 9 11.3438C10.4375 9.75 11.5 7.96875 12.1875 6H0.984375V3.98438H8.01562V2.01562H9.98438V3.98438H17.0156V6H14.0625C13.75 7 13.2344 8.13281 12.5156 9.39844C11.7969 10.6641 11.0781 11.7031 10.3594 12.5156L10.3125 12.5625L12.8906 15.0469Z" fill="currentColor"/>
</svg>
