<svg width="24" height="24" viewBox="0 0 24 24" fill="currentColor">
<path fill-rule="evenodd" clip-rule="evenodd" d="M4.93 4.93C4.92999 4.93001 4.92998 4.93002 4.92997 4.93003L3.51465 3.51471L2.10043 4.92892L3.65771 6.4862C2.61021 8.06719 2 9.96277 2 12C2 17.52 6.48 22 12 22C14.0372 22 15.9328 21.3898 17.5138 20.3423L19.071 21.8995L20.4852 20.4853L19.07 19.07C19.07 19.07 19.07 19.07 19.07 19.07L17.0903 17.0903C17.0903 17.0903 17.0903 17.0903 17.0903 17.0904L12.9674 12.9674C12.9674 12.9675 12.9674 12.9675 12.9675 12.9675L10.7108 10.7108C10.7108 10.7108 10.7108 10.7108 10.7107 10.7108L9.28922 9.28928C9.2892 9.28924 9.28918 9.2892 9.28916 9.28915L4.93 4.93ZM6.48616 3.65773L9.37406 6.54563C9.88503 5.62299 10.8681 5 12 5C13.66 5 15 6.34 15 8C15 9.13187 14.377 10.115 13.4544 10.6259L20.3423 17.5138C21.3898 15.9328 22 14.0372 22 12C22 6.48 17.52 2 12 2C9.96275 2 8.06716 2.61022 6.48616 3.65773ZM6 15.98C6.02266 14.4769 8.29301 13.4873 10.2645 13.093L15.4765 18.305C14.4449 18.8752 13.2592 19.2 12 19.2C9.5 19.2 7.29 17.92 6 15.98Z"/>
</svg>
