<svg width="24" height="24" viewBox="0 0 24 24" fill="currentColor">
<path fill-rule="evenodd" clip-rule="evenodd" d="M5 2C3.34315 2 2 3.34315 2 5V19C2 20.6569 3.34315 22 5 22H19C20.6569 22 22 20.6569 22 19V5C22 3.34315 20.6569 2 19 2H5ZM5.5 11C6.15311 11 6.70873 10.5826 6.91465 10H10V10.2918C9.77018 10.3603 9.54361 10.4407 9.32122 10.5328C8.47194 10.8846 7.70026 11.4002 7.05025 12.0503C6.40024 12.7003 5.88463 13.4719 5.53284 14.3212C5.18106 15.1705 5 16.0807 5 17H6.53244C6.53244 16.282 6.67387 15.571 6.94864 14.9077C7.22341 14.2443 7.62614 13.6416 8.13385 13.1339C8.64156 12.6261 9.2443 12.2234 9.90766 11.9486C9.93834 11.9359 9.96912 11.9235 10 11.9114V12H14V11.9114C14.0309 11.9235 14.0617 11.9359 14.0923 11.9486C14.7557 12.2234 15.3584 12.6261 15.8661 13.1339C16.3739 13.6416 16.7766 14.2443 17.0514 14.9077C17.3261 15.571 17.4676 16.282 17.4676 17H19C19 16.0807 18.8189 15.1705 18.4672 14.3212C18.1154 13.4719 17.5998 12.7003 16.9497 12.0503C16.2997 11.4002 15.5281 10.8846 14.6788 10.5328C14.4564 10.4407 14.2298 10.3603 14 10.2918V10H17.0854C17.2913 10.5826 17.8469 11 18.5 11C19.3284 11 20 10.3284 20 9.5C20 8.67157 19.3284 8 18.5 8C17.8469 8 17.2913 8.4174 17.0854 9H14V8H10V9H6.91465C6.70873 8.4174 6.15311 8 5.5 8C4.67157 8 4 8.67157 4 9.5C4 10.3284 4.67157 11 5.5 11ZM11 9H13V11H11V9Z"/>
</svg>
