<svg width="24" height="24" viewBox="0 0 24 24" fill="currentColor">
<path fill-rule="evenodd" clip-rule="evenodd" d="M19.1538 14.1916C18.1808 14.6983 17.023 15.1829 15.7106 15.5226L16.4671 18.3461L14.5353 18.8637L13.74 15.8955C13.1803 15.9628 12.5997 16 12.0001 16C11.3963 16 10.8161 15.9623 10.2604 15.8941L9.46472 18.8637L7.53287 18.3461L8.29316 15.5086C7.00186 15.1587 5.88644 14.6596 4.96331 14.1389L3.26849 16.4739L1.6499 15.2991L3.28979 13.0398C2.9697 12.7968 2.69799 12.5694 2.47637 12.3724C2.24718 12.1687 2.07068 11.9967 1.94877 11.8726C1.88779 11.8105 1.84038 11.7603 1.80678 11.724C1.78998 11.7058 1.77662 11.6911 1.76674 11.6801L1.75452 11.6664L1.75037 11.6617L1.74879 11.6599L1.74812 11.6592C1.74812 11.6592 1.74753 11.6585 2.50011 11C3.25268 10.3415 3.25218 10.3409 3.25218 10.3409L3.25392 10.3428L3.27498 10.3659C3.29558 10.3882 3.32923 10.4239 3.37567 10.4712C3.4686 10.5658 3.61241 10.7063 3.8051 10.8776C4.19102 11.2206 4.76946 11.6839 5.52421 12.1483C7.03396 13.0774 9.22929 14 12.0001 14C14.7763 14 17.105 13.074 18.754 12.1318C19.5764 11.6618 20.221 11.1926 20.6567 10.8441C20.8742 10.6701 21.0387 10.5269 21.1462 10.4298C21.2 10.3812 21.2394 10.3443 21.2641 10.3208L21.2898 10.296L21.2935 10.2924C21.2935 10.2924 21.293 10.2929 22.0001 11C22.7072 11.7071 22.7066 11.7077 22.7066 11.7077L22.7044 11.7099L22.7001 11.7142L22.6871 11.727C22.6764 11.7374 22.6618 11.7515 22.6434 11.7691C22.6065 11.8042 22.5541 11.8531 22.4868 11.914C22.3522 12.0356 22.1573 12.2049 21.9061 12.4059C21.629 12.6275 21.2824 12.8885 20.8714 13.167L22.253 15.4677L20.5384 16.4974L19.1538 14.1916Z"/>
</svg>
