<svg width="24" height="24" viewBox="0 0 24 24" fill="currentColor">
<path fill-rule="evenodd" clip-rule="evenodd" d="M3.41421 3.41431L2 4.82852L4.53782 7.36635C3.32494 8.58179 2.15942 10.1264 1 12C4.30013 17.3332 7.64975 20 12 20C13.5099 20 14.8992 19.6788 16.2078 19.0363L18.9706 21.7991L20.3848 20.3849L3.41421 3.41431ZM14.62 17.4486L13.036 15.8645C12.7056 15.9529 12.3583 16 12 16C9.791 16 8 14.209 8 12C8 11.6417 8.04712 11.2944 8.13549 10.964L6.06718 8.8957C5.18552 9.77016 4.33191 10.8169 3.5 12C6.06508 15.6479 8.83658 18 12 18C12.9039 18 13.7758 17.808 14.62 17.4486Z"/>
<path d="M10.9638 8.13556L15.8645 13.0362C15.9529 12.7057 16 12.3584 16 12C16 9.79103 14.209 8.00003 12 8.00003C11.6417 8.00003 11.2943 8.04716 10.9638 8.13556Z"/>
<path d="M20.5 12C19.6681 13.1832 18.8144 14.23 17.9327 15.1045L19.4621 16.6338C20.675 15.4183 21.8406 13.8737 23 12C19.6999 6.66689 16.3503 4.00003 12 4.00003C10.4901 4.00003 9.10071 4.32131 7.79211 4.96383L9.37983 6.55156C10.2241 6.19209 11.0961 6.00003 12 6.00003C15.1634 6.00003 17.9349 8.35214 20.5 12Z"/>
</svg>
