<svg width="24" height="24" viewBox="0 0 24 24" fill="none" xmlns="http://www.w3.org/2000/svg">
<path fill-rule="evenodd" clip-rule="evenodd" d="M1 12C4.30013 6.66686 7.64975 4 12 4C16.3503 4 19.6999 6.66686 23 12C19.6999 17.3331 16.3503 20 12 20C7.64975 20 4.30013 17.3331 1 12ZM3.5 12C6.06508 15.6479 8.83658 18 12 18C15.1634 18 17.9349 15.6479 20.5 12C17.9349 8.35211 15.1634 6 12 6C8.83658 6 6.06508 8.35211 3.5 12ZM12 16C14.209 16 16 14.209 16 12C16 9.791 14.209 8 12 8C9.791 8 8 9.791 8 12C8 14.209 9.791 16 12 16Z" fill="currentColor"/>
</svg>
