<svg width="24" height="24" fill="currentColor" viewBox="0 0 24 24">
    <path d="M7 21c-1.383 0-2.563-.488-3.538-1.462C2.487 18.562 2 17.383 2 16c0-1.217.38-2.28 1.138-3.188A4.9 4.9 0 0 1 6 11.1v2.075a2.91 2.91 0 0 0-1.438 1.075A2.906 2.906 0 0 0 4 16c0 .833.292 1.542.875 2.125A2.893 2.893 0 0 0 7 19c.833 0 1.542-.292 2.125-.875A2.893 2.893 0 0 0 10 16v-1h5.875c.133-.15.296-.27.488-.363.191-.091.404-.137.637-.137.417 0 .77.146 1.063.438.291.291.437.645.437 1.062 0 .417-.146.77-.438 1.063A1.446 1.446 0 0 1 17 17.5c-.233 0-.446-.046-.637-.137a1.522 1.522 0 0 1-.488-.363H11.9a4.9 4.9 0 0 1-1.713 2.863C9.28 20.62 8.217 21 7 21Zm10 0c-.933 0-1.78-.23-2.537-.688a5.033 5.033 0 0 1-1.788-1.812h2.675c.233.167.492.292.775.375.283.083.575.125.875.125.833 0 1.542-.292 2.125-.875A2.893 2.893 0 0 0 20 16c0-.833-.292-1.542-.875-2.125A2.893 2.893 0 0 0 17 13a3.01 3.01 0 0 0-.925.137c-.283.092-.55.23-.8.413l-3.05-5.075a1.505 1.505 0 0 1-.875-.5A1.429 1.429 0 0 1 11 7c0-.417.146-.77.438-1.063A1.447 1.447 0 0 1 12.5 5.5c.417 0 .77.146 1.063.438.291.291.437.645.437 1.062v.213a.597.597 0 0 1-.05.212l2.175 3.65a2.35 2.35 0 0 1 .425-.063c.15-.008.3-.012.45-.012 1.383 0 2.563.488 3.538 1.463C21.512 13.438 22 14.617 22 16s-.488 2.563-1.462 3.538C19.562 20.512 18.383 21 17 21ZM7 17.5c-.417 0-.77-.146-1.063-.438A1.447 1.447 0 0 1 5.5 16c0-.367.117-.683.35-.95a1.63 1.63 0 0 1 .85-.525l2.35-3.9a4.838 4.838 0 0 1-1.138-1.613A4.941 4.941 0 0 1 7.5 7c0-1.383.487-2.563 1.463-3.538C9.938 2.487 11.117 2 12.5 2s2.563.487 3.538 1.462C17.012 4.438 17.5 5.617 17.5 7h-2c0-.833-.292-1.542-.875-2.125A2.893 2.893 0 0 0 12.5 4c-.833 0-1.542.292-2.125.875A2.893 2.893 0 0 0 9.5 7c0 .717.217 1.346.65 1.887a2.86 2.86 0 0 0 1.65 1.038L8.425 15.55a.924.924 0 0 1 .063.225c.008.067.012.142.012.225 0 .417-.146.77-.438 1.063A1.446 1.446 0 0 1 7 17.5Z"/>
</svg>
