<svg width="24" height="24" fill="currentColor" viewBox="0 0 24 24">
  <path d="M.965 17.557c.066-.107.172-.115.32-.02 3.357 1.947 7.01 2.922 10.958 2.922 2.633 0 5.232-.492 7.797-1.472l.29-.13c.128-.055.217-.092.271-.12.209-.08.36-.042.485.12.11.161.083.31-.11.444-.237.175-.555.378-.93.603-1.148.686-2.436 1.215-3.863 1.594a16.265 16.265 0 0 1-10.108-.533 16.506 16.506 0 0 1-5.012-3.092c-.093-.069-.139-.139-.139-.203 0-.044.019-.084.04-.113Zm6.06-5.74c0-.928.228-1.72.686-2.379.456-.655 1.08-1.153 1.883-1.49.734-.31 1.62-.531 2.688-.665.36-.042.953-.095 1.772-.16V6.78c0-.859-.097-1.438-.277-1.73-.279-.398-.72-.6-1.33-.6h-.167a2.21 2.21 0 0 0-1.15.424 1.67 1.67 0 0 0-.623 1.011c-.056.277-.19.43-.402.471l-2.326-.29c-.229-.056-.344-.167-.344-.36 0-.043.007-.084.02-.139.229-1.19.79-2.077 1.68-2.658.902-.57 1.94-.9 3.13-.97h.498c1.524 0 2.73.4 3.59 1.191.124.139.249.277.373.443.111.152.207.29.262.416.069.123.138.304.18.526.055.234.096.387.124.47.028.096.057.277.07.568.01.29.019.455.019.51v4.874c0 .348.055.665.152.957.097.289.194.498.29.622l.472.622c.083.126.125.236.125.332 0 .111-.055.209-.166.29-1.108.97-1.717 1.496-1.812 1.579-.152.124-.346.138-.582.041a5.59 5.59 0 0 1-.485-.458l-.286-.32a8.698 8.698 0 0 1-.293-.388l-.277-.401c-.748.818-1.48 1.33-2.215 1.537-.456.138-1.01.21-1.69.21-1.024 0-1.883-.317-2.547-.955-.665-.637-.997-1.537-.997-2.714l-.045-.075Zm3.464-.404c0 .522.13.941.392 1.259.263.314.623.473 1.066.473.042 0 .098-.007.18-.019a.99.99 0 0 1 .154-.021c.566-.148.997-.51 1.314-1.088.152-.258.263-.535.332-.84.084-.295.111-.544.125-.738.014-.18.014-.498.014-.928v-.498c-.775 0-1.37.055-1.772.166-1.177.332-1.773 1.08-1.773 2.243l-.032-.01Zm8.457 6.486a.67.67 0 0 1 .122-.157c.334-.224.66-.378.97-.461a7.475 7.475 0 0 1 1.487-.222c.13-.01.259 0 .379.028.6.055.969.155 1.082.305.058.083.083.21.083.36v.138c0 .47-.13 1.025-.383 1.662-.257.637-.613 1.152-1.067 1.55-.068.056-.13.084-.182.084-.028 0-.056 0-.083-.012-.083-.04-.1-.11-.06-.221.499-1.163.744-1.978.744-2.437 0-.138-.027-.25-.08-.317-.134-.154-.507-.238-1.13-.238a9.28 9.28 0 0 0-.803.043c-.335.041-.646.083-.923.124-.083 0-.136-.013-.166-.04-.028-.028-.033-.044-.018-.071 0-.016.005-.028.018-.058l.01-.06Z"/>
</svg>
