<svg xmlns="http://www.w3.org/2000/svg" width="24" height="24" fill="currentColor" viewBox="0 0 24 24">
  <path d="M7.966 21.614a4.44 4.44 0 0 1-1.022-.957 12.833 12.833 0 0 1-.873-1.211 11.786 11.786 0 0 1-1.461-3.029C4.2 15.167 4 13.97 4 12.797c0-1.308.28-2.449.822-3.406a4.784 4.784 0 0 1 1.724-1.818 4.548 4.548 0 0 1 2.331-.7c.288 0 .6.042.928.126.238.066.525.175.878.308.452.175.698.283.78.308.263.1.484.142.657.142.131 0 .32-.042.53-.109.118-.041.344-.116.664-.258.317-.116.568-.216.768-.291.303-.092.597-.175.861-.217.32-.05.638-.066.943-.041a5.52 5.52 0 0 1 1.592.35 4.307 4.307 0 0 1 2.017 1.632c-.213.133-.41.288-.595.458a5.09 5.09 0 0 0-1.01 1.253 4.296 4.296 0 0 0-.528 2.099c.012.902.238 1.695.69 2.382.317.5.741.928 1.259 1.28.254.174.477.295.689.374-.099.312-.207.616-.332.916a11.876 11.876 0 0 1-1.026 1.924 17 17 0 0 1-.846 1.174c-.33.4-.648.7-.969.914a2.135 2.135 0 0 1-1.192.363 2.606 2.606 0 0 1-.848-.106 8.14 8.14 0 0 1-.703-.269 5.658 5.658 0 0 0-.743-.283 3.78 3.78 0 0 0-1.908-.002 5.85 5.85 0 0 0-.744.271c-.345.146-.57.242-.702.283a3.62 3.62 0 0 1-.812.146c-.427 0-.825-.125-1.21-.386ZM13.592 6.24c-.559.283-1.089.403-1.62.363-.082-.538 0-1.09.222-1.696a4.6 4.6 0 0 1 .82-1.4 4.448 4.448 0 0 1 1.339-1.049c.541-.283 1.059-.433 1.551-.458.066.566 0 1.124-.205 1.724a4.966 4.966 0 0 1-.821 1.466 4.29 4.29 0 0 1-1.286 1.05Z"/>
</svg>
