<svg xmlns="http://www.w3.org/2000/svg" width="24" height="24" fill="currentColor" viewBox="0 0 24 24">
  <path d="M7.784 6c.585 0 1.117.048 1.6.15.482.104.893.264 1.239.488.341.225.61.52.8.897.187.376.283.84.283 1.384 0 .592-.141 1.088-.422 1.488-.282.4-.698.72-1.253.976.756.208 1.314.576 1.686 1.096.373.528.554 1.16.554 1.889 0 .6-.108 1.112-.341 1.544-.234.44-.559.8-.967 1.08-.4.278-.876.48-1.393.613a6.335 6.335 0 0 1-1.592.204H2V6.006h5.784V6Zm8.338 9.73c.367.343.895.515 1.579.515.492 0 .917-.118 1.276-.357.353-.232.566-.488.65-.752h2.157c-.336 1.024-.873 1.76-1.584 2.2-.708.448-1.57.664-2.567.664-.698 0-1.32-.104-1.894-.32a4.142 4.142 0 0 1-1.434-.912 4.054 4.054 0 0 1-.898-1.416 5.057 5.057 0 0 1-.311-1.817c0-.642.112-1.232.336-1.784.225-.56.537-1.024.934-1.432a4.541 4.541 0 0 1 1.447-.955c.56-.24 1.167-.347 1.85-.347.76 0 1.41.131 1.985.419a3.964 3.964 0 0 1 1.384 1.12c.366.469.625 1.008.783 1.616.159.6.208 1.232.175 1.904h-6.41c0 .672.233 1.306.591 1.652l-.066.024.017-.021Zm-8.537.04c.265 0 .517-.023.756-.073.242-.048.457-.132.636-.24a1.21 1.21 0 0 0 .433-.467c.109-.192.159-.456.159-.768 0-.6-.184-1.032-.534-1.296-.358-.256-.825-.384-1.409-.384H4.701v3.24h2.884v-.011Zm11.344-4.52c-.293-.308-.784-.473-1.381-.473-.39 0-.713.059-.972.19a1.78 1.78 0 0 0-.617.472 1.644 1.644 0 0 0-.327.6c-.063.208-.1.4-.113.568h3.97c-.058-.6-.275-1.04-.567-1.352l.007-.005Zm-11.494-.492c.479 0 .876-.107 1.188-.33.312-.215.462-.575.462-1.07 0-.275-.058-.5-.15-.677a1.194 1.194 0 0 0-.417-.41 1.813 1.813 0 0 0-.6-.205 3.84 3.84 0 0 0-.7-.06H4.693v2.753h2.742Zm7.585-3.967h4.975v1.164H15.02V6.782v.01Z"/>
</svg>
