<svg width="24" height="24" fill="currentColor" viewBox="0 0 24 24">
    <path d="M15.097 4c-.215.366-.408.745-.583 1.132a17.713 17.713 0 0 0-5.037 0A11.133 11.133 0 0 0 8.893 4a18.908 18.908 0 0 0-4.54 1.343c-2.87 4.079-3.647 8.052-3.26 11.971a18.556 18.556 0 0 0 5.567 2.682c.452-.581.851-1.2 1.193-1.844a12.3 12.3 0 0 1-1.877-.859c.157-.11.311-.223.46-.332a13.574 13.574 0 0 0 11.131 0c.15.118.303.231.46.332a12.18 12.18 0 0 1-1.881.863c.342.644.741 1.263 1.193 1.844a18.548 18.548 0 0 0 5.568-2.677c.456-4.546-.781-8.486-3.27-11.976a18.617 18.617 0 0 0-4.536-1.339L15.097 4ZM8.345 14.902c-1.084 0-1.983-.942-1.983-2.108 0-1.167.864-2.114 1.978-2.114 1.115 0 2.001.952 1.983 2.114-.017 1.161-.873 2.108-1.978 2.108Zm7.31 0c-1.089 0-1.98-.942-1.98-2.108 0-1.167.865-2.114 1.98-2.114 1.114 0 1.996.952 1.978 2.114-.018 1.161-.873 2.108-1.979 2.108Z"/>
</svg>
