<svg width="24" height="24" viewBox="0 0 24 24" fill="none" xmlns="http://www.w3.org/2000/svg">
<path fill-rule="evenodd" clip-rule="evenodd" d="M7 16C9.20914 16 11 14.2091 11 12C11 9.79086 9.20914 8 7 8C4.79086 8 3 9.79086 3 12C3 14.2091 4.79086 16 7 16ZM19 12C19 13.1046 18.1046 14 17 14C15.8954 14 15 13.1046 15 12C15 10.8954 15.8954 10 17 10C18.1046 10 19 10.8954 19 12ZM21 12C21 14.2091 19.2091 16 17 16C14.7909 16 13 14.2091 13 12C13 9.79086 14.7909 8 17 8C19.2091 8 21 9.79086 21 12Z" fill="currentColor"/>
</svg>
