<svg xmlns="http://www.w3.org/2000/svg" width="24" height="24" fill="currentColor" viewBox="0 0 24 24">
  <path d="M12 1.272c-6.077 0-11 4.925-11 11 0 4.861 3.152 8.984 7.521 10.437.55.103.752-.237.752-.53 0-.26-.01-.953-.014-1.87-3.06.664-3.705-1.475-3.705-1.475-.5-1.27-1.224-1.609-1.224-1.609-.996-.682.077-.668.077-.668 1.105.077 1.685 1.133 1.685 1.133.98 1.682 2.575 1.196 3.204.915.099-.712.382-1.197.697-1.472-2.443-.275-5.011-1.22-5.011-5.435 0-1.201.426-2.182 1.132-2.952-.124-.278-.495-1.396.096-2.912 0 0 .922-.295 3.025 1.128.88-.245 1.815-.366 2.75-.371.935.005 1.87.126 2.75.371 2.09-1.423 3.012-1.128 3.012-1.128.59 1.516.22 2.634.11 2.912.7.77 1.127 1.75 1.127 2.951 0 4.226-2.571 5.157-5.019 5.427.385.33.743 1.005.743 2.035 0 1.472-.014 2.655-.014 3.012 0 .29.193.633.756.523A10.962 10.962 0 0 0 23 12.272c0-6.075-4.925-11-11-11Z"/>
</svg>
