<svg xmlns="http://www.w3.org/2000/svg" width="24" height="24" fill="currentColor" viewBox="0 0 24 24">
  <path d="M15.705 7.913a5.041 5.041 0 0 0-3.523-1.35c-2.395 0-4.428 1.582-5.155 3.715a5.29 5.29 0 0 0 0 3.445c.727 2.132 2.76 3.715 5.155 3.715 1.241 0 2.302-.313 3.126-.86v-.002a4.21 4.21 0 0 0 1.203-1.183c.315-.47.53-.998.631-1.552h-4.96v-3.466h8.66c.106.605.159 1.217.158 1.83 0 2.739-.999 5.055-2.732 6.621h-.002l.002.002C16.747 20.203 14.66 21 12.182 21a9.322 9.322 0 0 1-4.82-1.34 9.07 9.07 0 0 1-3.384-3.619A8.854 8.854 0 0 1 3 12.001c0-1.404.335-2.788.978-4.042A9.07 9.07 0 0 1 7.363 4.34 9.322 9.322 0 0 1 12.183 3a8.923 8.923 0 0 1 6.143 2.344l-2.621 2.569Z"/>
</svg>
