<svg width="24" height="24" fill="currentColor" viewBox="0 0 24 24">
  <path d="M17.384 8.27V5.66a2.027 2.027 0 0 0 1.105-1.813v-.062c-.003-1.108-.858-2.006-1.914-2.01h-.059c-1.056.003-1.911.9-1.915 2.01v.06a2.024 2.024 0 0 0 1.082 1.804l.012.006.011.005v2.615a5.308 5.308 0 0 0-2.603 1.209l.01-.009.01-.008L6.289 3.88a2.34 2.34 0 0 0 .073-.59C6.361 2.025 5.385 1 4.181 1 2.976 1 2 2.025 2 3.29c0 1.263.976 2.288 2.18 2.288a2.09 2.09 0 0 0 1.107-.316l-.01.006-.01.005 6.72 5.492a5.81 5.81 0 0 0-.906 3.142v.018c0 1.23.371 2.372 1.002 3.305l-.012-.017-2.045 2.147a1.606 1.606 0 0 0-.505-.087h-.003c-.98 0-1.775.834-1.775 1.863 0 1.03.794 1.864 1.775 1.864.98 0 1.775-.834 1.775-1.864a1.894 1.894 0 0 0-.09-.558l.004.013.003.013 2.024-2.124a5.255 5.255 0 0 0 3.31 1.175c3.014 0 5.456-2.564 5.456-5.727 0-2.842-1.972-5.2-4.558-5.65l-.032-.004-.026-.005Zm-.842 8.595c-1.544-.004-2.793-1.318-2.793-2.939 0-1.623 1.253-2.939 2.8-2.939 1.546 0 2.8 1.316 2.8 2.94v.001c-.002 1.622-1.255 2.937-2.8 2.937h-.008Z"/>
</svg>
