<svg width="24" height="24" fill="currentColor" viewBox="0 0 24 24">
    <path d="M12 2.04c5.61 0 9.96 4.11 9.96 9.661 0 5.552-4.35 9.661-9.96 9.661a10.87 10.87 0 0 1-2.884-.382.793.793 0 0 0-.531.039l-1.977.873a.797.797 0 0 1-1.118-.706l-.054-1.771a.795.795 0 0 0-.268-.568C3.23 17.114 2.04 14.605 2.04 11.7c0-5.55 4.35-9.66 9.96-9.66Zm6.172 7.083c.348-.539-.297-1.165-.825-.8l-3.62 2.495a.367.367 0 0 1-.408.006l-3.213-2.078a.586.586 0 0 0-.81.174l-3.469 5.36c-.348.538.298 1.165.826.8l3.62-2.497a.367.367 0 0 1 .408-.006l3.213 2.078a.586.586 0 0 0 .81-.174v.001l3.468-5.359Z"/>
</svg>
