<svg xmlns="http://www.w3.org/2000/svg" width="24" height="24" fill="currentColor" viewBox="0 0 24 24">
  <path fill-rule="evenodd" d="M18.005 3.508C17.07 2.452 15.384 2 13.225 2H6.96a.896.896 0 0 0-.886.75L3.465 19.165a.535.535 0 0 0 .532.617h3.867l.972-6.112-.03.19a.893.893 0 0 1 .883-.75h1.838c3.61 0 6.438-1.455 7.263-5.663.025-.125.065-.365.065-.365.234-1.557-.002-2.614-.85-3.573Zm1.829 4.37c-.899 4.144-3.763 6.337-8.307 6.337H9.878L8.65 22h2.673a.783.783 0 0 0 .775-.657l.032-.165.615-3.864.04-.213a.782.782 0 0 1 .774-.656h.488c3.158 0 5.631-1.274 6.354-4.955.29-1.477.15-2.716-.566-3.612Z" clip-rule="evenodd"/>
</svg>
