<svg xmlns="http://www.w3.org/2000/svg" width="24" height="24" fill="currentColor" viewBox="0 0 24 24">
  <path d="M5 9.175C5 4.74 8.96 2 12.969 2 16.649 2 20 4.596 20 8.575c0 3.738-1.863 7.884-6.012 7.884-.984 0-2.226-.505-2.707-1.442-.89 3.618-.82 4.159-2.789 6.923l-.164.06-.105-.12c-.07-.757-.176-1.503-.176-2.26 0-2.452 1.101-5.997 1.64-8.377-.292-.613-.374-1.358-.374-2.031 0-1.214.82-2.753 2.156-2.753.984 0 1.511.77 1.511 1.719 0 1.562-1.03 3.029-1.03 4.543 0 1.034.831 1.755 1.804 1.755 2.695 0 3.527-3.99 3.527-6.118 0-2.848-1.968-4.399-4.629-4.399-3.093 0-5.484 2.284-5.484 5.505 0 1.55.926 2.344.926 2.716 0 .313-.223 1.419-.61 1.419-.058 0-.14-.024-.199-.037C5.61 13.046 5 10.75 5 9.175Z"/>
</svg>
