<svg width="24" height="24" fill="currentColor" viewBox="0 0 24 24">
    <path d="M14.797 4.782a2.286 2.286 0 0 0 2.229 1.74c1.265 0 2.29-1.012 2.29-2.26 0-1.25-1.025-2.262-2.29-2.262a2.284 2.284 0 0 0-2.243 1.803C12.931 4 11.485 5.55 11.485 7.43v.012c-2.015.083-3.854.65-5.314 1.543a3.22 3.22 0 0 0-1.962-.661C2.437 8.324 1 9.742 1 11.493c0 1.27.756 2.364 1.848 2.87C2.954 18.04 7.014 21 12.008 21c4.993 0 9.058-2.962 9.16-6.644A3.167 3.167 0 0 0 23 11.494c0-1.75-1.437-3.17-3.21-3.17-.735 0-1.412.246-1.953.657-1.474-.9-3.333-1.466-5.368-1.541v-.01c0-1.346 1.014-2.464 2.328-2.647v-.002Zm-8.755 8.722c.054-1.15.827-2.032 1.726-2.032.898 0 1.585.932 1.532 2.082-.054 1.149-.725 1.566-1.625 1.566s-1.687-.467-1.633-1.616Zm10.207-2.032c.9 0 1.672.883 1.725 2.032.054 1.149-.734 1.616-1.633 1.616s-1.57-.416-1.625-1.566c-.053-1.15.633-2.082 1.533-2.082Zm-1.07 4.69a.25.25 0 0 1 .21.345 3.666 3.666 0 0 1-3.381 2.222 3.667 3.667 0 0 1-3.383-2.222.251.251 0 0 1 .21-.345 32.115 32.115 0 0 1 3.172-.152c1.116 0 2.183.054 3.172.152Z"/>
</svg>
