<svg width="24" height="24" fill="currentColor" viewBox="0 0 24 24">
    <path d="M9.23 12.564a2.208 2.208 0 0 1 2.205 2.206v5.524A2.207 2.207 0 0 1 9.23 22.5a2.206 2.206 0 0 1-2.206-2.206V14.77a2.206 2.206 0 0 1 2.206-2.206Zm5.54 5.524a2.206 2.206 0 1 1-2.208 2.206v-2.206h2.208Zm5.524-5.524A2.208 2.208 0 0 1 22.5 14.77a2.206 2.206 0 0 1-2.206 2.206H14.77a2.206 2.206 0 0 1 0-4.412h5.524ZM5.912 14.77a2.206 2.206 0 1 1-2.206-2.208h2.206v2.208ZM19.45 7.193a2.207 2.207 0 1 1 .844 4.244h-2.206V9.23a2.207 2.207 0 0 1 1.363-2.036ZM9.23 7.024a2.207 2.207 0 0 1 1.56 3.766 2.207 2.207 0 0 1-1.56.645H3.705a2.206 2.206 0 1 1 0-4.41h5.523ZM14.77 1.5a2.206 2.206 0 0 1 2.206 2.206v5.523a2.208 2.208 0 0 1-2.206 2.206 2.206 2.206 0 0 1-2.206-2.206V3.706A2.206 2.206 0 0 1 14.77 1.5Zm-5.969.042a2.208 2.208 0 0 1 2.636 2.164v2.206H9.23a2.206 2.206 0 0 1-.428-4.37Z"/>
</svg>
