<svg width="24" height="24" fill="currentColor" viewBox="0 0 24 24">
  <path d="M12.454 2.017C13.584 2 14.707 2.008 15.829 2c.07 1.275.544 2.575 1.51 3.475.968.925 2.332 1.35 3.661 1.492v3.358c-1.243-.042-2.495-.292-3.626-.808-.492-.217-.95-.492-1.398-.775-.009 2.433.008 4.866-.018 7.291a6.223 6.223 0 0 1-1.165 3.284c-1.13 1.6-3.09 2.641-5.102 2.674-1.234.067-2.469-.258-3.522-.858-1.744-.992-2.97-2.808-3.151-4.758a14.918 14.918 0 0 1-.009-1.242A6.188 6.188 0 0 1 5.237 11c1.433-1.2 3.435-1.775 5.309-1.433.017 1.233-.035 2.466-.035 3.7-.854-.267-1.856-.192-2.607.308a2.91 2.91 0 0 0-1.174 1.458c-.181.425-.13.892-.12 1.342.206 1.366 1.57 2.517 3.02 2.392.968-.009 1.891-.55 2.392-1.342.164-.275.345-.559.354-.884.086-1.491.052-2.975.06-4.466.009-3.358-.008-6.708.018-10.058Z"/>
</svg>
