<svg width="24" height="24" fill="currentColor" viewBox="0 0 24 24">
  <path d="M19.945 7.99A8.117 8.117 0 0 0 22 5.895v-.001a8.668 8.668 0 0 1-2.363.637c.85-.5 1.5-1.285 1.805-2.23a8.282 8.282 0 0 1-2.6.977A4.137 4.137 0 0 0 15.847 4c-2.27 0-4.098 1.814-4.098 4.038 0 .32.028.627.095.92a11.67 11.67 0 0 1-8.451-4.223 4.024 4.024 0 0 0-.562 2.04c0 1.399.73 2.638 1.821 3.356A4.101 4.101 0 0 1 2.8 9.634v.044c0 1.962 1.42 3.591 3.285 3.967-.334.09-.697.133-1.075.133a3.67 3.67 0 0 1-.776-.069 4.133 4.133 0 0 0 3.831 2.813 8.324 8.324 0 0 1-5.084 1.721A7.72 7.72 0 0 1 2 18.188 11.678 11.678 0 0 0 8.29 20c7.236 0 11.952-5.944 11.655-12.01Z"/>
</svg>
