<svg width="24" height="24" fill="currentColor" viewBox="0 0 24 24">
    <path d="M16.56 13.985c-.247-.124-1.465-.723-1.692-.806-.227-.082-.392-.123-.558.125-.164.248-.64.805-.783.97-.144.166-.29.186-.537.063-.247-.125-1.046-.386-1.992-1.23-.735-.656-1.233-1.467-1.377-1.715-.144-.248-.015-.382.108-.505.112-.111.249-.29.372-.434.124-.145.165-.248.248-.414.083-.165.042-.309-.02-.433-.063-.124-.558-1.344-.764-1.84-.202-.482-.406-.416-.557-.424a10.19 10.19 0 0 0-.475-.009.907.907 0 0 0-.66.31c-.227.248-.867.847-.867 2.066 0 1.219.887 2.396 1.01 2.562.125.165 1.747 2.666 4.232 3.739a13.8 13.8 0 0 0 1.411.52c.594.19 1.134.163 1.56.1.475-.072 1.464-.6 1.671-1.178.207-.579.207-1.075.144-1.178-.061-.103-.226-.165-.474-.289Zm-4.518 6.17h-.004a8.224 8.224 0 0 1-4.192-1.15l-.3-.177-3.118.818.831-3.04-.196-.312a8.217 8.217 0 0 1-1.258-4.383c0-4.542 3.697-8.237 8.24-8.237 2.2 0 4.268.858 5.823 2.415a8.186 8.186 0 0 1 2.411 5.829c-.002 4.541-3.697 8.236-8.237 8.236Zm7.01-15.248A9.846 9.846 0 0 0 12.043 2c-5.464 0-9.91 4.446-9.913 9.91 0 1.747.456 3.452 1.323 4.954L2.048 22l5.254-1.378a9.902 9.902 0 0 0 4.736 1.206h.004c5.461 0 9.908-4.445 9.91-9.91a9.85 9.85 0 0 0-2.9-7.011Z"/>
</svg>
