<svg xmlns="http://www.w3.org/2000/svg" width="24" height="24" fill="currentColor" viewBox="0 0 24 24">
  <path d="m21.558 7 .024.162a2.52 2.52 0 0 0-1.723-1.74l-.017-.004C18.282 5 12.008 5 12.008 5s-6.258-.008-7.833.418A2.521 2.521 0 0 0 2.44 7.144l-.004.018c-.582 3.006-.586 6.62.026 9.838l-.026-.163a2.52 2.52 0 0 0 1.724 1.74l.017.004C5.734 19 12.009 19 12.009 19s6.258 0 7.834-.42a2.521 2.521 0 0 0 1.736-1.725l.004-.018c.265-1.398.417-3.007.417-4.65v-.373c0-1.644-.152-3.253-.442-4.814Zm-11.551 8.007V9l5.221 3.007-5.221 2.999Z"/>
</svg>
